WladiSans[wght].glyphspackage
{
glyphname = exclam;
layers = (
{
layerId = "3C0957B3-9451-4BAD-AE3B-C8576C323C81";
shapes = (
{
closed = 1;
nodes = (
(97,248,l),
(78,700,l),
(261,700,l),
(242,248,l)
);
},
{
closed = 1;
nodes = (
(111,-8,o),
(70,33,o),
(70,84,cs),
(70,137,o),
(111,178,o),
(172,178,cs),
(232,178,o),
(273,137,o),
(273,84,cs),
(273,33,o),
(232,-8,o),
(172,-8,cs)
);
}
);
width = 343;
},
{
layerId = "C91D2DC0-8AAD-4B21-B0E6-07AA6617D11E";
shapes = (
{
closed = 1;
nodes = (
(87,197,l),
(77,700,l),
(172,700,l),
(161,197,l)
);
},
{
closed = 1;
nodes = (
(92,-6,o),
(66,20,o),
(66,54,cs),
(66,87,o),
(92,112,o),
(126,112,cs),
(161,112,o),
(186,87,o),
(186,54,cs),
(186,20,o),
(161,-6,o),
(126,-6,cs)
);
}
);
width = 253;
},
{
layerId = "972C881F-D909-4F62-92A5-F720CB79AC7E";
shapes = (
{
closed = 1;
nodes = (
(83,176,l),
(77,700,l),
(137,700,l),
(129,176,l)
);
},
{
closed = 1;
nodes = (
(84,-5,o),
(65,15,o),
(65,42,cs),
(65,67,o),
(84,86,o),
(108,86,cs),
(132,86,o),
(151,67,o),
(151,42,cs),
(151,15,o),
(132,-5,o),
(108,-5,cs)
);
}
);
width = 217;
}
);
unicode = 33;
}
{
glyphname = quotedbl;
layers = (
{
layerId = "801975A8-2B28-48D2-ACC9-91C57621CBC0";
shapes = (
{
closed = 1;
nodes = (
(243,534,l),
(230,755,l),
(371,755,l),
(358,534,l)
);
},
{
closed = 1;
nodes = (
(53,534,l),
(40,755,l),
(181,755,l),
(168,534,l)
);
}
);
width = 411;
},
{
layerId = "108F7D4A-630E-4424-A5B2-B42F8C482EB9";
shapes = (
{
closed = 1;
nodes = (
(182,557,l),
(170,755,l),
(252,755,l),
(242,557,l)
);
},
{
closed = 1;
nodes = (
(48,557,l),
(38,755,l),
(120,755,l),
(109,557,l)
);
}
);
width = 290;
},
{
layerId = "565F47C8-0ABB-4A45-ACC1-9062093877DB";
shapes = (
{
closed = 1;
nodes = (
(157,566,l),
(146,755,l),
(205,755,l),
(196,566,l)
);
},
{
closed = 1;
nodes = (
(46,566,l),
(37,755,l),
(95,755,l),
(85,566,l)
);
}
);
width = 241;
}
);
leftKerningGroup = quotedbl2;
rightKerningGroup = quotedbl;
unicode = 34;
}
{
glyphname = numbersign;
layers = (
{
layerId = "F6FB205E-B3AB-4819-9CAF-AB538C51B80E";
shapes = (
{
closed = 1;
nodes = (
(461,0,l),
(494,153,l),
(328,153,l),
(295,0,l),
(135,0,l),
(168,153,l),
(20,153,l),
(20,307,l),
(201,307,l),
(229,438,l),
(84,438,l),
(84,592,l),
(261,592,l),
(293,740,l),
(453,740,l),
(421,592,l),
(587,592,l),
(619,740,l),
(779,740,l),
(747,592,l),
(871,592,l),
(871,438,l),
(715,438,l),
(687,307,l),
(807,307,l),
(807,153,l),
(654,153,l),
(621,0,l)
);
},
{
closed = 1;
nodes = (
(527,307,l),
(555,438,l),
(389,438,l),
(361,307,l)
);
}
);
width = 904;
},
{
layerId = "36B3D2C2-B8FB-4E59-BDB1-E262A6063C52";
shapes = (
{
closed = 1;
nodes = (
(440,0,l),
(483,195,l),
(270,195,l),
(229,0,l),
(145,0,l),
(187,195,l),
(45,195,l),
(45,273,l),
(204,273,l),
(238,434,l),
(88,434,l),
(88,513,l),
(255,513,l),
(297,707,l),
(380,707,l),
(338,513,l),
(551,513,l),
(592,707,l),
(675,707,l),
(634,513,l),
(772,513,l),
(772,434,l),
(617,434,l),
(583,273,l),
(728,273,l),
(728,195,l),
(566,195,l),
(525,0,l)
);
},
{
closed = 1;
nodes = (
(499,273,l),
(534,434,l),
(322,434,l),
(287,273,l)
);
}
);
width = 819;
},
{
layerId = "0C974A3A-E5A4-4FB7-A898-B0FABB9FC9C2";
shapes = (
{
closed = 1;
nodes = (
(432,0,l),
(478,212,l),
(247,212,l),
(202,0,l),
(149,0,l),
(194,212,l),
(55,212,l),
(55,260,l),
(205,260,l),
(242,433,l),
(90,433,l),
(90,482,l),
(252,482,l),
(298,694,l),
(351,694,l),
(305,482,l),
(536,482,l),
(581,694,l),
(634,694,l),
(589,482,l),
(732,482,l),
(732,433,l),
(578,433,l),
(541,260,l),
(696,260,l),
(696,212,l),
(531,212,l),
(486,0,l)
);
},
{
closed = 1;
nodes = (
(488,260,l),
(525,433,l),
(295,433,l),
(258,260,l)
);
}
);
width = 785;
}
);
unicode = 35;
}
{
glyphname = dollar;
layers = (
{
layerId = "BB5B5596-5E1F-4BCA-852B-56C614C2EA8E";
shapes = (
{
closed = 1;
nodes = (
(273,-87,l),
(273,792,l),
(337,792,l),
(337,-87,l)
);
},
{
alignment = -1;
ref = S;
}
);
width = 616;
},
{
layerId = "E4D0624D-8000-4CFF-8595-BC700BCBE458";
shapes = (
{
closed = 1;
nodes = (
(257,-87,l),
(257,791,l),
(326,791,l),
(326,-87,l)
);
},
{
alignment = -1;
ref = S;
}
);
width = 580;
},
{
layerId = "E70FFCB9-C703-4CAE-9CF8-4537993847F6";
shapes = (
{
closed = 1;
nodes = (
(260,-87,l),
(260,791,l),
(311,791,l),
(311,-87,l)
);
},
{
alignment = -1;
ref = S;
}
);
width = 565;
}
);
leftKerningGroup = S2;
rightKerningGroup = S;
unicode = 36;
}
{
glyphname = percent;
layers = (
{
layerId = "801975A8-2B28-48D2-ACC9-91C57621CBC0";
shapes = (
{
closed = 1;
nodes = (
(121,338,o),
(40,409,o),
(40,525,cs),
(40,641,o),
(121,712,o),
(224,712,cs),
(327,712,o),
(407,641,o),
(407,525,cs),
(407,409,o),
(327,338,o),
(224,338,cs)
);
},
{
closed = 1;
nodes = (
(209,0,l),
(592,700,l),
(757,700,l),
(374,0,l)
);
},
{
closed = 1;
nodes = (
(256,450,o),
(277,477,o),
(277,525,cs),
(277,574,o),
(256,601,o),
(223,601,cs),
(190,601,o),
(170,574,o),
(170,525,cs),
(170,477,o),
(190,450,o),
(223,450,cs)
);
},
{
closed = 1;
nodes = (
(642,-12,o),
(561,59,o),
(561,175,cs),
(561,291,o),
(642,362,o),
(745,362,cs),
(848,362,o),
(928,291,o),
(928,175,cs),
(928,59,o),
(848,-12,o),
(745,-12,cs)
);
},
{
closed = 1;
nodes = (
(777,100,o),
(798,127,o),
(798,175,cs),
(798,224,o),
(777,251,o),
(744,251,cs),
(711,251,o),
(691,224,o),
(691,175,cs),
(691,127,o),
(711,100,o),
(744,100,cs)
);
}
);
width = 968;
},
{
layerId = "108F7D4A-630E-4424-A5B2-B42F8C482EB9";
shapes = (
{
closed = 1;
nodes = (
(110,373,o),
(40,438,o),
(40,542,cs),
(40,646,o),
(112,711,o),
(202,711,cs),
(293,711,o),
(362,646,o),
(362,542,cs),
(362,438,o),
(292,373,o),
(201,373,cs)
);
},
{
closed = 1;
nodes = (
(142,0,l),
(548,700,l),
(635,700,l),
(230,0,l)
);
},
{
closed = 1;
nodes = (
(247,440,o),
(288,475,o),
(288,542,cs),
(288,611,o),
(248,645,o),
(202,645,cs),
(156,645,o),
(114,611,o),
(114,542,cs),
(114,475,o),
(155,440,o),
(201,440,cs)
);
},
{
closed = 1;
nodes = (
(491,-12,o),
(421,53,o),
(421,157,cs),
(421,261,o),
(493,326,o),
(583,326,cs),
(673,326,o),
(742,261,o),
(742,157,cs),
(742,53,o),
(672,-12,o),
(581,-12,cs)
);
},
{
closed = 1;
nodes = (
(628,55,o),
(669,89,o),
(669,157,cs),
(669,225,o),
(629,260,o),
(583,260,cs),
(536,260,o),
(495,225,o),
(495,157,cs),
(495,89,o),
(535,55,o),
(582,55,cs)
);
}
);
width = 782;
},
{
layerId = "565F47C8-0ABB-4A45-ACC1-9062093877DB";
shapes = (
{
closed = 1;
nodes = (
(106,387,o),
(40,450,o),
(40,549,cs),
(40,648,o),
(108,711,o),
(193,711,cs),
(279,711,o),
(344,648,o),
(344,549,cs),
(344,450,o),
(278,387,o),
(192,387,cs)
);
},
{
closed = 1;
nodes = (
(115,0,l),
(530,700,l),
(586,700,l),
(172,0,l)
);
},
{
closed = 1;
nodes = (
(243,436,o),
(292,474,o),
(292,549,cs),
(292,626,o),
(245,663,o),
(193,663,cs),
(142,663,o),
(92,626,o),
(92,549,cs),
(92,474,o),
(141,436,o),
(192,436,cs)
);
},
{
closed = 1;
nodes = (
(431,-12,o),
(365,51,o),
(365,150,cs),
(365,249,o),
(433,312,o),
(518,312,cs),
(603,312,o),
(668,249,o),
(668,150,cs),
(668,51,o),
(602,-12,o),
(516,-12,cs)
);
},
{
closed = 1;
nodes = (
(568,37,o),
(617,74,o),
(617,150,cs),
(617,226,o),
(570,264,o),
(518,264,cs),
(466,264,o),
(417,226,o),
(417,150,cs),
(417,74,o),
(465,37,o),
(517,37,cs)
);
}
);
width = 708;
}
);
leftKerningGroup = percent;
unicode = 37;
}
{
glyphname = ampersand;
layers = (
{
layerId = "BB5B5596-5E1F-4BCA-852B-56C614C2EA8E";
shapes = (
{
closed = 1;
nodes = (
(599,0,l),
(533,64,l),
(469,14,o),
(392,-11,o),
(302,-11,cs),
(138,-11,o),
(36,74,o),
(36,204,cs),
(36,291,o),
(82,364,o),
(178,411,c),
(143,454,o),
(130,490,o),
(130,533,cs),
(130,632,o),
(209,712,o),
(349,712,cs),
(493,712,o),
(563,625,o),
(560,528,c),
(399,528,l),
(400,567,o),
(378,584,o),
(347,584,cs),
(315,584,o),
(291,565,o),
(291,534,cs),
(291,509,o),
(310,480,o),
(347,441,c),
(517,275,l),
(526,292,o),
(535,311,o),
(544,331,c),
(558,365,l),
(729,365,l),
(704,307,ls),
(680,252,o),
(655,206,o),
(628,167,c),
(798,0,l)
);
},
{
closed = 1;
nodes = (
(273,316,l),
(225,291,o),
(201,256,o),
(201,216,cs),
(201,167,o),
(242,127,o),
(310,127,cs),
(355,127,o),
(395,140,o),
(429,165,c)
);
}
);
width = 810;
},
{
layerId = "E4D0624D-8000-4CFF-8595-BC700BCBE458";
shapes = (
{
closed = 1;
nodes = (
(610,0,l),
(518,93,l),
(446,18,o),
(374,-12,o),
(282,-12,cs),
(137,-12,o),
(40,73,o),
(40,200,cs),
(40,297,o),
(95,370,o),
(200,415,c),
(156,464,o),
(136,504,o),
(136,557,cs),
(136,648,o),
(205,712,o),
(317,712,cs),
(425,712,o),
(499,645,o),
(494,552,c),
(408,552,l),
(409,611,o),
(367,641,o),
(317,641,cs),
(259,641,o),
(223,607,o),
(223,558,cs),
(223,516,o),
(247,479,o),
(293,430,c),
(511,211,l),
(530,238,o),
(551,271,o),
(573,309,cs),
(603,363,l),
(695,363,l),
(653,285,ls),
(624,233,o),
(596,189,o),
(569,153,c),
(721,0,l)
);
},
{
closed = 1;
nodes = (
(253,360,l),
(167,327,o),
(127,275,o),
(127,205,cs),
(127,124,o),
(191,63,o),
(284,63,cs),
(353,63,o),
(404,87,o),
(462,149,c)
);
}
);
width = 736;
},
{
layerId = "E70FFCB9-C703-4CAE-9CF8-4537993847F6";
shapes = (
{
closed = 1;
nodes = (
(615,0,l),
(512,105,l),
(437,20,o),
(367,-12,o),
(274,-12,cs),
(137,-12,o),
(41,72,o),
(41,199,cs),
(41,299,o),
(100,373,o),
(209,416,c),
(161,468,o),
(139,510,o),
(139,566,cs),
(139,654,o),
(203,712,o),
(304,712,cs),
(398,712,o),
(473,653,o),
(468,561,c),
(412,561,l),
(412,629,o),
(362,664,o),
(305,664,cs),
(236,664,o),
(196,624,o),
(196,567,cs),
(196,519,o),
(222,479,o),
(271,426,c),
(508,185,l),
(531,216,o),
(557,255,o),
(584,300,cs),
(621,362,l),
(682,362,l),
(632,276,l),
(601,225,o),
(573,182,o),
(546,147,c),
(690,0,l)
);
},
{
closed = 1;
nodes = (
(245,378,l),
(144,341,o),
(97,283,o),
(97,200,cs),
(97,107,o),
(170,37,o),
(273,37,cs),
(352,37,o),
(408,66,o),
(475,143,c)
);
}
);
width = 707;
}
);
unicode = 38;
}
{
glyphname = quotesingle;
layers = (
{
layerId = "801975A8-2B28-48D2-ACC9-91C57621CBC0";
shapes = (
{
closed = 1;
nodes = (
(53,534,l),
(40,755,l),
(181,755,l),
(168,534,l)
);
}
);
width = 221;
},
{
layerId = "108F7D4A-630E-4424-A5B2-B42F8C482EB9";
shapes = (
{
closed = 1;
nodes = (
(49,557,l),
(38,755,l),
(123,755,l),
(111,557,l)
);
}
);
width = 160;
},
{
layerId = "565F47C8-0ABB-4A45-ACC1-9062093877DB";
shapes = (
{
closed = 1;
nodes = (
(48,566,l),
(37,755,l),
(100,755,l),
(88,566,l)
);
}
);
width = 136;
}
);
leftKerningGroup = quotedbl2;
rightKerningGroup = quotedbl;
unicode = 39;
}
{
glyphname = parenleft;
layers = (
{
layerId = "BB5B5596-5E1F-4BCA-852B-56C614C2EA8E";
shapes = (
{
closed = 1;
nodes = (
(230,-145,l),
(115,-25,o),
(43,145,o),
(43,333,cs),
(43,521,o),
(115,691,o),
(230,811,c),
(399,811,l),
(399,795,l),
(280,662,o),
(210,500,o),
(210,333,cs),
(210,166,o),
(280,4,o),
(399,-129,c),
(399,-145,l)
);
}
);
width = 425;
},
{
layerId = "E4D0624D-8000-4CFF-8595-BC700BCBE458";
shapes = (
{
closed = 1;
nodes = (
(247,-145,l),
(138,-40,o),
(47,125,o),
(47,333,cs),
(47,541,o),
(138,706,o),
(247,811,c),
(337,811,l),
(337,802,l),
(214,681,o),
(134,518,o),
(134,333,cs),
(134,149,o),
(216,-16,o),
(338,-136,c),
(338,-145,l)
);
}
);
width = 375;
},
{
layerId = "E70FFCB9-C703-4CAE-9CF8-4537993847F6";
shapes = (
{
closed = 1;
nodes = (
(254,-145,l),
(147,-46,o),
(49,117,o),
(49,333,cs),
(49,549,o),
(147,712,o),
(254,811,c),
(312,811,l),
(312,805,l),
(188,689,o),
(104,525,o),
(104,333,cs),
(104,142,o),
(190,-24,o),
(313,-139,c),
(313,-145,l)
);
}
);
width = 355;
}
);
unicode = 40;
}
{
glyphname = asterisk;
layers = (
{
layerId = "3C0957B3-9451-4BAD-AE3B-C8576C323C81";
shapes = (
{
closed = 1;
nodes = (
(211,360,l),
(235,490,l),
(136,401,l),
(74,509,l),
(197,552,l),
(75,592,l),
(132,695,l),
(236,608,l),
(210,740,l),
(329,740,l),
(303,608,l),
(407,695,l),
(463,593,l),
(340,550,l),
(463,508,l),
(403,402,l),
(303,490,l),
(328,360,l)
);
}
);
width = 534;
},
{
layerId = "C91D2DC0-8AAD-4B21-B0E6-07AA6617D11E";
shapes = (
{
closed = 1;
nodes = (
(207,360,l),
(221,512,l),
(97,425,l),
(62,488,l),
(201,548,l),
(63,607,l),
(97,668,l),
(222,581,l),
(208,734,l),
(278,734,l),
(262,581,l),
(386,668,l),
(419,608,l),
(282,548,l),
(420,487,l),
(386,426,l),
(262,512,l),
(277,360,l)
);
}
);
width = 480;
},
{
layerId = "972C881F-D909-4F62-92A5-F720CB79AC7E";
shapes = (
{
closed = 1;
nodes = (
(206,360,l),
(216,521,l),
(82,434,l),
(57,479,l),
(202,546,l),
(58,613,l),
(83,657,l),
(217,570,l),
(207,731,l),
(257,731,l),
(246,570,l),
(378,657,l),
(402,614,l),
(259,547,l),
(403,479,l),
(379,435,l),
(246,521,l),
(256,360,l)
);
}
);
width = 459;
}
);
unicode = 42;
}
{
glyphname = plus;
layers = (
{
layerId = "BB5B5596-5E1F-4BCA-852B-56C614C2EA8E";
shapes = (
{
closed = 1;
nodes = (
(234,54,l),
(234,218,l),
(50,218,l),
(50,360,l),
(234,360,l),
(234,524,l),
(376,524,l),
(376,360,l),
(560,360,l),
(560,218,l),
(376,218,l),
(376,54,l)
);
}
);
width = 610;
},
{
layerId = "E4D0624D-8000-4CFF-8595-BC700BCBE458";
shapes = (
{
closed = 1;
nodes = (
(253,71,l),
(253,253,l),
(62,253,l),
(62,328,l),
(253,328,l),
(253,508,l),
(332,508,l),
(332,328,l),
(522,328,l),
(522,253,l),
(332,253,l),
(332,71,l)
);
}
);
width = 584;
},
{
layerId = "E70FFCB9-C703-4CAE-9CF8-4537993847F6";
shapes = (
{
closed = 1;
nodes = (
(260,78,l),
(260,267,l),
(67,267,l),
(67,315,l),
(260,315,l),
(260,502,l),
(314,502,l),
(314,315,l),
(507,315,l),
(507,267,l),
(314,267,l),
(314,78,l)
);
}
);
width = 574;
}
);
unicode = 43;
}
{
glyphname = comma;
layers = (
{
layerId = "801975A8-2B28-48D2-ACC9-91C57621CBC0";
shapes = (
{
closed = 1;
nodes = (
(26,-113,l),
(82,164,l),
(242,164,l),
(135,-113,l)
);
}
);
width = 283;
},
{
layerId = "108F7D4A-630E-4424-A5B2-B42F8C482EB9";
shapes = (
{
closed = 1;
nodes = (
(3,-119,l),
(61,105,l),
(152,105,l),
(64,-119,l)
);
}
);
width = 183;
},
{
layerId = "565F47C8-0ABB-4A45-ACC1-9062093877DB";
shapes = (
{
closed = 1;
nodes = (
(-6,-121,l),
(53,81,l),
(116,81,l),
(35,-121,l)
);
}
);
width = 143;
}
);
unicode = 44;
}
{
glyphname = period;
layers = (
{
layerId = "BB5B5596-5E1F-4BCA-852B-56C614C2EA8E";
shapes = (
{
closed = 1;
nodes = (
(81,-8,o),
(40,33,o),
(40,84,cs),
(40,137,o),
(81,178,o),
(142,178,cs),
(202,178,o),
(243,137,o),
(243,84,cs),
(243,33,o),
(202,-8,o),
(142,-8,cs)
);
}
);
width = 283;
},
{
layerId = "E4D0624D-8000-4CFF-8595-BC700BCBE458";
shapes = (
{
closed = 1;
nodes = (
(65,-6,o),
(40,20,o),
(40,54,cs),
(40,87,o),
(65,112,o),
(100,112,cs),
(134,112,o),
(159,87,o),
(159,54,cs),
(159,20,o),
(134,-6,o),
(100,-6,cs)
);
}
);
width = 199;
},
{
layerId = "E70FFCB9-C703-4CAE-9CF8-4537993847F6";
shapes = (
{
closed = 1;
nodes = (
(59,-5,o),
(40,15,o),
(40,42,cs),
(40,67,o),
(59,86,o),
(83,86,cs),
(107,86,o),
(126,67,o),
(126,42,cs),
(126,15,o),
(107,-5,o),
(83,-5,cs)
);
}
);
width = 166;
}
);
leftKerningGroup = period2;
rightKerningGroup = period;
unicode = 46;
}
{
glyphname = slash;
layers = (
{
layerId = "801975A8-2B28-48D2-ACC9-91C57621CBC0";
shapes = (
{
closed = 1;
nodes = (
(18,-127,l),
(267,790,l),
(432,790,l),
(183,-127,l)
);
}
);
width = 450;
},
{
layerId = "108F7D4A-630E-4424-A5B2-B42F8C482EB9";
shapes = (
{
closed = 1;
nodes = (
(28,-97,l),
(278,766,l),
(366,766,l),
(114,-97,l)
);
}
);
width = 394;
},
{
layerId = "565F47C8-0ABB-4A45-ACC1-9062093877DB";
shapes = (
{
closed = 1;
nodes = (
(32,-85,l),
(283,756,l),
(339,756,l),
(87,-85,l)
);
}
);
width = 371;
}
);
unicode = 47;
}
{
glyphname = zero;
layers = (
{
layerId = "801975A8-2B28-48D2-ACC9-91C57621CBC0";
shapes = (
{
closed = 1;
nodes = (
(146,-12,o),
(38,137,o),
(38,350,cs),
(38,563,o),
(146,712,o),
(327,712,cs),
(508,712,o),
(616,563,o),
(616,350,cs),
(616,137,o),
(508,-12,o),
(327,-12,cs)
);
},
{
closed = 1;
nodes = (
(404,143,o),
(453,222,o),
(453,350,cs),
(453,478,o),
(404,557,o),
(327,557,cs),
(251,557,o),
(202,478,o),
(202,350,cs),
(202,222,o),
(251,143,o),
(327,143,cs)
);
}
);
width = 655;
},
{
layerId = "108F7D4A-630E-4424-A5B2-B42F8C482EB9";
shapes = (
{
closed = 1;
nodes = (
(145,-12,o),
(41,134,o),
(41,350,cs),
(41,565,o),
(145,712,o),
(313,712,cs),
(483,712,o),
(585,565,o),
(585,350,cs),
(585,134,o),
(483,-12,o),
(313,-12,cs)
);
},
{
closed = 1;
nodes = (
(419,66,o),
(496,173,o),
(496,350,cs),
(496,527,o),
(419,633,o),
(313,633,cs),
(207,633,o),
(131,527,o),
(131,350,cs),
(131,173,o),
(207,66,o),
(313,66,cs)
);
}
);
width = 627;
},
{
layerId = "565F47C8-0ABB-4A45-ACC1-9062093877DB";
shapes = (
{
closed = 1;
nodes = (
(144,-12,o),
(43,133,o),
(43,350,cs),
(43,566,o),
(144,712,o),
(307,712,cs),
(473,712,o),
(573,566,o),
(573,350,cs),
(573,133,o),
(473,-12,o),
(307,-12,cs)
);
},
{
closed = 1;
nodes = (
(425,35,o),
(513,153,o),
(513,350,cs),
(513,546,o),
(425,664,o),
(307,664,cs),
(189,664,o),
(103,546,o),
(103,350,cs),
(103,153,o),
(189,35,o),
(307,35,cs)
);
}
);
width = 616;
}
);
unicode = 48;
}
{
glyphname = one;
leftMetricsKey = "=27";
rightMetricsKey = "=62";
layers = (
{
layerId = "801975A8-2B28-48D2-ACC9-91C57621CBC0";
shapes = (
{
closed = 1;
nodes = (
(176,0,l),
(176,502,l),
(27,464,l),
(27,602,l),
(254,700,l),
(354,700,l),
(354,0,l)
);
}
);
width = 416;
},
{
layerId = "108F7D4A-630E-4424-A5B2-B42F8C482EB9";
leftMetricsKey = "=31";
rightMetricsKey = "=73";
shapes = (
{
closed = 1;
nodes = (
(187,0,l),
(187,601,l),
(31,558,l),
(31,621,l),
(218,700,l),
(278,700,l),
(278,0,l)
);
}
);
width = 351;
},
{
layerId = "565F47C8-0ABB-4A45-ACC1-9062093877DB";
shapes = (
{
closed = 1;
nodes = (
(186,0,l),
(186,641,l),
(27,596,l),
(27,628,l),
(199,700,l),
(242,700,l),
(242,0,l)
);
}
);
width = 304;
}
);
unicode = 49;
}
{
glyphname = two;
layers = (
{
layerId = "801975A8-2B28-48D2-ACC9-91C57621CBC0";
shapes = (
{
closed = 1;
nodes = (
(39,0,l),
(39,127,l),
(195,256,o),
(359,380,o),
(359,490,cs),
(359,533,o),
(336,568,o),
(285,568,cs),
(232,568,o),
(202,528,o),
(202,471,c),
(37,471,l),
(42,639,o),
(155,712,o),
(291,712,cs),
(454,712,o),
(530,610,o),
(530,501,cs),
(530,354,o),
(397,238,o),
(271,139,c),
(541,139,l),
(541,0,l)
);
}
);
width = 571;
},
{
layerId = "108F7D4A-630E-4424-A5B2-B42F8C482EB9";
shapes = (
{
closed = 1;
nodes = (
(62,0,l),
(62,62,l),
(249,211,o),
(414,368,o),
(414,500,cs),
(414,572,o),
(383,637,o),
(289,637,cs),
(196,637,o),
(152,568,o),
(152,491,c),
(66,491,l),
(68,631,o),
(161,712,o),
(290,712,cs),
(415,712,o),
(502,641,o),
(502,502,cs),
(502,341,o),
(316,176,o),
(192,73,c),
(525,73,l),
(525,0,l)
);
}
);
width = 572;
},
{
layerId = "565F47C8-0ABB-4A45-ACC1-9062093877DB";
shapes = (
{
closed = 1;
nodes = (
(71,0,l),
(71,36,l),
(271,193,o),
(436,363,o),
(436,504,cs),
(436,587,o),
(402,665,o),
(290,665,cs),
(182,665,o),
(132,584,o),
(132,499,c),
(78,499,l),
(78,628,o),
(164,712,o),
(289,712,cs),
(399,712,o),
(491,653,o),
(491,503,cs),
(491,336,o),
(284,151,o),
(160,47,c),
(519,47,l),
(519,0,l)
);
}
);
width = 572;
}
);
unicode = 50;
}
{
glyphname = three;
layers = (
{
layerId = "801975A8-2B28-48D2-ACC9-91C57621CBC0";
shapes = (
{
closed = 1;
nodes = (
(159,-6,o),
(51,67,o),
(46,231,c),
(213,231,l),
(214,174,o),
(242,136,o),
(306,136,cs),
(362,136,o),
(396,170,o),
(396,229,cs),
(396,286,o),
(354,325,o),
(286,325,cs),
(187,325,l),
(187,436,l),
(320,554,l),
(82,554,l),
(82,700,l),
(530,700,l),
(530,571,l),
(369,429,l),
(369,429,l),
(481,429,o),
(558,335,o),
(558,222,cs),
(558,86,o),
(459,-6,o),
(305,-6,cs)
);
}
);
width = 614;
},
{
layerId = "108F7D4A-630E-4424-A5B2-B42F8C482EB9";
shapes = (
{
closed = 1;
nodes = (
(162,-5,o),
(65,68,o),
(52,209,c),
(139,209,l),
(149,129,o),
(201,69,o),
(299,69,cs),
(394,69,o),
(452,124,o),
(452,217,cs),
(452,311,o),
(395,367,o),
(298,367,cs),
(198,367,l),
(198,429,l),
(398,625,l),
(96,625,l),
(96,700,l),
(507,700,l),
(507,633,l),
(303,432,l),
(320,432,ls),
(456,432,o),
(538,349,o),
(538,216,cs),
(538,80,o),
(447,-5,o),
(298,-5,cs)
);
}
);
width = 598;
},
{
layerId = "565F47C8-0ABB-4A45-ACC1-9062093877DB";
shapes = (
{
closed = 1;
nodes = (
(163,-5,o),
(70,68,o),
(54,200,c),
(110,200,l),
(123,111,o),
(184,42,o),
(296,42,cs),
(407,42,o),
(474,105,o),
(474,212,cs),
(474,321,o),
(411,384,o),
(303,384,cs),
(203,384,l),
(203,426,l),
(429,654,l),
(102,654,l),
(102,700,l),
(498,700,l),
(498,658,l),
(276,433,l),
(301,433,ls),
(446,433,o),
(530,354,o),
(530,213,cs),
(530,77,o),
(442,-5,o),
(295,-5,cs)
);
}
);
width = 591;
}
);
unicode = 51;
}
{
glyphname = four;
layers = (
{
layerId = "801975A8-2B28-48D2-ACC9-91C57621CBC0";
shapes = (
{
closed = 1;
nodes = (
(555,0,l),
(555,110,l),
(637,110,l),
(637,258,l),
(555,258,l),
(555,423,l),
(396,423,l),
(396,258,l),
(228,258,l),
(513,700,l),
(334,700,l),
(48,248,l),
(48,110,l),
(384,110,l),
(384,0,l)
);
}
);
width = 684;
},
{
layerId = "108F7D4A-630E-4424-A5B2-B42F8C482EB9";
shapes = (
{
closed = 1;
nodes = (
(489,0,l),
(489,144,l),
(586,144,l),
(586,220,l),
(489,220,l),
(489,423,l),
(407,423,l),
(407,220,l),
(143,220,l),
(451,700,l),
(356,700,l),
(48,213,l),
(48,144,l),
(402,144,l),
(402,0,l)
);
}
);
width = 634;
},
{
layerId = "565F47C8-0ABB-4A45-ACC1-9062093877DB";
shapes = (
{
closed = 1;
nodes = (
(462,0,l),
(462,157,l),
(565,157,l),
(565,205,l),
(462,205,l),
(462,423,l),
(411,423,l),
(411,205,l),
(109,205,l),
(426,700,l),
(365,700,l),
(48,199,l),
(48,157,l),
(409,157,l),
(409,0,l)
);
}
);
width = 614;
}
);
unicode = 52;
}
{
glyphname = six;
layers = (
{
layerId = "F6FB205E-B3AB-4819-9CAF-AB538C51B80E";
shapes = (
{
closed = 1;
nodes = (
(460,-12,o),
(573,85,o),
(573,236,cs),
(573,381,o),
(480,465,o),
(354,465,cs),
(317,465,o),
(285,454,o),
(247,445,c),
(255,385,l),
(478,700,l),
(290,700,l),
(133,468,ls),
(75,383,o),
(52,312,o),
(52,238,cs),
(52,91,o),
(159,-12,o),
(314,-12,cs)
);
},
{
closed = 1;
nodes = (
(252,131,o),
(214,171,o),
(214,234,cs),
(214,297,o),
(252,337,o),
(314,337,cs),
(375,337,o),
(413,297,o),
(413,234,cs),
(413,171,o),
(375,131,o),
(314,131,cs)
);
}
);
width = 625;
},
{
layerId = "36B3D2C2-B8FB-4E59-BDB1-E262A6063C52";
shapes = (
{
closed = 1;
nodes = (
(446,-12,o),
(544,89,o),
(544,232,cs),
(544,374,o),
(450,466,o),
(313,466,cs),
(268,466,o),
(224,450,o),
(189,432,c),
(190,401,l),
(395,700,l),
(296,700,l),
(122,442,ls),
(72,368,o),
(50,303,o),
(50,232,cs),
(50,95,o),
(145,-12,o),
(298,-12,cs)
);
},
{
closed = 1;
nodes = (
(199,65,o),
(135,130,o),
(135,231,cs),
(135,329,o),
(199,396,o),
(298,396,cs),
(397,396,o),
(459,330,o),
(459,231,cs),
(459,130,o),
(397,65,o),
(298,65,cs)
);
}
);
width = 594;
},
{
layerId = "0C974A3A-E5A4-4FB7-A898-B0FABB9FC9C2";
shapes = (
{
closed = 1;
nodes = (
(440,-12,o),
(533,90,o),
(533,230,cs),
(533,371,o),
(438,466,o),
(297,466,cs),
(249,466,o),
(199,449,o),
(166,427,c),
(164,408,l),
(362,700,l),
(298,700,l),
(118,432,ls),
(71,362,o),
(49,299,o),
(49,230,cs),
(49,96,o),
(140,-12,o),
(292,-12,cs)
);
},
{
closed = 1;
nodes = (
(178,39,o),
(104,114,o),
(104,230,cs),
(104,342,o),
(178,419,o),
(292,419,cs),
(406,419,o),
(478,343,o),
(478,230,cs),
(478,113,o),
(406,39,o),
(292,39,cs)
);
}
);
width = 582;
}
);
unicode = 54;
}
{
glyphname = seven;
layers = (
{
layerId = "3C0957B3-9451-4BAD-AE3B-C8576C323C81";
shapes = (
{
closed = 1;
nodes = (
(85,0,l),
(335,554,l),
(28,554,l),
(28,700,l),
(511,700,l),
(511,582,l),
(260,0,l)
);
}
);
width = 535;
},
{
layerId = "C91D2DC0-8AAD-4B21-B0E6-07AA6617D11E";
shapes = (
{
closed = 1;
nodes = (
(130,0,l),
(406,625,l),
(27,625,l),
(27,700,l),
(497,700,l),
(497,635,l),
(223,0,l)
);
}
);
width = 534;
},
{
layerId = "972C881F-D909-4F62-92A5-F720CB79AC7E";
shapes = (
{
closed = 1;
nodes = (
(148,0,l),
(435,653,l),
(26,653,l),
(26,700,l),
(492,700,l),
(492,656,l),
(208,0,l)
);
}
);
width = 533;
}
);
unicode = 55;
}
{
glyphname = eight;
layers = (
{
layerId = "F6FB205E-B3AB-4819-9CAF-AB538C51B80E";
shapes = (
{
closed = 1;
nodes = (
(175,-12,o),
(54,70,o),
(54,201,cs),
(54,285,o),
(94,346,o),
(161,379,c),
(109,410,o),
(71,459,o),
(71,524,cs),
(71,620,o),
(152,712,o),
(324,712,cs),
(496,712,o),
(576,620,o),
(576,524,cs),
(576,460,o),
(537,408,o),
(486,379,c),
(554,344,o),
(594,285,o),
(594,201,cs),
(594,70,o),
(473,-12,o),
(324,-12,cs)
);
},
{
closed = 1;
nodes = (
(380,425,o),
(410,457,o),
(410,500,cs),
(410,545,o),
(380,576,o),
(324,576,cs),
(268,576,o),
(238,546,o),
(238,499,cs),
(238,456,o),
(268,425,o),
(324,425,cs)
);
},
{
closed = 1;
nodes = (
(392,128,o),
(427,168,o),
(427,216,cs),
(427,268,o),
(392,305,o),
(324,305,cs),
(256,305,o),
(219,268,o),
(219,216,cs),
(219,168,o),
(256,128,o),
(324,128,cs)
);
}
);
width = 648;
},
{
layerId = "36B3D2C2-B8FB-4E59-BDB1-E262A6063C52";
shapes = (
{
closed = 1;
nodes = (
(168,-12,o),
(63,70,o),
(63,190,cs),
(63,276,o),
(116,350,o),
(198,373,c),
(123,399,o),
(81,459,o),
(81,525,cs),
(81,629,o),
(163,712,o),
(306,712,cs),
(447,712,o),
(531,629,o),
(531,525,cs),
(531,459,o),
(488,399,o),
(414,373,c),
(496,350,o),
(550,276,o),
(550,190,cs),
(550,70,o),
(444,-12,o),
(306,-12,cs)
);
},
{
closed = 1;
nodes = (
(391,404,o),
(442,451,o),
(442,520,cs),
(442,596,o),
(391,637,o),
(306,637,cs),
(222,637,o),
(170,597,o),
(170,520,cs),
(170,450,o),
(222,404,o),
(306,404,cs)
);
},
{
closed = 1;
nodes = (
(411,65,o),
(461,117,o),
(461,196,cs),
(461,285,o),
(402,331,o),
(306,331,cs),
(210,331,o),
(150,285,o),
(150,196,cs),
(150,117,o),
(201,65,o),
(306,65,cs)
);
}
);
width = 612;
},
{
layerId = "0C974A3A-E5A4-4FB7-A898-B0FABB9FC9C2";
shapes = (
{
closed = 1;
nodes = (
(165,-12,o),
(66,70,o),
(66,186,cs),
(66,273,o),
(125,352,o),
(213,371,c),
(129,395,o),
(85,459,o),
(85,526,cs),
(85,633,o),
(168,712,o),
(299,712,cs),
(427,712,o),
(513,633,o),
(513,526,cs),
(513,459,o),
(469,395,o),
(385,371,c),
(473,352,o),
(532,273,o),
(532,186,cs),
(532,70,o),
(433,-12,o),
(299,-12,cs)
);
},
{
closed = 1;
nodes = (
(395,395,o),
(455,448,o),
(455,528,cs),
(455,617,o),
(395,661,o),
(299,661,cs),
(203,661,o),
(143,617,o),
(143,528,cs),
(143,448,o),
(203,395,o),
(299,395,cs)
);
},
{
closed = 1;
nodes = (
(418,40,o),
(475,97,o),
(475,188,cs),
(475,292,o),
(406,342,o),
(299,342,cs),
(192,342,o),
(123,292,o),
(123,188,cs),
(123,97,o),
(179,40,o),
(299,40,cs)
);
}
);
width = 597;
}
);
unicode = 56;
}
{
glyphname = nine;
layers = (
{
layerId = "BB5B5596-5E1F-4BCA-852B-56C614C2EA8E";
shapes = (
{
closed = 1;
nodes = (
(335,0,l),
(492,232,ls),
(550,317,o),
(573,388,o),
(573,462,cs),
(573,609,o),
(466,712,o),
(311,712,cs),
(165,712,o),
(52,615,o),
(52,464,cs),
(52,319,o),
(145,235,o),
(271,235,cs),
(308,235,o),
(340,246,o),
(378,255,c),
(370,315,l),
(147,0,l)
);
},
{
closed = 1;
nodes = (
(250,363,o),
(212,403,o),
(212,466,cs),
(212,529,o),
(250,569,o),
(311,569,cs),
(373,569,o),
(411,529,o),
(411,466,cs),
(411,403,o),
(373,363,o),
(311,363,cs)
);
}
);
width = 625;
},
{
layerId = "E4D0624D-8000-4CFF-8595-BC700BCBE458";
shapes = (
{
closed = 1;
nodes = (
(298,0,l),
(471,258,ls),
(522,332,o),
(544,397,o),
(544,468,cs),
(544,605,o),
(449,712,o),
(295,712,cs),
(148,712,o),
(50,611,o),
(50,468,cs),
(50,326,o),
(144,234,o),
(280,234,cs),
(326,234,o),
(371,250,o),
(405,268,c),
(404,299,l),
(198,0,l)
);
},
{
closed = 1;
nodes = (
(196,304,o),
(134,370,o),
(134,469,cs),
(134,570,o),
(196,635,o),
(295,635,cs),
(395,635,o),
(459,570,o),
(459,469,cs),
(459,371,o),
(395,304,o),
(295,304,cs)
);
}
);
width = 594;
},
{
layerId = "E70FFCB9-C703-4CAE-9CF8-4537993847F6";
shapes = (
{
closed = 1;
nodes = (
(283,0,l),
(463,268,ls),
(511,338,o),
(533,401,o),
(533,470,cs),
(533,604,o),
(442,712,o),
(289,712,cs),
(141,712,o),
(49,610,o),
(49,470,cs),
(49,329,o),
(144,234,o),
(284,234,cs),
(333,234,o),
(383,251,o),
(416,273,c),
(418,292,l),
(219,0,l)
);
},
{
closed = 1;
nodes = (
(175,281,o),
(103,357,o),
(103,470,cs),
(103,587,o),
(175,661,o),
(289,661,cs),
(404,661,o),
(478,586,o),
(478,470,cs),
(478,358,o),
(404,281,o),
(289,281,cs)
);
}
);
width = 582;
}
);
unicode = 57;
}
{
glyphname = colon;
layers = (
{
layerId = "3C0957B3-9451-4BAD-AE3B-C8576C323C81";
shapes = (
{
alignment = -1;
ref = period;
},
{
alignment = -1;
pos = (0,330);
ref = period;
}
);
width = 284;
},
{
layerId = "C91D2DC0-8AAD-4B21-B0E6-07AA6617D11E";
shapes = (
{
closed = 1;
nodes = (
(65,-6,o),
(40,20,o),
(40,54,cs),
(40,87,o),
(65,112,o),
(100,112,cs),
(134,112,o),
(159,87,o),
(159,54,cs),
(159,20,o),
(134,-6,o),
(100,-6,cs)
);
},
{
closed = 1;
nodes = (
(65,390,o),
(40,416,o),
(40,450,cs),
(40,483,o),
(65,508,o),
(100,508,cs),
(134,508,o),
(159,483,o),
(159,450,cs),
(159,416,o),
(134,390,o),
(100,390,cs)
);
}
);
width = 203;
},
{
layerId = "972C881F-D909-4F62-92A5-F720CB79AC7E";
shapes = (
{
alignment = -1;
ref = period;
},
{
alignment = -1;
pos = (0,422);
ref = period;
}
);
width = 170;
}
);
unicode = 58;
}
{
glyphname = less;
layers = (
{
layerId = "BB5B5596-5E1F-4BCA-852B-56C614C2EA8E";
shapes = (
{
closed = 1;
nodes = (
(263,129,l),
(60,350,l),
(263,571,l),
(478,571,l),
(274,350,l),
(478,129,l)
);
}
);
width = 542;
},
{
layerId = "E4D0624D-8000-4CFF-8595-BC700BCBE458";
shapes = (
{
closed = 1;
nodes = (
(314,136,l),
(71,366,l),
(314,597,l),
(426,597,l),
(182,366,l),
(426,136,l)
);
}
);
width = 501;
},
{
layerId = "E70FFCB9-C703-4CAE-9CF8-4537993847F6";
shapes = (
{
closed = 1;
nodes = (
(334,139,l),
(76,373,l),
(334,607,l),
(405,607,l),
(145,373,l),
(405,139,l)
);
}
);
width = 485;
}
);
unicode = 60;
}
{
glyphname = equal;
layers = (
{
layerId = "F6FB205E-B3AB-4819-9CAF-AB538C51B80E";
shapes = (
{
closed = 1;
nodes = (
(54,331,l),
(54,482,l),
(504,482,l),
(504,331,l)
);
},
{
closed = 1;
nodes = (
(54,96,l),
(54,247,l),
(504,247,l),
(504,96,l)
);
}
);
width = 558;
},
{
layerId = "36B3D2C2-B8FB-4E59-BDB1-E262A6063C52";
shapes = (
{
closed = 1;
nodes = (
(63,357,l),
(63,433,l),
(464,433,l),
(464,357,l)
);
},
{
closed = 1;
nodes = (
(63,149,l),
(63,224,l),
(464,224,l),
(464,149,l)
);
}
);
width = 527;
},
{
layerId = "0C974A3A-E5A4-4FB7-A898-B0FABB9FC9C2";
shapes = (
{
closed = 1;
nodes = (
(67,368,l),
(67,414,l),
(448,414,l),
(448,368,l)
);
},
{
closed = 1;
nodes = (
(67,170,l),
(67,215,l),
(448,215,l),
(448,170,l)
);
}
);
width = 514;
}
);
unicode = 61;
}
{
glyphname = greater;
layers = (
{
layerId = "BB5B5596-5E1F-4BCA-852B-56C614C2EA8E";
shapes = (
{
closed = 1;
nodes = (
(64,129,l),
(268,350,l),
(64,571,l),
(279,571,l),
(482,350,l),
(279,129,l)
);
}
);
width = 542;
},
{
layerId = "E4D0624D-8000-4CFF-8595-BC700BCBE458";
shapes = (
{
closed = 1;
nodes = (
(75,136,l),
(319,366,l),
(75,597,l),
(187,597,l),
(430,366,l),
(187,136,l)
);
}
);
width = 501;
},
{
layerId = "E70FFCB9-C703-4CAE-9CF8-4537993847F6";
shapes = (
{
closed = 1;
nodes = (
(80,139,l),
(339,373,l),
(80,607,l),
(150,607,l),
(409,373,l),
(150,139,l)
);
}
);
width = 485;
}
);
unicode = 62;
}
{
glyphname = at;
layers = (
{
layerId = "3C0957B3-9451-4BAD-AE3B-C8576C323C81";
shapes = (
{
closed = 1;
nodes = (
(224,-225,o),
(73,-85,o),
(73,133,cs),
(73,440,o),
(306,668,o),
(618,668,cs),
(858,668,o),
(1007,523,o),
(1007,313,cs),
(1007,145,o),
(918,-5,o),
(754,-5,cs),
(682,-5,o),
(636,24,o),
(620,75,c),
(583,23,o),
(523,-7,o),
(452,-7,cs),
(352,-7,o),
(293,55,o),
(293,159,cs),
(293,306,o),
(388,439,o),
(525,439,cs),
(582,439,o),
(620,418,o),
(639,379,c),
(648,432,l),
(786,432,l),
(742,181,ls),
(734,134,o),
(739,105,o),
(778,105,cs),
(846,105,o),
(877,215,o),
(877,308,cs),
(877,461,o),
(777,553,o),
(601,553,cs),
(372,553,o),
(202,374,o),
(202,146,cs),
(202,-15,o),
(299,-109,o),
(470,-109,cs),
(534,-109,o),
(596,-96,o),
(647,-73,c),
(674,-182,l),
(609,-211,o),
(535,-225,o),
(454,-225,cs)
);
},
{
closed = 1;
nodes = (
(565,116,o),
(614,172,o),
(614,240,cs),
(614,285,o),
(588,317,o),
(543,317,cs),
(483,317,o),
(441,257,o),
(441,189,cs),
(441,146,o),
(463,116,o),
(508,116,cs)
);
}
);
width = 1080;
},
{
layerId = "C91D2DC0-8AAD-4B21-B0E6-07AA6617D11E";
shapes = (
{
closed = 1;
nodes = (
(218,-201,o),
(74,-70,o),
(74,135,cs),
(74,421,o),
(285,642,o),
(576,642,cs),
(800,642,o),
(941,504,o),
(941,305,cs),
(941,150,o),
(864,-6,o),
(726,-6,cs),
(658,-6,o),
(624,33,o),
(619,91,c),
(579,29,o),
(512,-6,o),
(440,-6,cs),
(337,-6,o),
(279,60,o),
(279,164,cs),
(279,312,o),
(377,445,o),
(519,445,cs),
(586,445,o),
(629,417,o),
(650,363,c),
(662,433,l),
(737,433,l),
(687,150,ls),
(677,93,o),
(690,54,o),
(739,54,cs),
(825,54,o),
(871,191,o),
(871,301,cs),
(871,475,o),
(756,579,o),
(566,579,cs),
(323,579,o),
(146,386,o),
(146,144,cs),
(146,-36,o),
(261,-138,o),
(448,-138,cs),
(506,-138,o),
(564,-127,o),
(615,-104,c),
(629,-163,l),
(568,-188,o),
(503,-201,o),
(433,-201,cs)
);
},
{
closed = 1;
nodes = (
(550,61,o),
(620,134,o),
(630,239,c),
(638,316,o),
(602,378,o),
(522,378,cs),
(422,378,o),
(359,279,o),
(359,178,cs),
(359,107,o),
(396,61,o),
(466,61,cs)
);
}
);
width = 1016;
},
{
layerId = "972C881F-D909-4F62-92A5-F720CB79AC7E";
shapes = (
{
closed = 1;
nodes = (
(216,-191,o),
(75,-64,o),
(75,136,cs),
(75,414,o),
(277,631,o),
(559,631,cs),
(777,631,o),
(915,497,o),
(915,302,cs),
(915,152,o),
(842,-6,o),
(715,-6,cs),
(648,-6,o),
(619,36,o),
(618,97,c),
(577,32,o),
(507,-6,o),
(435,-6,cs),
(331,-6,o),
(274,62,o),
(274,166,cs),
(274,314,o),
(372,447,o),
(517,447,cs),
(588,447,o),
(633,417,o),
(654,357,c),
(668,434,l),
(717,434,l),
(665,137,ls),
(654,76,o),
(670,34,o),
(723,34,cs),
(816,34,o),
(868,182,o),
(868,298,cs),
(868,480,o),
(748,590,o),
(552,590,cs),
(304,590,o),
(124,391,o),
(124,143,cs),
(124,-44,o),
(246,-149,o),
(439,-149,cs),
(495,-149,o),
(551,-139,o),
(602,-116,c),
(611,-156,l),
(552,-179,o),
(490,-191,o),
(424,-191,cs)
);
},
{
closed = 1;
nodes = (
(544,39,o),
(623,119,o),
(636,238,c),
(647,328,o),
(607,402,o),
(514,402,cs),
(397,402,o),
(326,288,o),
(326,173,cs),
(326,92,o),
(369,39,o),
(449,39,cs)
);
}
);
width = 990;
}
);
unicode = 64;
}
{
glyphname = A;
layers = (
{
layerId = "F6FB205E-B3AB-4819-9CAF-AB538C51B80E";
shapes = (
{
closed = 1;
nodes = (
(16,0,l),
(270,700,l),
(468,700,l),
(722,0,l),
(541,0,l),
(492,144,l),
(244,144,l),
(195,0,l)
);
},
{
closed = 1;
nodes = (
(448,276,l),
(368,511,l),
(289,276,l)
);
}
);
width = 738;
},
{
layerId = "36B3D2C2-B8FB-4E59-BDB1-E262A6063C52";
shapes = (
{
closed = 1;
nodes = (
(29,0,l),
(287,700,l),
(381,700,l),
(638,0,l),
(545,0,l),
(481,178,l),
(186,178,l),
(122,0,l)
);
},
{
closed = 1;
nodes = (
(456,250,l),
(334,590,l),
(211,250,l)
);
}
);
width = 667;
},
{
layerId = "0C974A3A-E5A4-4FB7-A898-B0FABB9FC9C2";
shapes = (
{
closed = 1;
nodes = (
(34,0,l),
(294,700,l),
(346,700,l),
(605,0,l),
(547,0,l),
(476,192,l),
(163,192,l),
(93,0,l)
);
},
{
closed = 1;
nodes = (
(459,239,l),
(320,621,l),
(180,239,l)
);
}
);
width = 639;
}
);
leftKerningGroup = A2;
rightKerningGroup = A;
unicode = 65;
}
{
glyphname = B;
layers = (
{
layerId = "801975A8-2B28-48D2-ACC9-91C57621CBC0";
shapes = (
{
closed = 1;
nodes = (
(62,0,l),
(62,700,l),
(378,700,ls),
(522,700,o),
(606,630,o),
(606,518,cs),
(606,433,o),
(556,380,o),
(487,360,c),
(570,344,o),
(622,271,o),
(622,191,cs),
(622,74,o),
(538,0,o),
(389,0,cs)
);
},
{
closed = 1;
nodes = (
(233,418,l),
(345,418,ls),
(401,418,o),
(432,443,o),
(432,491,cs),
(432,539,o),
(401,565,o),
(345,565,cs),
(233,565,l)
);
},
{
closed = 1;
nodes = (
(233,138,l),
(359,138,ls),
(416,138,o),
(449,163,o),
(449,214,cs),
(449,265,o),
(414,293,o),
(357,293,cs),
(233,293,l)
);
}
);
width = 659;
},
{
layerId = "108F7D4A-630E-4424-A5B2-B42F8C482EB9";
shapes = (
{
closed = 1;
nodes = (
(73,0,l),
(73,700,l),
(323,700,ls),
(470,700,o),
(542,623,o),
(542,522,cs),
(542,432,o),
(486,381,o),
(418,361,c),
(497,348,o),
(558,277,o),
(558,191,cs),
(558,84,o),
(478,0,o),
(331,0,cs)
);
},
{
closed = 1;
nodes = (
(162,395,l),
(316,395,ls),
(403,395,o),
(452,438,o),
(452,512,cs),
(452,583,o),
(406,627,o),
(313,627,cs),
(162,627,l)
);
},
{
closed = 1;
nodes = (
(162,73,l),
(321,73,ls),
(415,73,o),
(468,119,o),
(468,198,cs),
(468,276,o),
(411,325,o),
(318,325,cs),
(162,325,l)
);
}
);
width = 605;
},
{
layerId = "565F47C8-0ABB-4A45-ACC1-9062093877DB";
shapes = (
{
closed = 1;
nodes = (
(78,0,l),
(78,700,l),
(301,700,ls),
(449,700,o),
(516,620,o),
(516,524,cs),
(516,431,o),
(458,381,o),
(391,362,c),
(468,349,o),
(532,279,o),
(532,191,cs),
(532,88,o),
(454,0,o),
(308,0,cs)
);
},
{
closed = 1;
nodes = (
(133,386,l),
(304,386,ls),
(404,386,o),
(460,436,o),
(460,520,cs),
(460,600,o),
(408,652,o),
(300,652,cs),
(133,652,l)
);
},
{
closed = 1;
nodes = (
(133,47,l),
(306,47,ls),
(414,47,o),
(475,102,o),
(475,191,cs),
(475,280,o),
(410,338,o),
(303,338,cs),
(133,338,l)
);
}
);
width = 583;
}
);
unicode = 66;
}
{
glyphname = C;
layers = (
{
layerId = "F6FB205E-B3AB-4819-9CAF-AB538C51B80E";
shapes = (
{
closed = 1;
nodes = (
(172,-12,o),
(43,136,o),
(43,348,cs),
(43,561,o),
(172,712,o),
(388,712,cs),
(565,712,o),
(684,619,o),
(711,454,c),
(523,454,l),
(508,521,o),
(461,556,o),
(386,556,cs),
(275,556,o),
(217,477,o),
(217,348,cs),
(217,220,o),
(275,143,o),
(386,143,cs),
(461,143,o),
(508,173,o),
(523,233,c),
(711,233,l),
(684,81,o),
(564,-12,o),
(388,-12,cs)
);
}
);
width = 754;
},
{
layerId = "36B3D2C2-B8FB-4E59-BDB1-E262A6063C52";
shapes = (
{
closed = 1;
nodes = (
(175,-12,o),
(47,135,o),
(47,349,cs),
(47,564,o),
(175,712,o),
(382,712,cs),
(544,712,o),
(645,631,o),
(675,492,c),
(577,492,l),
(557,580,o),
(493,634,o),
(381,634,cs),
(232,634,o),
(138,527,o),
(138,349,cs),
(138,172,o),
(232,66,o),
(381,66,cs),
(493,66,o),
(557,121,o),
(577,204,c),
(675,204,l),
(645,69,o),
(543,-12,o),
(382,-12,cs)
);
}
);
width = 722;
},
{
layerId = "0C974A3A-E5A4-4FB7-A898-B0FABB9FC9C2";
shapes = (
{
closed = 1;
nodes = (
(176,-12,o),
(49,134,o),
(49,350,cs),
(49,565,o),
(176,712,o),
(379,712,cs),
(535,712,o),
(630,636,o),
(661,507,c),
(599,507,l),
(576,603,o),
(506,665,o),
(379,665,cs),
(215,665,o),
(106,547,o),
(106,350,cs),
(106,153,o),
(215,35,o),
(379,35,cs),
(506,35,o),
(576,100,o),
(599,193,c),
(661,193,l),
(630,64,o),
(535,-12,o),
(379,-12,cs)
);
}
);
width = 709;
}
);
leftKerningGroup = C2;
rightKerningGroup = C;
unicode = 67;
}
{
glyphname = D;
layers = (
{
layerId = "BB5B5596-5E1F-4BCA-852B-56C614C2EA8E";
shapes = (
{
closed = 1;
nodes = (
(62,0,l),
(62,700,l),
(325,700,ls),
(569,700,o),
(683,558,o),
(683,351,cs),
(683,143,o),
(569,0,o),
(325,0,cs)
);
},
{
closed = 1;
nodes = (
(233,148,l),
(314,148,ls),
(463,148,o),
(509,222,o),
(509,351,cs),
(509,478,o),
(463,554,o),
(314,554,cs),
(233,554,l)
);
}
);
width = 726;
},
{
layerId = "E4D0624D-8000-4CFF-8595-BC700BCBE458";
shapes = (
{
closed = 1;
nodes = (
(73,0,l),
(73,700,l),
(291,700,ls),
(537,700,o),
(650,567,o),
(650,349,cs),
(650,133,o),
(537,0,o),
(291,0,cs)
);
},
{
closed = 1;
nodes = (
(162,74,l),
(288,74,ls),
(489,74,o),
(560,178,o),
(560,349,cs),
(560,521,o),
(489,626,o),
(288,626,cs),
(162,626,l)
);
}
);
width = 697;
},
{
layerId = "E70FFCB9-C703-4CAE-9CF8-4537993847F6";
shapes = (
{
closed = 1;
nodes = (
(78,0,l),
(78,700,l),
(277,700,ls),
(524,700,o),
(637,571,o),
(637,348,cs),
(637,129,o),
(524,0,o),
(277,0,cs)
);
},
{
closed = 1;
nodes = (
(133,45,l),
(278,45,ls),
(499,45,o),
(580,160,o),
(580,348,cs),
(580,538,o),
(499,655,o),
(278,655,cs),
(133,655,l)
);
}
);
width = 686;
}
);
rightKerningGroup = D;
unicode = 68;
}
{
glyphname = E;
layers = (
{
layerId = "801975A8-2B28-48D2-ACC9-91C57621CBC0";
shapes = (
{
closed = 1;
nodes = (
(62,0,l),
(62,700,l),
(542,700,l),
(542,563,l),
(233,563,l),
(233,423,l),
(512,423,l),
(512,291,l),
(233,291,l),
(233,137,l),
(542,137,l),
(542,0,l)
);
}
);
width = 592;
},
{
layerId = "108F7D4A-630E-4424-A5B2-B42F8C482EB9";
shapes = (
{
closed = 1;
nodes = (
(73,0,l),
(73,700,l),
(508,700,l),
(508,628,l),
(162,628,l),
(162,389,l),
(478,389,l),
(478,317,l),
(162,317,l),
(162,72,l),
(508,72,l),
(508,0,l)
);
}
);
width = 565;
},
{
layerId = "565F47C8-0ABB-4A45-ACC1-9062093877DB";
shapes = (
{
closed = 1;
nodes = (
(78,0,l),
(78,700,l),
(495,700,l),
(495,654,l),
(133,654,l),
(133,375,l),
(465,375,l),
(465,328,l),
(133,328,l),
(133,46,l),
(495,46,l),
(495,0,l)
);
}
);
width = 554;
}
);
unicode = 69;
}
{
glyphname = F;
layers = (
{
layerId = "801975A8-2B28-48D2-ACC9-91C57621CBC0";
shapes = (
{
closed = 1;
nodes = (
(62,0,l),
(62,700,l),
(539,700,l),
(539,563,l),
(233,563,l),
(233,417,l),
(467,417,l),
(467,284,l),
(233,284,l),
(233,0,l)
);
}
);
width = 567;
},
{
layerId = "108F7D4A-630E-4424-A5B2-B42F8C482EB9";
shapes = (
{
closed = 1;
nodes = (
(73,0,l),
(73,700,l),
(502,700,l),
(502,628,l),
(162,628,l),
(162,387,l),
(450,387,l),
(450,315,l),
(162,315,l),
(162,0,l)
);
}
);
width = 536;
},
{
layerId = "565F47C8-0ABB-4A45-ACC1-9062093877DB";
shapes = (
{
closed = 1;
nodes = (
(78,0,l),
(78,700,l),
(487,700,l),
(487,654,l),
(133,654,l),
(133,375,l),
(443,375,l),
(443,328,l),
(133,328,l),
(133,0,l)
);
}
);
width = 523;
}
);
unicode = 70;
}
{
glyphname = G;
layers = (
{
layerId = "801975A8-2B28-48D2-ACC9-91C57621CBC0";
shapes = (
{
closed = 1;
nodes = (
(174,-12,o),
(43,130,o),
(43,343,cs),
(43,559,o),
(177,712,o),
(403,712,cs),
(574,712,o),
(690,627,o),
(723,482,c),
(534,482,l),
(511,529,o),
(470,554,o),
(402,554,cs),
(278,554,o),
(217,473,o),
(217,342,cs),
(217,209,o),
(280,139,o),
(395,139,cs),
(499,139,o),
(551,198,o),
(564,270,c),
(413,270,l),
(413,396,l),
(735,396,l),
(735,0,l),
(577,0,l),
(564,70,l),
(524,17,o),
(465,-12,o),
(374,-12,cs)
);
}
);
width = 788;
},
{
layerId = "108F7D4A-630E-4424-A5B2-B42F8C482EB9";
shapes = (
{
closed = 1;
nodes = (
(178,-12,o),
(47,134,o),
(47,349,cs),
(47,563,o),
(178,712,o),
(388,712,cs),
(546,712,o),
(656,633,o),
(687,497,c),
(585,497,l),
(565,579,o),
(496,631,o),
(388,631,cs),
(235,631,o),
(138,526,o),
(138,348,cs),
(138,171,o),
(235,67,o),
(379,67,cs),
(526,67,o),
(600,159,o),
(610,306,c),
(409,306,l),
(409,375,l),
(700,375,l),
(700,0,l),
(619,0,l),
(612,113,l),
(563,33,o),
(495,-12,o),
(375,-12,cs)
);
}
);
width = 759;
},
{
layerId = "565F47C8-0ABB-4A45-ACC1-9062093877DB";
shapes = (
{
closed = 1;
nodes = (
(180,-12,o),
(49,136,o),
(49,351,cs),
(49,564,o),
(179,712,o),
(382,712,cs),
(535,712,o),
(642,635,o),
(673,503,c),
(606,503,l),
(587,599,o),
(507,662,o),
(383,662,cs),
(218,662,o),
(106,547,o),
(106,351,cs),
(106,156,o),
(217,38,o),
(372,38,cs),
(537,38,o),
(619,144,o),
(628,321,c),
(408,321,l),
(408,367,l),
(686,367,l),
(686,0,l),
(636,0,l),
(631,130,l),
(578,39,o),
(507,-12,o),
(375,-12,cs)
);
}
);
width = 747;
}
);
leftKerningGroup = C2;
rightKerningGroup = G;
unicode = 71;
}
{
glyphname = H;
layers = (
{
layerId = "BB5B5596-5E1F-4BCA-852B-56C614C2EA8E";
shapes = (
{
closed = 1;
nodes = (
(499,0,l),
(499,289,l),
(233,289,l),
(233,0,l),
(62,0,l),
(62,700,l),
(233,700,l),
(233,427,l),
(499,427,l),
(499,700,l),
(670,700,l),
(670,0,l)
);
}
);
width = 732;
},
{
layerId = "E4D0624D-8000-4CFF-8595-BC700BCBE458";
shapes = (
{
closed = 1;
nodes = (
(520,0,l),
(520,320,l),
(162,320,l),
(162,0,l),
(73,0,l),
(73,700,l),
(162,700,l),
(162,393,l),
(520,393,l),
(520,700,l),
(609,700,l),
(609,0,l)
);
}
);
width = 682;
},
{
layerId = "E70FFCB9-C703-4CAE-9CF8-4537993847F6";
shapes = (
{
closed = 1;
nodes = (
(529,0,l),
(529,333,l),
(133,333,l),
(133,0,l),
(78,0,l),
(78,700,l),
(133,700,l),
(133,379,l),
(529,379,l),
(529,700,l),
(584,700,l),
(584,0,l)
);
}
);
width = 662;
}
);
unicode = 72;
}
{
glyphname = I;
layers = (
{
layerId = "F6FB205E-B3AB-4819-9CAF-AB538C51B80E";
shapes = (
{
closed = 1;
nodes = (
(62,0,l),
(62,700,l),
(233,700,l),
(233,0,l)
);
}
);
width = 295;
},
{
layerId = "36B3D2C2-B8FB-4E59-BDB1-E262A6063C52";
shapes = (
{
closed = 1;
nodes = (
(73,0,l),
(73,700,l),
(162,700,l),
(162,0,l)
);
}
);
width = 235;
},
{
layerId = "0C974A3A-E5A4-4FB7-A898-B0FABB9FC9C2";
shapes = (
{
closed = 1;
nodes = (
(78,0,l),
(78,700,l),
(133,700,l),
(133,0,l)
);
}
);
width = 211;
}
);
unicode = 73;
}
{
glyphname = J;
layers = (
{
layerId = "BB5B5596-5E1F-4BCA-852B-56C614C2EA8E";
shapes = (
{
closed = 1;
nodes = (
(127,-12,o),
(26,72,o),
(26,230,c),
(196,230,l),
(196,170,o),
(222,141,o),
(266,141,cs),
(307,141,o),
(331,167,o),
(331,219,cs),
(331,700,l),
(502,700,l),
(502,219,ls),
(502,68,o),
(410,-12,o),
(271,-12,cs)
);
}
);
width = 564;
},
{
layerId = "E4D0624D-8000-4CFF-8595-BC700BCBE458";
shapes = (
{
closed = 1;
nodes = (
(104,-12,o),
(27,62,o),
(27,190,c),
(115,190,l),
(117,120,o),
(146,67,o),
(231,67,cs),
(313,67,o),
(341,118,o),
(341,187,cs),
(341,700,l),
(429,700,l),
(429,187,ls),
(429,60,o),
(355,-12,o),
(232,-12,cs)
);
}
);
width = 503;
},
{
layerId = "E70FFCB9-C703-4CAE-9CF8-4537993847F6";
shapes = (
{
closed = 1;
nodes = (
(95,-12,o),
(27,58,o),
(27,174,c),
(83,174,l),
(86,100,o),
(115,37,o),
(217,37,cs),
(316,37,o),
(345,98,o),
(345,174,cs),
(345,700,l),
(400,700,l),
(400,174,ls),
(400,57,o),
(333,-12,o),
(216,-12,cs)
);
}
);
width = 478;
}
);
unicode = 74;
}
{
glyphname = K;
layers = (
{
layerId = "F6FB205E-B3AB-4819-9CAF-AB538C51B80E";
shapes = (
{
closed = 1;
nodes = (
(62,0,l),
(62,700,l),
(233,700,l),
(233,451,l),
(459,700,l),
(668,700,l),
(412,424,l),
(678,0,l),
(469,0,l),
(290,292,l),
(233,230,l),
(233,0,l)
);
}
);
width = 697;
},
{
layerId = "36B3D2C2-B8FB-4E59-BDB1-E262A6063C52";
shapes = (
{
closed = 1;
nodes = (
(73,0,l),
(73,700,l),
(162,700,l),
(162,386,l),
(451,700,l),
(562,700,l),
(301,420,l),
(566,0,l),
(458,0,l),
(239,353,l),
(162,271,l),
(162,0,l)
);
}
);
width = 588;
},
{
layerId = "0C974A3A-E5A4-4FB7-A898-B0FABB9FC9C2";
shapes = (
{
closed = 1;
nodes = (
(78,0,l),
(78,700,l),
(133,700,l),
(133,360,l),
(448,700,l),
(519,700,l),
(257,419,l),
(521,0,l),
(454,0,l),
(218,377,l),
(133,287,l),
(133,0,l)
);
}
);
width = 544;
}
);
rightKerningGroup = K;
unicode = 75;
}
{
glyphname = L;
layers = (
{
layerId = "3C0957B3-9451-4BAD-AE3B-C8576C323C81";
shapes = (
{
closed = 1;
nodes = (
(62,0,l),
(62,700,l),
(233,700,l),
(233,132,l),
(527,132,l),
(527,0,l)
);
}
);
width = 577;
},
{
layerId = "C91D2DC0-8AAD-4B21-B0E6-07AA6617D11E";
shapes = (
{
closed = 1;
nodes = (
(73,0,l),
(73,700,l),
(162,700,l),
(162,71,l),
(486,71,l),
(486,0,l)
);
}
);
width = 528;
},
{
layerId = "972C881F-D909-4F62-92A5-F720CB79AC7E";
shapes = (
{
closed = 1;
nodes = (
(78,0,l),
(78,700,l),
(133,700,l),
(133,46,l),
(470,46,l),
(470,0,l)
);
}
);
width = 508;
}
);
rightKerningGroup = L;
unicode = 76;
}
{
glyphname = M;
layers = (
{
layerId = "3C0957B3-9451-4BAD-AE3B-C8576C323C81";
shapes = (
{
closed = 1;
nodes = (
(62,0,l),
(62,700,l),
(268,700,l),
(462,301,l),
(652,700,l),
(857,700,l),
(857,0,l),
(686,0,l),
(686,416,l),
(529,100,l),
(391,100,l),
(233,417,l),
(233,0,l)
);
}
);
width = 919;
},
{
layerId = "C91D2DC0-8AAD-4B21-B0E6-07AA6617D11E";
shapes = (
{
closed = 1;
nodes = (
(73,0,l),
(73,700,l),
(176,700,l),
(426,217,l),
(673,700,l),
(776,700,l),
(776,0,l),
(688,0,l),
(688,543,l),
(458,100,l),
(392,100,l),
(162,542,l),
(162,0,l)
);
}
);
width = 850;
},
{
layerId = "972C881F-D909-4F62-92A5-F720CB79AC7E";
shapes = (
{
closed = 1;
nodes = (
(78,0,l),
(78,700,l),
(139,700,l),
(411,183,l),
(682,700,l),
(744,700,l),
(744,0,l),
(689,0,l),
(689,594,l),
(430,100,l),
(392,100,l),
(133,592,l),
(133,0,l)
);
}
);
width = 823;
}
);
unicode = 77;
}
{
glyphname = N;
layers = (
{
layerId = "F6FB205E-B3AB-4819-9CAF-AB538C51B80E";
shapes = (
{
closed = 1;
nodes = (
(62,0,l),
(62,700,l),
(233,700,l),
(519,273,l),
(519,700,l),
(690,700,l),
(690,0,l),
(519,0,l),
(233,425,l),
(233,0,l)
);
}
);
width = 752;
},
{
layerId = "36B3D2C2-B8FB-4E59-BDB1-E262A6063C52";
shapes = (
{
closed = 1;
nodes = (
(73,0,l),
(73,700,l),
(162,700,l),
(530,146,l),
(530,700,l),
(619,700,l),
(619,0,l),
(530,0,l),
(162,555,l),
(162,0,l)
);
}
);
width = 692;
},
{
layerId = "0C974A3A-E5A4-4FB7-A898-B0FABB9FC9C2";
shapes = (
{
closed = 1;
nodes = (
(78,0,l),
(78,700,l),
(133,700,l),
(535,95,l),
(535,700,l),
(590,700,l),
(590,0,l),
(535,0,l),
(133,607,l),
(133,0,l)
);
}
);
width = 668;
}
);
unicode = 78;
}
{
glyphname = O;
layers = (
{
layerId = "F6FB205E-B3AB-4819-9CAF-AB538C51B80E";
shapes = (
{
closed = 1;
nodes = (
(188,-12,o),
(43,137,o),
(43,350,cs),
(43,563,o),
(188,712,o),
(399,712,cs),
(610,712,o),
(755,563,o),
(755,350,cs),
(755,137,o),
(610,-12,o),
(399,-12,cs)
);
},
{
closed = 1;
nodes = (
(512,143,o),
(581,222,o),
(581,350,cs),
(581,478,o),
(512,557,o),
(399,557,cs),
(286,557,o),
(217,478,o),
(217,350,cs),
(217,222,o),
(286,143,o),
(399,143,cs)
);
}
);
width = 798;
},
{
layerId = "36B3D2C2-B8FB-4E59-BDB1-E262A6063C52";
shapes = (
{
closed = 1;
nodes = (
(186,-12,o),
(47,136,o),
(47,350,cs),
(47,563,o),
(186,712,o),
(393,712,cs),
(599,712,o),
(738,563,o),
(738,350,cs),
(738,136,o),
(599,-12,o),
(393,-12,cs)
);
},
{
closed = 1;
nodes = (
(546,66,o),
(647,173,o),
(647,350,cs),
(647,527,o),
(546,633,o),
(393,633,cs),
(241,633,o),
(138,527,o),
(138,350,cs),
(138,173,o),
(241,66,o),
(393,66,cs)
);
}
);
width = 785;
},
{
layerId = "0C974A3A-E5A4-4FB7-A898-B0FABB9FC9C2";
shapes = (
{
closed = 1;
nodes = (
(185,-12,o),
(49,135,o),
(49,350,cs),
(49,563,o),
(185,712,o),
(390,712,cs),
(595,712,o),
(731,563,o),
(731,350,cs),
(731,135,o),
(595,-12,o),
(390,-12,cs)
);
},
{
closed = 1;
nodes = (
(559,35,o),
(674,153,o),
(674,350,cs),
(674,546,o),
(559,664,o),
(390,664,cs),
(223,664,o),
(106,546,o),
(106,350,cs),
(106,153,o),
(223,35,o),
(390,35,cs)
);
}
);
width = 780;
}
);
leftKerningGroup = C2;
rightKerningGroup = D;
unicode = 79;
}
{
glyphname = P;
layers = (
{
layerId = "3C0957B3-9451-4BAD-AE3B-C8576C323C81";
shapes = (
{
closed = 1;
nodes = (
(62,0,l),
(62,700,l),
(349,700,ls),
(521,700,o),
(607,603,o),
(607,474,cs),
(607,358,o),
(529,250,o),
(349,250,cs),
(233,250,l),
(233,0,l)
);
},
{
closed = 1;
nodes = (
(233,386,l),
(336,386,ls),
(404,386,o),
(433,419,o),
(433,474,cs),
(433,529,o),
(404,562,o),
(336,562,cs),
(233,562,l)
);
}
);
width = 634;
},
{
layerId = "C91D2DC0-8AAD-4B21-B0E6-07AA6617D11E";
shapes = (
{
closed = 1;
nodes = (
(73,0,l),
(73,700,l),
(306,700,ls),
(470,700,o),
(546,612,o),
(546,495,cs),
(546,381,o),
(474,290,o),
(306,290,cs),
(162,290,l),
(162,0,l)
);
},
{
closed = 1;
nodes = (
(162,364,l),
(304,364,ls),
(413,364,o),
(456,414,o),
(456,495,cs),
(456,578,o),
(414,627,o),
(304,627,cs),
(162,627,l)
);
}
);
width = 581;
},
{
layerId = "972C881F-D909-4F62-92A5-F720CB79AC7E";
shapes = (
{
closed = 1;
nodes = (
(78,0,l),
(78,700,l),
(289,700,ls),
(449,700,o),
(522,616,o),
(522,503,cs),
(522,390,o),
(452,306,o),
(289,306,cs),
(133,306,l),
(133,0,l)
);
},
{
closed = 1;
nodes = (
(133,355,l),
(291,355,ls),
(416,355,o),
(465,412,o),
(465,503,cs),
(465,598,o),
(418,653,o),
(291,653,cs),
(133,653,l)
);
}
);
width = 560;
}
);
unicode = 80;
}
{
glyphname = Q;
layers = (
{
layerId = "467F6941-6312-4AD9-9245-E692C0DBCD12";
name = "#instance";
shapes = (
{
closed = 1;
nodes = (
(188,-12,o),
(43,137,o),
(43,350,cs),
(43,563,o),
(188,712,o),
(399,712,cs),
(610,712,o),
(755,563,o),
(755,350,cs),
(755,223,o),
(705,122,o),
(621,58,c),
(769,-120,l),
(562,-120,l),
(476,-5,l),
(453,-10,o),
(428,-12,o),
(399,-12,cs)
);
},
{
closed = 1;
nodes = (
(512,143,o),
(581,222,o),
(581,350,cs),
(581,478,o),
(512,557,o),
(399,557,cs),
(286,557,o),
(217,478,o),
(217,350,cs),
(217,222,o),
(286,143,o),
(399,143,cs)
);
}
);
width = 788;
},
{
layerId = "801975A8-2B28-48D2-ACC9-91C57621CBC0";
shapes = (
{
closed = 1;
nodes = (
(188,-12,o),
(43,137,o),
(43,350,cs),
(43,563,o),
(188,712,o),
(399,712,cs),
(610,712,o),
(755,563,o),
(755,350,cs),
(755,223,o),
(705,122,o),
(621,58,c),
(769,-120,l),
(562,-120,l),
(476,-5,l),
(453,-10,o),
(428,-12,o),
(399,-12,cs)
);
},
{
closed = 1;
nodes = (
(512,143,o),
(581,222,o),
(581,350,cs),
(581,478,o),
(512,557,o),
(399,557,cs),
(286,557,o),
(217,478,o),
(217,350,cs),
(217,222,o),
(286,143,o),
(399,143,cs)
);
}
);
width = 788;
},
{
layerId = "108F7D4A-630E-4424-A5B2-B42F8C482EB9";
shapes = (
{
closed = 1;
nodes = (
(186,-12,o),
(47,136,o),
(47,350,cs),
(47,563,o),
(186,712,o),
(393,712,cs),
(599,712,o),
(738,563,o),
(738,350,cs),
(738,207,o),
(678,96,o),
(577,37,c),
(754,-134,l),
(640,-134,l),
(498,3,l),
(466,-7,o),
(431,-12,o),
(393,-12,cs)
);
},
{
closed = 1;
nodes = (
(546,66,o),
(647,173,o),
(647,350,cs),
(647,527,o),
(546,633,o),
(393,633,cs),
(241,633,o),
(138,527,o),
(138,350,cs),
(138,173,o),
(241,66,o),
(393,66,cs)
);
}
);
width = 789;
},
{
layerId = "565F47C8-0ABB-4A45-ACC1-9062093877DB";
shapes = (
{
closed = 1;
nodes = (
(185,-12,o),
(49,135,o),
(49,350,cs),
(49,563,o),
(185,712,o),
(390,712,cs),
(595,712,o),
(731,563,o),
(731,350,cs),
(731,201,o),
(667,85,o),
(559,28,c),
(748,-140,l),
(671,-140,l),
(507,6,l),
(471,-6,o),
(432,-12,o),
(390,-12,cs)
);
},
{
closed = 1;
nodes = (
(559,35,o),
(674,153,o),
(674,350,cs),
(674,546,o),
(559,664,o),
(390,664,cs),
(223,664,o),
(106,546,o),
(106,350,cs),
(106,153,o),
(223,35,o),
(390,35,cs)
);
}
);
width = 789;
}
);
leftKerningGroup = C2;
unicode = 81;
}
{
glyphname = R;
layers = (
{
layerId = "BB5B5596-5E1F-4BCA-852B-56C614C2EA8E";
shapes = (
{
closed = 1;
nodes = (
(62,0,l),
(62,700,l),
(349,700,ls),
(521,700,o),
(607,601,o),
(607,479,cs),
(607,398,o),
(566,321,o),
(475,285,c),
(613,0,l),
(420,0,l),
(301,263,l),
(233,263,l),
(233,0,l)
);
},
{
closed = 1;
nodes = (
(233,384,l),
(339,384,ls),
(403,384,o),
(433,416,o),
(433,472,cs),
(433,524,o),
(403,558,o),
(339,558,cs),
(233,558,l)
);
}
);
width = 652;
},
{
layerId = "E4D0624D-8000-4CFF-8595-BC700BCBE458";
shapes = (
{
closed = 1;
nodes = (
(73,0,l),
(73,700,l),
(303,700,ls),
(466,700,o),
(539,611,o),
(539,494,cs),
(539,405,o),
(495,330,o),
(394,301,c),
(547,0,l),
(443,0,l),
(302,288,l),
(162,288,l),
(162,0,l)
);
},
{
closed = 1;
nodes = (
(162,356,l),
(296,356,ls),
(402,356,o),
(449,412,o),
(449,493,cs),
(449,574,o),
(404,626,o),
(295,626,cs),
(162,626,l)
);
}
);
width = 596;
},
{
layerId = "E70FFCB9-C703-4CAE-9CF8-4537993847F6";
shapes = (
{
closed = 1;
nodes = (
(78,0,l),
(78,700,l),
(284,700,ls),
(444,700,o),
(512,615,o),
(512,500,cs),
(512,408,o),
(466,334,o),
(362,307,c),
(520,0,l),
(452,0,l),
(302,298,l),
(133,298,l),
(133,0,l)
);
},
{
closed = 1;
nodes = (
(133,345,l),
(279,345,ls),
(401,345,o),
(455,410,o),
(455,501,cs),
(455,594,o),
(405,653,o),
(278,653,cs),
(133,653,l)
);
}
);
width = 573;
}
);
rightKerningGroup = R;
unicode = 82;
}
{
glyphname = T;
layers = (
{
layerId = "3C0957B3-9451-4BAD-AE3B-C8576C323C81";
shapes = (
{
closed = 1;
nodes = (
(225,0,l),
(225,563,l),
(24,563,l),
(24,700,l),
(597,700,l),
(597,563,l),
(396,563,l),
(396,0,l)
);
}
);
width = 621;
},
{
layerId = "C91D2DC0-8AAD-4B21-B0E6-07AA6617D11E";
shapes = (
{
closed = 1;
nodes = (
(237,0,l),
(237,628,l),
(29,628,l),
(29,700,l),
(534,700,l),
(534,628,l),
(325,628,l),
(325,0,l)
);
}
);
width = 562;
},
{
layerId = "972C881F-D909-4F62-92A5-F720CB79AC7E";
shapes = (
{
closed = 1;
nodes = (
(242,0,l),
(242,654,l),
(31,654,l),
(31,700,l),
(509,700,l),
(509,654,l),
(297,654,l),
(297,0,l)
);
}
);
width = 539;
}
);
leftKerningGroup = T2;
rightKerningGroup = T;
unicode = 84;
}
{
glyphname = U;
layers = (
{
layerId = "BB5B5596-5E1F-4BCA-852B-56C614C2EA8E";
shapes = (
{
closed = 1;
nodes = (
(186,-12,o),
(59,83,o),
(59,278,cs),
(59,700,l),
(230,700,l),
(230,277,ls),
(230,193,o),
(271,146,o),
(352,146,cs),
(433,146,o),
(476,193,o),
(476,277,cs),
(476,700,l),
(647,700,l),
(647,278,ls),
(647,83,o),
(511,-12,o),
(349,-12,cs)
);
}
);
width = 705;
},
{
layerId = "E4D0624D-8000-4CFF-8595-BC700BCBE458";
shapes = (
{
closed = 1;
nodes = (
(182,-12,o),
(68,72,o),
(68,259,cs),
(68,700,l),
(156,700,l),
(156,258,ls),
(156,124,o),
(226,67,o),
(330,67,cs),
(434,67,o),
(502,124,o),
(502,258,cs),
(502,700,l),
(591,700,l),
(591,259,ls),
(591,72,o),
(475,-12,o),
(328,-12,cs)
);
}
);
width = 659;
},
{
layerId = "E70FFCB9-C703-4CAE-9CF8-4537993847F6";
shapes = (
{
closed = 1;
nodes = (
(180,-12,o),
(72,68,o),
(72,252,cs),
(72,700,l),
(127,700,l),
(127,251,ls),
(127,96,o),
(208,36,o),
(321,36,cs),
(434,36,o),
(513,96,o),
(513,251,cs),
(513,700,l),
(568,700,l),
(568,252,ls),
(568,68,o),
(460,-12,o),
(320,-12,cs)
);
}
);
width = 640;
}
);
leftKerningGroup = U2;
rightKerningGroup = U;
unicode = 85;
}
{
glyphname = V;
layers = (
{
layerId = "F6FB205E-B3AB-4819-9CAF-AB538C51B80E";
shapes = (
{
closed = 1;
nodes = (
(258,0,l),
(9,700,l),
(191,700,l),
(365,172,l),
(540,700,l),
(721,700,l),
(472,0,l)
);
}
);
width = 730;
},
{
layerId = "36B3D2C2-B8FB-4E59-BDB1-E262A6063C52";
shapes = (
{
closed = 1;
nodes = (
(284,0,l),
(21,700,l),
(117,700,l),
(336,93,l),
(556,700,l),
(650,700,l),
(388,0,l)
);
}
);
width = 671;
},
{
layerId = "0C974A3A-E5A4-4FB7-A898-B0FABB9FC9C2";
shapes = (
{
closed = 1;
nodes = (
(294,0,l),
(26,700,l),
(87,700,l),
(324,62,l),
(563,700,l),
(621,700,l),
(354,0,l)
);
}
);
width = 647;
}
);
unicode = 86;
}
{
glyphname = W;
layers = (
{
layerId = "BB5B5596-5E1F-4BCA-852B-56C614C2EA8E";
shapes = (
{
closed = 1;
nodes = (
(202,0,l),
(24,700,l),
(207,700,l),
(308,190,l),
(433,700,l),
(621,700,l),
(741,191,l),
(843,700,l),
(1027,700,l),
(844,0,l),
(637,0,l),
(525,461,l),
(409,0,l)
);
}
);
width = 1051;
},
{
layerId = "E4D0624D-8000-4CFF-8595-BC700BCBE458";
shapes = (
{
closed = 1;
nodes = (
(217,-1,l),
(25,700,l),
(120,700,l),
(269,106,l),
(439,700,l),
(537,700,l),
(701,106,l),
(852,700,l),
(946,700,l),
(750,0,l),
(649,0,l),
(485,572,l),
(316,0,l)
);
}
);
width = 972;
},
{
layerId = "E70FFCB9-C703-4CAE-9CF8-4537993847F6";
shapes = (
{
closed = 1;
nodes = (
(223,-1,l),
(26,700,l),
(85,700,l),
(254,73,l),
(441,700,l),
(503,700,l),
(685,72,l),
(855,700,l),
(913,700,l),
(713,0,l),
(654,0,l),
(469,616,l),
(279,0,l)
);
}
);
width = 940;
}
);
leftKerningGroup = W2;
rightKerningGroup = W;
unicode = 87;
}
{
glyphname = X;
layers = (
{
layerId = "BB5B5596-5E1F-4BCA-852B-56C614C2EA8E";
shapes = (
{
closed = 1;
nodes = (
(492,0,l),
(349,215,l),
(223,0,l),
(29,0,l),
(254,356,l),
(24,700,l),
(223,700,l),
(364,489,l),
(488,700,l),
(682,700,l),
(459,348,l),
(691,0,l)
);
}
);
width = 715;
},
{
layerId = "E4D0624D-8000-4CFF-8595-BC700BCBE458";
shapes = (
{
closed = 1;
nodes = (
(470,0,l),
(299,279,l),
(137,0,l),
(38,0,l),
(252,352,l),
(37,700,l),
(137,700,l),
(307,423,l),
(470,700,l),
(569,700,l),
(354,349,l),
(570,0,l)
);
}
);
width = 608;
},
{
layerId = "E70FFCB9-C703-4CAE-9CF8-4537993847F6";
shapes = (
{
closed = 1;
nodes = (
(461,0,l),
(279,305,l),
(102,0,l),
(42,0,l),
(251,351,l),
(42,700,l),
(102,700,l),
(284,396,l),
(463,700,l),
(524,700,l),
(312,349,l),
(521,0,l)
);
}
);
width = 565;
}
);
unicode = 88;
}
{
glyphname = Y;
layers = (
{
layerId = "801975A8-2B28-48D2-ACC9-91C57621CBC0";
shapes = (
{
closed = 1;
nodes = (
(250,0,l),
(250,232,l),
(8,700,l),
(202,700,l),
(337,408,l),
(471,700,l),
(663,700,l),
(421,232,l),
(421,0,l)
);
}
);
width = 671;
},
{
layerId = "108F7D4A-630E-4424-A5B2-B42F8C482EB9";
shapes = (
{
closed = 1;
nodes = (
(249,0,l),
(249,265,l),
(19,700,l),
(119,700,l),
(293,349,l),
(465,700,l),
(564,700,l),
(337,265,l),
(337,0,l)
);
}
);
width = 583;
},
{
layerId = "565F47C8-0ABB-4A45-ACC1-9062093877DB";
shapes = (
{
closed = 1;
nodes = (
(248,0,l),
(248,278,l),
(24,700,l),
(86,700,l),
(275,325,l),
(463,700,l),
(524,700,l),
(303,278,l),
(303,0,l)
);
}
);
width = 548;
}
);
leftKerningGroup = Y2;
rightKerningGroup = Y;
unicode = 89;
}
{
glyphname = Z;
layers = (
{
layerId = "801975A8-2B28-48D2-ACC9-91C57621CBC0";
shapes = (
{
closed = 1;
nodes = (
(50,0,l),
(50,130,l),
(350,560,l),
(50,560,l),
(50,700,l),
(546,700,l),
(546,570,l),
(244,140,l),
(546,140,l),
(546,0,l)
);
}
);
width = 596;
},
{
layerId = "108F7D4A-630E-4424-A5B2-B42F8C482EB9";
shapes = (
{
closed = 1;
nodes = (
(44,0,l),
(44,69,l),
(387,624,l),
(49,624,l),
(49,700,l),
(490,700,l),
(490,631,l),
(146,76,l),
(494,76,l),
(494,0,l)
);
}
);
width = 537;
},
{
layerId = "565F47C8-0ABB-4A45-ACC1-9062093877DB";
shapes = (
{
closed = 1;
nodes = (
(42,0,l),
(42,45,l),
(402,650,l),
(49,650,l),
(49,700,l),
(467,700,l),
(467,655,l),
(107,50,l),
(473,50,l),
(473,0,l)
);
}
);
width = 514;
}
);
rightKerningGroup = Z;
unicode = 90;
}
{
glyphname = bracketleft;
layers = (
{
layerId = "F6FB205E-B3AB-4819-9CAF-AB538C51B80E";
shapes = (
{
closed = 1;
nodes = (
(62,-189,l),
(62,811,l),
(362,811,l),
(362,673,l),
(222,673,l),
(222,-50,l),
(362,-50,l),
(362,-189,l)
);
}
);
width = 412;
},
{
layerId = "36B3D2C2-B8FB-4E59-BDB1-E262A6063C52";
shapes = (
{
closed = 1;
nodes = (
(73,-153,l),
(73,811,l),
(253,811,l),
(253,739,l),
(156,739,l),
(156,-79,l),
(253,-79,l),
(253,-153,l)
);
}
);
width = 312;
},
{
layerId = "0C974A3A-E5A4-4FB7-A898-B0FABB9FC9C2";
shapes = (
{
closed = 1;
nodes = (
(78,-139,l),
(78,811,l),
(210,811,l),
(210,765,l),
(130,765,l),
(130,-91,l),
(210,-91,l),
(210,-139,l)
);
}
);
width = 272;
}
);
unicode = 91;
}
{
glyphname = backslash;
layers = (
{
layerId = "BB5B5596-5E1F-4BCA-852B-56C614C2EA8E";
shapes = (
{
closed = 1;
nodes = (
(267,-127,l),
(18,790,l),
(183,790,l),
(432,-127,l)
);
}
);
width = 450;
},
{
layerId = "E4D0624D-8000-4CFF-8595-BC700BCBE458";
shapes = (
{
closed = 1;
nodes = (
(279,-97,l),
(28,766,l),
(115,766,l),
(366,-97,l)
);
}
);
width = 394;
},
{
layerId = "E70FFCB9-C703-4CAE-9CF8-4537993847F6";
shapes = (
{
closed = 1;
nodes = (
(284,-85,l),
(32,756,l),
(88,756,l),
(339,-85,l)
);
}
);
width = 371;
}
);
unicode = 92;
}
{
glyphname = asciicircum;
layers = (
{
layerId = "BB5B5596-5E1F-4BCA-852B-56C614C2EA8E";
shapes = (
{
closed = 1;
nodes = (
(30,161,l),
(272,700,l),
(438,700,l),
(679,161,l),
(507,161,l),
(355,502,l),
(202,161,l)
);
}
);
width = 709;
},
{
layerId = "E4D0624D-8000-4CFF-8595-BC700BCBE458";
shapes = (
{
closed = 1;
nodes = (
(36,177,l),
(272,700,l),
(354,700,l),
(589,177,l),
(498,177,l),
(313,592,l),
(126,177,l)
);
}
);
width = 625;
},
{
layerId = "E70FFCB9-C703-4CAE-9CF8-4537993847F6";
shapes = (
{
closed = 1;
nodes = (
(39,184,l),
(272,700,l),
(320,700,l),
(553,184,l),
(494,184,l),
(296,628,l),
(96,184,l)
);
}
);
width = 591;
}
);
unicode = 94;
}
{
glyphname = underscore;
layers = (
{
layerId = "F6FB205E-B3AB-4819-9CAF-AB538C51B80E";
shapes = (
{
closed = 1;
nodes = (
(50,-205,l),
(50,-41,l),
(670,-41,l),
(670,-205,l)
);
}
);
width = 720;
},
{
layerId = "36B3D2C2-B8FB-4E59-BDB1-E262A6063C52";
shapes = (
{
closed = 1;
nodes = (
(59,-119,l),
(59,-36,l),
(587,-36,l),
(587,-119,l)
);
}
);
width = 645;
},
{
layerId = "0C974A3A-E5A4-4FB7-A898-B0FABB9FC9C2";
shapes = (
{
closed = 1;
nodes = (
(62,-84,l),
(62,-34,l),
(554,-34,l),
(554,-84,l)
);
}
);
width = 615;
}
);
unicode = 95;
}
{
glyphname = grave;
layers = (
{
layerId = "BB5B5596-5E1F-4BCA-852B-56C614C2EA8E";
shapes = (
{
closed = 1;
nodes = (
(251,534,l),
(10,635,l),
(10,768,l),
(251,652,l)
);
}
);
width = 261;
},
{
layerId = "E4D0624D-8000-4CFF-8595-BC700BCBE458";
shapes = (
{
closed = 1;
nodes = (
(233,538,l),
(21,653,l),
(21,729,l),
(233,603,l)
);
}
);
width = 255;
},
{
layerId = "E70FFCB9-C703-4CAE-9CF8-4537993847F6";
shapes = (
{
closed = 1;
nodes = (
(226,539,l),
(26,660,l),
(26,713,l),
(226,583,l)
);
}
);
width = 252;
}
);
unicode = 96;
}
{
glyphname = a;
layers = (
{
layerId = "F6FB205E-B3AB-4819-9CAF-AB538C51B80E";
shapes = (
{
closed = 1;
nodes = (
(417,0,l),
(395,69,l),
(364,20,o),
(316,-12,o),
(239,-12,cs),
(109,-12,o),
(50,53,o),
(50,136,cs),
(50,221,o),
(111,289,o),
(268,289,cs),
(387,289,l),
(387,307,ls),
(387,357,o),
(350,374,o),
(309,374,cs),
(268,374,o),
(236,359,o),
(229,324,c),
(65,324,l),
(73,434,o),
(168,512,o),
(310,512,cs),
(456,512,o),
(559,445,o),
(559,307,cs),
(559,0,l)
);
},
{
closed = 1;
nodes = (
(289,194,ls),
(252,194,o),
(233,177,o),
(233,153,cs),
(233,126,o),
(257,117,o),
(285,117,cs),
(331,117,o),
(378,154,o),
(378,194,c),
(378,194,l)
);
}
);
width = 616;
},
{
layerId = "36B3D2C2-B8FB-4E59-BDB1-E262A6063C52";
shapes = (
{
closed = 1;
nodes = (
(412,0,l),
(405,87,l),
(378,31,o),
(325,-12,o),
(237,-12,cs),
(110,-12,o),
(50,58,o),
(50,142,cs),
(50,243,o),
(133,300,o),
(268,300,cs),
(402,300,l),
(402,307,ls),
(402,393,o),
(354,438,o),
(279,438,cs),
(214,438,o),
(162,406,o),
(151,343,c),
(60,343,l),
(72,451,o),
(170,512,o),
(279,512,cs),
(418,512,o),
(491,431,o),
(491,307,cs),
(491,0,l)
);
},
{
closed = 1;
nodes = (
(276,234,ls),
(179,234,o),
(144,196,o),
(144,147,cs),
(144,95,o),
(182,62,o),
(251,62,cs),
(338,62,o),
(399,138,o),
(399,213,cs),
(399,234,l)
);
}
);
width = 549;
},
{
layerId = "0C974A3A-E5A4-4FB7-A898-B0FABB9FC9C2";
shapes = (
{
closed = 1;
nodes = (
(410,0,l),
(409,94,l),
(383,35,o),
(328,-12,o),
(236,-12,cs),
(110,-12,o),
(50,60,o),
(50,144,cs),
(50,252,o),
(142,305,o),
(268,305,cs),
(408,305,l),
(408,307,ls),
(408,408,o),
(356,463,o),
(267,463,cs),
(192,463,o),
(133,425,o),
(120,350,c),
(58,350,l),
(72,458,o),
(171,512,o),
(266,512,cs),
(403,512,o),
(464,426,o),
(464,307,cs),
(464,0,l)
);
},
{
closed = 1;
nodes = (
(271,250,ls),
(150,250,o),
(108,204,o),
(108,144,cs),
(108,83,o),
(152,40,o),
(237,40,cs),
(341,40,o),
(408,132,o),
(408,221,cs),
(408,250,l)
);
}
);
width = 522;
}
);
leftKerningGroup = a2;
rightKerningGroup = a;
unicode = 97;
}
{
glyphname = b;
layers = (
{
layerId = "BB5B5596-5E1F-4BCA-852B-56C614C2EA8E";
shapes = (
{
closed = 1;
nodes = (
(318,-12,o),
(270,12,o),
(235,53,c),
(215,0,l),
(63,0,l),
(63,726,l),
(235,726,l),
(235,440,l),
(266,480,o),
(310,512,o),
(386,512,cs),
(521,512,o),
(630,398,o),
(630,249,cs),
(630,99,o),
(521,-12,o),
(386,-12,cs)
);
},
{
closed = 1;
nodes = (
(406,138,o),
(455,187,o),
(455,249,cs),
(455,311,o),
(406,362,o),
(341,362,cs),
(274,362,o),
(227,311,o),
(227,250,cs),
(227,186,o),
(273,138,o),
(341,138,cs)
);
}
);
width = 680;
},
{
layerId = "E4D0624D-8000-4CFF-8595-BC700BCBE458";
shapes = (
{
closed = 1;
nodes = (
(257,-12,o),
(193,22,o),
(158,82,c),
(149,0,l),
(69,0,l),
(69,726,l),
(158,726,l),
(158,418,l),
(190,467,o),
(248,512,o),
(340,512,cs),
(487,512,o),
(587,399,o),
(587,249,cs),
(587,99,o),
(487,-12,o),
(340,-12,cs)
);
},
{
closed = 1;
nodes = (
(427,65,o),
(497,141,o),
(497,250,cs),
(497,360,o),
(427,435,o),
(329,435,cs),
(229,435,o),
(160,360,o),
(160,250,cs),
(160,140,o),
(229,65,o),
(329,65,cs)
);
}
);
width = 636;
},
{
layerId = "E70FFCB9-C703-4CAE-9CF8-4537993847F6";
shapes = (
{
closed = 1;
nodes = (
(232,-12,o),
(162,26,o),
(127,94,c),
(123,0,l),
(72,0,l),
(72,726,l),
(127,726,l),
(127,409,l),
(159,462,o),
(223,512,o),
(322,512,cs),
(474,512,o),
(570,400,o),
(570,249,cs),
(570,99,o),
(474,-12,o),
(321,-12,cs)
);
},
{
closed = 1;
nodes = (
(435,36,o),
(514,122,o),
(514,250,cs),
(514,379,o),
(435,464,o),
(324,464,cs),
(211,464,o),
(133,379,o),
(133,250,cs),
(133,122,o),
(211,36,o),
(324,36,cs)
);
}
);
width = 618;
}
);
rightKerningGroup = b;
unicode = 98;
}
{
glyphname = c;
layers = (
{
layerId = "BB5B5596-5E1F-4BCA-852B-56C614C2EA8E";
shapes = (
{
closed = 1;
nodes = (
(160,-12,o),
(50,99,o),
(50,250,cs),
(50,400,o),
(160,512,o),
(322,512,cs),
(458,512,o),
(556,439,o),
(584,308,c),
(399,308,l),
(388,344,o),
(360,365,o),
(321,365,cs),
(261,365,o),
(226,318,o),
(226,250,cs),
(226,182,o),
(261,135,o),
(321,135,cs),
(360,135,o),
(388,155,o),
(399,192,c),
(584,192,l),
(556,67,o),
(458,-12,o),
(322,-12,cs)
);
}
);
width = 634;
},
{
layerId = "E4D0624D-8000-4CFF-8595-BC700BCBE458";
shapes = (
{
closed = 1;
nodes = (
(156,-12,o),
(49,94,o),
(49,250,cs),
(49,406,o),
(156,512,o),
(300,512,cs),
(422,512,o),
(507,446,o),
(529,340,c),
(438,340,l),
(424,401,o),
(369,436,o),
(300,436,cs),
(216,436,o),
(140,373,o),
(140,250,cs),
(140,128,o),
(216,63,o),
(300,63,cs),
(369,63,o),
(424,98,o),
(438,160,c),
(529,160,l),
(507,58,o),
(421,-12,o),
(300,-12,cs)
);
}
);
width = 578;
},
{
layerId = "E70FFCB9-C703-4CAE-9CF8-4537993847F6";
shapes = (
{
closed = 1;
nodes = (
(154,-12,o),
(48,92,o),
(48,250,cs),
(48,408,o),
(154,512,o),
(291,512,cs),
(407,512,o),
(487,449,o),
(507,353,c),
(454,353,l),
(438,424,o),
(372,465,o),
(291,465,cs),
(198,465,o),
(106,395,o),
(106,250,cs),
(106,106,o),
(198,34,o),
(291,34,cs),
(372,34,o),
(438,75,o),
(454,147,c),
(507,147,l),
(488,55,o),
(406,-12,o),
(291,-12,cs)
);
}
);
width = 555;
}
);
leftKerningGroup = c2;
rightKerningGroup = c;
unicode = 99;
}
{
glyphname = d;
layers = (
{
layerId = "3C0957B3-9451-4BAD-AE3B-C8576C323C81";
shapes = (
{
closed = 1;
nodes = (
(161,-12,o),
(50,102,o),
(50,251,cs),
(50,401,o),
(161,512,o),
(294,512,cs),
(363,512,o),
(410,488,o),
(446,447,c),
(446,726,l),
(618,726,l),
(618,0,l),
(466,0,l),
(446,60,l),
(414,20,o),
(371,-12,o),
(294,-12,cs)
);
},
{
closed = 1;
nodes = (
(406,138,o),
(454,189,o),
(454,250,cs),
(454,314,o),
(407,362,o),
(340,362,cs),
(274,362,o),
(226,313,o),
(226,251,cs),
(226,189,o),
(274,138,o),
(340,138,cs)
);
}
);
width = 680;
},
{
layerId = "C91D2DC0-8AAD-4B21-B0E6-07AA6617D11E";
shapes = (
{
closed = 1;
nodes = (
(149,-12,o),
(49,101,o),
(49,251,cs),
(49,401,o),
(149,512,o),
(296,512,cs),
(379,512,o),
(443,478,o),
(478,418,c),
(478,726,l),
(567,726,l),
(567,0,l),
(487,0,l),
(478,82,l),
(445,34,o),
(388,-12,o),
(295,-12,cs)
);
},
{
closed = 1;
nodes = (
(407,65,o),
(476,140,o),
(476,250,cs),
(476,360,o),
(407,435,o),
(307,435,cs),
(208,435,o),
(139,360,o),
(139,250,cs),
(139,140,o),
(208,65,o),
(307,65,cs)
);
}
);
width = 636;
},
{
layerId = "972C881F-D909-4F62-92A5-F720CB79AC7E";
shapes = (
{
closed = 1;
nodes = (
(144,-12,o),
(48,100,o),
(48,251,cs),
(48,401,o),
(144,512,o),
(297,512,cs),
(386,512,o),
(456,474,o),
(491,406,c),
(491,726,l),
(546,726,l),
(546,0,l),
(495,0,l),
(491,91,l),
(458,39,o),
(395,-12,o),
(296,-12,cs)
);
},
{
closed = 1;
nodes = (
(407,36,o),
(485,121,o),
(485,250,cs),
(485,379,o),
(407,464,o),
(294,464,cs),
(182,464,o),
(104,379,o),
(104,250,cs),
(104,121,o),
(182,36,o),
(294,36,cs)
);
}
);
width = 618;
}
);
leftKerningGroup = c;
unicode = 100;
}
{
glyphname = e;
layers = (
{
layerId = "BB5B5596-5E1F-4BCA-852B-56C614C2EA8E";
shapes = (
{
closed = 1;
nodes = (
(161,-12,o),
(50,93,o),
(50,242,cs),
(50,395,o),
(157,512,o),
(322,512,cs),
(472,512,o),
(587,408,o),
(587,256,cs),
(587,241,o),
(586,224,o),
(584,207,c),
(222,207,l),
(229,163,o),
(261,127,o),
(321,127,cs),
(356,127,o),
(379,144,o),
(394,165,c),
(572,165,l),
(539,66,o),
(445,-12,o),
(323,-12,cs)
);
},
{
closed = 1;
nodes = (
(410,302,l),
(406,344,o),
(371,375,o),
(324,375,cs),
(276,375,o),
(242,352,o),
(227,302,c)
);
}
);
width = 631;
},
{
layerId = "E4D0624D-8000-4CFF-8595-BC700BCBE458";
shapes = (
{
closed = 1;
nodes = (
(151,-12,o),
(49,92,o),
(49,249,cs),
(49,407,o),
(150,512,o),
(298,512,cs),
(444,512,o),
(534,403,o),
(534,277,cs),
(534,262,o),
(534,249,o),
(533,230,c),
(136,230,l),
(142,118,o),
(217,62,o),
(296,62,cs),
(364,62,o),
(410,95,o),
(432,150,c),
(520,150,l),
(493,57,o),
(414,-12,o),
(296,-12,cs)
);
},
{
closed = 1;
nodes = (
(446,296,l),
(442,383,o),
(379,438,o),
(295,438,cs),
(215,438,o),
(148,388,o),
(138,296,c)
);
}
);
width = 576;
},
{
layerId = "E70FFCB9-C703-4CAE-9CF8-4537993847F6";
shapes = (
{
closed = 1;
nodes = (
(147,-12,o),
(48,92,o),
(48,252,cs),
(48,412,o),
(147,512,o),
(288,512,cs),
(433,512,o),
(513,401,o),
(513,285,cs),
(513,270,o),
(513,259,o),
(512,239,c),
(102,239,l),
(107,100,o),
(200,36,o),
(286,36,cs),
(367,36,o),
(423,76,o),
(447,144,c),
(499,144,l),
(475,54,o),
(402,-12,o),
(285,-12,cs)
);
},
{
closed = 1;
nodes = (
(460,294,l),
(457,399,o),
(382,463,o),
(284,463,cs),
(191,463,o),
(110,403,o),
(102,294,c)
);
}
);
width = 554;
}
);
leftKerningGroup = c2;
rightKerningGroup = e;
unicode = 101;
}
{
glyphname = f;
layers = (
{
layerId = "801975A8-2B28-48D2-ACC9-91C57621CBC0";
shapes = (
{
closed = 1;
nodes = (
(81,0,l),
(81,357,l),
(18,357,l),
(18,500,l),
(81,500,l),
(81,530,ls),
(81,676,o),
(162,726,o),
(279,726,cs),
(339,726,l),
(339,580,l),
(305,580,ls),
(266,580,o),
(253,566,o),
(253,532,cs),
(253,500,l),
(346,500,l),
(346,357,l),
(253,357,l),
(253,0,l)
);
}
);
width = 388;
},
{
layerId = "108F7D4A-630E-4424-A5B2-B42F8C482EB9";
shapes = (
{
closed = 1;
nodes = (
(96,0,l),
(96,425,l),
(22,425,l),
(22,500,l),
(96,500,l),
(96,584,ls),
(96,684,o),
(146,726,o),
(240,726,cs),
(292,726,l),
(292,650,l),
(254,650,ls),
(203,650,o),
(184,632,o),
(184,582,cs),
(184,500,l),
(306,500,l),
(306,425,l),
(184,425,l),
(184,0,l)
);
}
);
width = 339;
},
{
layerId = "565F47C8-0ABB-4A45-ACC1-9062093877DB";
shapes = (
{
closed = 1;
nodes = (
(102,0,l),
(102,452,l),
(23,452,l),
(23,500,l),
(102,500,l),
(102,606,ls),
(102,687,o),
(140,726,o),
(225,726,cs),
(273,726,l),
(273,678,l),
(234,678,ls),
(178,678,o),
(157,658,o),
(157,602,cs),
(157,500,l),
(290,500,l),
(290,452,l),
(157,452,l),
(157,0,l)
);
}
);
width = 319;
}
);
unicode = 102;
}
{
glyphname = g;
layers = (
{
layerId = "3C0957B3-9451-4BAD-AE3B-C8576C323C81";
shapes = (
{
closed = 1;
nodes = (
(134,-234,o),
(40,-180,o),
(40,-76,cs),
(40,-31,o),
(60,6,o),
(96,37,c),
(73,48,o),
(55,60,o),
(45,72,c),
(45,95,l),
(134,196,l),
(97,230,o),
(78,273,o),
(78,327,cs),
(78,428,o),
(158,512,o),
(286,512,cs),
(316,512,o),
(342,508,o),
(365,500,c),
(559,500,l),
(559,407,l),
(480,399,l),
(489,376,o),
(494,352,o),
(494,327,cs),
(494,225,o),
(412,141,o),
(286,141,cs),
(267,141,o),
(248,143,o),
(231,147,c),
(205,120,l),
(228,109,o),
(259,104,o),
(324,97,cs),
(456,84,o),
(518,36,o),
(518,-59,cs),
(518,-150,o),
(444,-234,o),
(284,-234,cs)
);
},
{
closed = 1;
nodes = (
(323,269,o),
(352,289,o),
(352,326,cs),
(352,362,o),
(323,382,o),
(286,382,cs),
(249,382,o),
(220,362,o),
(220,326,cs),
(220,289,o),
(249,269,o),
(286,269,cs)
);
},
{
closed = 1;
nodes = (
(204,-18,o),
(191,-36,o),
(191,-58,cs),
(191,-92,o),
(233,-108,o),
(284,-108,cs),
(332,-108,o),
(365,-92,o),
(365,-63,cs),
(365,-33,o),
(352,-16,o),
(292,-11,c),
(269,-8,o),
(250,-6,o),
(230,-3,c)
);
}
);
width = 590;
},
{
layerId = "C91D2DC0-8AAD-4B21-B0E6-07AA6617D11E";
shapes = (
{
closed = 1;
nodes = (
(132,-234,o),
(36,-180,o),
(36,-74,cs),
(36,-39,o),
(46,10,o),
(107,50,c),
(77,62,o),
(59,76,o),
(41,93,c),
(41,116,l),
(128,202,l),
(89,234,o),
(69,280,o),
(69,334,cs),
(69,432,o),
(142,512,o),
(268,512,cs),
(297,512,o),
(324,508,o),
(347,500,c),
(531,500,l),
(531,436,l),
(437,432,l),
(457,402,o),
(467,371,o),
(467,334,cs),
(467,236,o),
(394,156,o),
(268,156,cs),
(240,156,o),
(214,160,o),
(192,167,c),
(141,122,l),
(164,107,o),
(190,97,o),
(303,89,c),
(438,78,o),
(492,24,o),
(492,-60,cs),
(492,-149,o),
(421,-234,o),
(269,-234,cs)
);
},
{
closed = 1;
nodes = (
(339,229,o),
(383,266,o),
(383,335,cs),
(383,402,o),
(339,439,o),
(268,439,cs),
(197,439,o),
(153,402,o),
(153,335,cs),
(153,266,o),
(197,229,o),
(268,229,cs)
);
},
{
closed = 1;
nodes = (
(134,-2,o),
(124,-38,o),
(124,-64,cs),
(124,-131,o),
(184,-162,o),
(269,-162,cs),
(352,-162,o),
(404,-124,o),
(404,-64,cs),
(404,-22,o),
(377,13,o),
(283,18,c),
(244,21,o),
(214,24,o),
(187,28,c)
);
}
);
width = 558;
},
{
layerId = "972C881F-D909-4F62-92A5-F720CB79AC7E";
shapes = (
{
closed = 1;
nodes = (
(131,-234,o),
(35,-180,o),
(35,-73,cs),
(35,-42,o),
(41,12,o),
(111,55,c),
(78,68,o),
(60,82,o),
(40,101,c),
(40,125,l),
(126,204,l),
(86,236,o),
(65,283,o),
(65,337,cs),
(65,434,o),
(135,512,o),
(261,512,cs),
(290,512,o),
(317,508,o),
(340,500,c),
(520,500,l),
(520,447,l),
(420,445,l),
(444,413,o),
(456,378,o),
(456,337,cs),
(456,240,o),
(387,162,o),
(261,162,cs),
(229,162,o),
(201,167,o),
(176,175,c),
(116,123,l),
(138,106,o),
(163,94,o),
(295,86,c),
(431,75,o),
(481,19,o),
(481,-61,cs),
(481,-148,o),
(412,-234,o),
(263,-234,cs)
);
},
{
closed = 1;
nodes = (
(345,213,o),
(395,257,o),
(395,338,cs),
(395,418,o),
(345,462,o),
(261,462,cs),
(176,462,o),
(126,418,o),
(126,338,cs),
(126,257,o),
(176,213,o),
(261,213,cs)
);
},
{
closed = 1;
nodes = (
(106,5,o),
(97,-39,o),
(97,-67,cs),
(97,-146,o),
(165,-183,o),
(263,-183,cs),
(360,-183,o),
(420,-137,o),
(420,-65,cs),
(420,-18,o),
(387,24,o),
(279,29,c),
(234,32,o),
(199,36,o),
(170,40,c)
);
}
);
width = 545;
}
);
leftKerningGroup = g2;
rightKerningGroup = g;
unicode = 103;
}
{
glyphname = h;
layers = (
{
layerId = "801975A8-2B28-48D2-ACC9-91C57621CBC0";
shapes = (
{
closed = 1;
nodes = (
(420,0,l),
(420,257,ls),
(420,325,o),
(397,368,o),
(332,368,cs),
(273,368,o),
(235,325,o),
(235,257,cs),
(235,0,l),
(63,0,l),
(63,726,l),
(235,726,l),
(235,432,l),
(267,480,o),
(319,512,o),
(395,512,cs),
(526,512,o),
(592,424,o),
(592,272,cs),
(592,0,l)
);
}
);
width = 648;
},
{
layerId = "108F7D4A-630E-4424-A5B2-B42F8C482EB9";
shapes = (
{
closed = 1;
nodes = (
(434,0,l),
(434,282,ls),
(434,385,o),
(393,436,o),
(309,436,cs),
(224,436,o),
(158,373,o),
(158,258,cs),
(158,0,l),
(69,0,l),
(69,726,l),
(158,726,l),
(158,415,l),
(192,476,o),
(256,512,o),
(329,512,cs),
(446,512,o),
(521,441,o),
(521,291,cs),
(521,0,l)
);
}
);
width = 579;
},
{
layerId = "565F47C8-0ABB-4A45-ACC1-9062093877DB";
shapes = (
{
closed = 1;
nodes = (
(439,0,l),
(439,292,ls),
(439,409,o),
(391,463,o),
(300,463,cs),
(204,463,o),
(127,392,o),
(127,259,cs),
(127,0,l),
(72,0,l),
(72,726,l),
(127,726,l),
(127,408,l),
(162,475,o),
(231,512,o),
(303,512,cs),
(414,512,o),
(493,448,o),
(493,298,cs),
(493,0,l)
);
}
);
width = 552;
}
);
rightKerningGroup = h;
unicode = 104;
}
{
glyphname = i;
layers = (
{
layerId = "3C0957B3-9451-4BAD-AE3B-C8576C323C81";
shapes = (
{
closed = 1;
nodes = (
(89,545,o),
(47,584,o),
(47,635,cs),
(47,688,o),
(89,726,o),
(149,726,cs),
(211,726,o),
(252,688,o),
(252,635,cs),
(252,584,o),
(211,545,o),
(149,545,cs)
);
},
{
closed = 1;
nodes = (
(63,0,l),
(63,500,l),
(235,500,l),
(235,0,l)
);
}
);
width = 297;
},
{
layerId = "C91D2DC0-8AAD-4B21-B0E6-07AA6617D11E";
shapes = (
{
closed = 1;
nodes = (
(88,608,o),
(62,633,o),
(62,667,cs),
(62,702,o),
(88,726,o),
(122,726,cs),
(156,726,o),
(183,702,o),
(183,667,cs),
(183,633,o),
(156,608,o),
(122,608,cs)
);
},
{
closed = 1;
nodes = (
(78,0,l),
(78,500,l),
(166,500,l),
(166,0,l)
);
}
);
width = 243;
},
{
layerId = "972C881F-D909-4F62-92A5-F720CB79AC7E";
shapes = (
{
closed = 1;
nodes = (
(88,633,o),
(68,653,o),
(68,680,cs),
(68,708,o),
(88,726,o),
(111,726,cs),
(134,726,o),
(155,708,o),
(155,680,cs),
(155,653,o),
(134,633,o),
(111,633,cs)
);
},
{
closed = 1;
nodes = (
(84,0,l),
(84,500,l),
(139,500,l),
(139,0,l)
);
}
);
width = 222;
}
);
unicode = 105;
}
{
glyphname = j;
layers = (
{
layerId = "F6FB205E-B3AB-4819-9CAF-AB538C51B80E";
shapes = (
{
closed = 1;
nodes = (
(89,545,o),
(47,584,o),
(47,635,cs),
(47,687,o),
(89,726,o),
(149,726,cs),
(212,726,o),
(252,687,o),
(252,635,cs),
(252,584,o),
(212,545,o),
(149,545,cs)
);
},
{
closed = 1;
nodes = (
(-31,-222,l),
(-31,-76,l),
(10,-76,ls),
(49,-76,o),
(63,-61,o),
(63,-28,cs),
(63,500,l),
(235,500,l),
(235,-26,ls),
(235,-173,o),
(154,-222,o),
(36,-222,cs)
);
}
);
width = 296;
},
{
layerId = "36B3D2C2-B8FB-4E59-BDB1-E262A6063C52";
shapes = (
{
closed = 1;
nodes = (
(93,608,o),
(66,633,o),
(66,667,cs),
(66,702,o),
(93,726,o),
(126,726,cs),
(161,726,o),
(186,702,o),
(186,667,cs),
(186,633,o),
(161,608,o),
(126,608,cs)
);
},
{
closed = 1;
nodes = (
(-27,-222,l),
(-27,-146,l),
(11,-146,ls),
(61,-146,o),
(81,-127,o),
(81,-78,cs),
(81,500,l),
(169,500,l),
(169,-80,ls),
(169,-179,o),
(119,-222,o),
(25,-222,cs)
);
}
);
width = 247;
},
{
layerId = "0C974A3A-E5A4-4FB7-A898-B0FABB9FC9C2";
shapes = (
{
closed = 1;
nodes = (
(94,633,o),
(73,653,o),
(73,680,cs),
(73,708,o),
(94,726,o),
(117,726,cs),
(140,726,o),
(159,708,o),
(159,680,cs),
(159,653,o),
(140,633,o),
(117,633,cs)
);
},
{
closed = 1;
nodes = (
(-26,-222,l),
(-26,-174,l),
(11,-174,ls),
(66,-174,o),
(88,-154,o),
(88,-98,cs),
(88,500,l),
(143,500,l),
(143,-102,ls),
(143,-182,o),
(105,-222,o),
(20,-222,cs)
);
}
);
width = 227;
}
);
unicode = 106;
}
{
glyphname = k;
layers = (
{
layerId = "801975A8-2B28-48D2-ACC9-91C57621CBC0";
shapes = (
{
closed = 1;
nodes = (
(61,0,l),
(234,0,l),
(234,726,l),
(61,726,l)
);
},
{
closed = 1;
nodes = (
(224,94,l),
(599,500,l),
(391,500,l),
(224,302,l)
);
},
{
closed = 1;
nodes = (
(288,186,l),
(431,0,l),
(633,0,l),
(387,291,l)
);
}
);
width = 644;
},
{
layerId = "108F7D4A-630E-4424-A5B2-B42F8C482EB9";
shapes = (
{
closed = 1;
nodes = (
(70,0,l),
(158,0,l),
(158,726,l),
(70,726,l)
);
},
{
closed = 1;
nodes = (
(148,145,l),
(477,500,l),
(365,500,l),
(148,254,l)
);
},
{
closed = 1;
nodes = (
(205,247,l),
(399,0,l),
(504,0,l),
(265,304,l)
);
}
);
width = 523;
},
{
layerId = "565F47C8-0ABB-4A45-ACC1-9062093877DB";
shapes = (
{
closed = 1;
nodes = (
(73,0,l),
(128,0,l),
(128,726,l),
(73,726,l)
);
},
{
closed = 1;
nodes = (
(118,166,l),
(428,500,l),
(355,500,l),
(117,235,l)
);
},
{
closed = 1;
nodes = (
(172,271,l),
(386,0,l),
(453,0,l),
(212,305,l)
);
}
);
width = 474;
}
);
rightKerningGroup = k;
unicode = 107;
}
{
glyphname = l;
layers = (
{
layerId = "BB5B5596-5E1F-4BCA-852B-56C614C2EA8E";
shapes = (
{
closed = 1;
nodes = (
(63,0,l),
(63,726,l),
(235,726,l),
(235,0,l)
);
}
);
width = 297;
},
{
layerId = "E4D0624D-8000-4CFF-8595-BC700BCBE458";
shapes = (
{
closed = 1;
nodes = (
(69,0,l),
(69,726,l),
(158,726,l),
(158,0,l)
);
}
);
width = 227;
},
{
layerId = "E70FFCB9-C703-4CAE-9CF8-4537993847F6";
shapes = (
{
closed = 1;
nodes = (
(72,0,l),
(72,726,l),
(127,726,l),
(127,0,l)
);
}
);
width = 199;
}
);
unicode = 108;
}
{
glyphname = m;
layers = (
{
layerId = "3C0957B3-9451-4BAD-AE3B-C8576C323C81";
shapes = (
{
closed = 1;
nodes = (
(757,0,l),
(757,257,ls),
(757,325,o),
(735,368,o),
(674,368,cs),
(615,368,o),
(582,325,o),
(582,257,cs),
(582,0,l),
(410,0,l),
(410,257,ls),
(410,325,o),
(388,368,o),
(325,368,cs),
(268,368,o),
(235,325,o),
(235,257,cs),
(235,0,l),
(63,0,l),
(63,500,l),
(213,500,l),
(228,437,l),
(260,482,o),
(313,512,o),
(385,512,cs),
(458,512,o),
(511,485,o),
(544,431,c),
(585,480,o),
(645,512,o),
(721,512,cs),
(864,512,o),
(928,424,o),
(928,272,cs),
(928,0,l)
);
}
);
width = 985;
},
{
layerId = "C91D2DC0-8AAD-4B21-B0E6-07AA6617D11E";
shapes = (
{
closed = 1;
nodes = (
(759,0,l),
(759,282,ls),
(759,385,o),
(719,436,o),
(640,436,cs),
(561,436,o),
(503,373,o),
(503,258,cs),
(503,0,l),
(414,0,l),
(414,282,ls),
(414,385,o),
(373,436,o),
(295,436,cs),
(217,436,o),
(158,373,o),
(158,258,cs),
(158,0,l),
(69,0,l),
(69,500,l),
(149,500,l),
(155,427,l),
(187,481,o),
(243,512,o),
(311,512,cs),
(389,512,o),
(447,481,o),
(479,415,c),
(514,476,o),
(580,512,o),
(650,512,cs),
(771,512,o),
(849,441,o),
(849,291,cs),
(849,0,l)
);
}
);
width = 906;
},
{
layerId = "972C881F-D909-4F62-92A5-F720CB79AC7E";
shapes = (
{
closed = 1;
nodes = (
(760,0,l),
(760,292,ls),
(760,409,o),
(712,463,o),
(627,463,cs),
(539,463,o),
(472,392,o),
(472,259,cs),
(472,0,l),
(416,0,l),
(416,292,ls),
(416,409,o),
(367,463,o),
(283,463,cs),
(196,463,o),
(127,392,o),
(127,259,cs),
(127,0,l),
(72,0,l),
(72,500,l),
(124,500,l),
(126,423,l),
(158,480,o),
(215,512,o),
(282,512,cs),
(362,512,o),
(422,480,o),
(453,408,c),
(486,475,o),
(554,512,o),
(622,512,cs),
(734,512,o),
(817,448,o),
(817,298,cs),
(817,0,l)
);
}
);
width = 875;
}
);
leftKerningGroup = m;
rightKerningGroup = h;
unicode = 109;
}
{
glyphname = n;
layers = (
{
layerId = "BB5B5596-5E1F-4BCA-852B-56C614C2EA8E";
shapes = (
{
closed = 1;
nodes = (
(420,0,l),
(420,257,ls),
(420,326,o),
(397,368,o),
(332,368,cs),
(274,368,o),
(235,326,o),
(235,257,cs),
(235,0,l),
(63,0,l),
(63,500,l),
(213,500,l),
(227,420,l),
(258,474,o),
(314,512,o),
(395,512,cs),
(525,512,o),
(592,424,o),
(592,272,cs),
(592,0,l)
);
}
);
width = 648;
},
{
layerId = "E4D0624D-8000-4CFF-8595-BC700BCBE458";
shapes = (
{
closed = 1;
nodes = (
(433,0,l),
(433,282,ls),
(433,385,o),
(390,436,o),
(306,436,cs),
(220,436,o),
(158,373,o),
(158,258,cs),
(158,0,l),
(69,0,l),
(69,500,l),
(149,500,l),
(155,411,l),
(187,475,o),
(250,512,o),
(327,512,cs),
(446,512,o),
(521,441,o),
(521,291,cs),
(521,0,l)
);
}
);
width = 579;
},
{
layerId = "E70FFCB9-C703-4CAE-9CF8-4537993847F6";
shapes = (
{
closed = 1;
nodes = (
(438,0,l),
(438,292,ls),
(438,409,o),
(387,463,o),
(295,463,cs),
(199,463,o),
(127,392,o),
(127,259,cs),
(127,0,l),
(72,0,l),
(72,500,l),
(124,500,l),
(126,407,l),
(158,475,o),
(225,512,o),
(300,512,cs),
(414,512,o),
(493,448,o),
(493,298,cs),
(493,0,l)
);
}
);
width = 552;
}
);
leftKerningGroup = m;
rightKerningGroup = h;
unicode = 110;
}
{
glyphname = o;
layers = (
{
layerId = "F6FB205E-B3AB-4819-9CAF-AB538C51B80E";
shapes = (
{
closed = 1;
nodes = (
(164,-12,o),
(50,99,o),
(50,250,cs),
(50,401,o),
(164,512,o),
(313,512,cs),
(461,512,o),
(575,401,o),
(575,250,cs),
(575,99,o),
(461,-12,o),
(313,-12,cs)
);
},
{
closed = 1;
nodes = (
(362,137,o),
(399,174,o),
(399,250,cs),
(399,326,o),
(362,363,o),
(313,363,cs),
(263,363,o),
(226,326,o),
(226,250,cs),
(226,174,o),
(263,137,o),
(313,137,cs)
);
}
);
width = 625;
},
{
layerId = "36B3D2C2-B8FB-4E59-BDB1-E262A6063C52";
shapes = (
{
closed = 1;
nodes = (
(156,-12,o),
(49,92,o),
(49,250,cs),
(49,408,o),
(158,512,o),
(300,512,cs),
(442,512,o),
(550,408,o),
(550,250,cs),
(550,92,o),
(440,-12,o),
(299,-12,cs)
);
},
{
closed = 1;
nodes = (
(383,64,o),
(459,127,o),
(459,250,cs),
(459,373,o),
(383,436,o),
(300,436,cs),
(217,436,o),
(140,373,o),
(140,250,cs),
(140,127,o),
(215,64,o),
(299,64,cs)
);
}
);
width = 599;
},
{
layerId = "0C974A3A-E5A4-4FB7-A898-B0FABB9FC9C2";
shapes = (
{
closed = 1;
nodes = (
(153,-12,o),
(48,89,o),
(48,250,cs),
(48,411,o),
(156,512,o),
(295,512,cs),
(435,512,o),
(540,411,o),
(540,250,cs),
(540,89,o),
(431,-12,o),
(293,-12,cs)
);
},
{
closed = 1;
nodes = (
(391,35,o),
(483,108,o),
(483,250,cs),
(483,392,o),
(392,465,o),
(295,465,cs),
(198,465,o),
(106,392,o),
(106,250,cs),
(106,108,o),
(196,35,o),
(293,35,cs)
);
}
);
width = 588;
}
);
leftKerningGroup = c2;
rightKerningGroup = b;
unicode = 111;
}
{
glyphname = q;
layers = (
{
layerId = "801975A8-2B28-48D2-ACC9-91C57621CBC0";
shapes = (
{
closed = 1;
nodes = (
(446,-222,l),
(446,60,l),
(414,20,o),
(371,-12,o),
(294,-12,cs),
(161,-12,o),
(50,102,o),
(50,251,cs),
(50,401,o),
(161,512,o),
(294,512,cs),
(363,512,o),
(410,488,o),
(446,447,c),
(466,500,l),
(618,500,l),
(618,-222,l)
);
},
{
closed = 1;
nodes = (
(406,138,o),
(454,189,o),
(454,250,cs),
(454,314,o),
(407,362,o),
(340,362,cs),
(274,362,o),
(226,313,o),
(226,251,cs),
(226,189,o),
(274,138,o),
(340,138,cs)
);
}
);
width = 680;
},
{
layerId = "108F7D4A-630E-4424-A5B2-B42F8C482EB9";
shapes = (
{
closed = 1;
nodes = (
(478,-222,l),
(478,82,l),
(445,34,o),
(388,-12,o),
(295,-12,cs),
(149,-12,o),
(49,101,o),
(49,251,cs),
(49,401,o),
(149,512,o),
(296,512,cs),
(379,512,o),
(443,478,o),
(478,418,c),
(487,500,l),
(567,500,l),
(567,-222,l)
);
},
{
closed = 1;
nodes = (
(407,65,o),
(476,140,o),
(476,250,cs),
(476,360,o),
(407,435,o),
(307,435,cs),
(208,435,o),
(139,360,o),
(139,250,cs),
(139,140,o),
(208,65,o),
(307,65,cs)
);
}
);
width = 636;
},
{
layerId = "565F47C8-0ABB-4A45-ACC1-9062093877DB";
shapes = (
{
closed = 1;
nodes = (
(491,-222,l),
(491,91,l),
(458,39,o),
(395,-12,o),
(296,-12,cs),
(144,-12,o),
(48,100,o),
(48,251,cs),
(48,401,o),
(144,512,o),
(297,512,cs),
(386,512,o),
(456,474,o),
(491,406,c),
(495,500,l),
(546,500,l),
(546,-222,l)
);
},
{
closed = 1;
nodes = (
(407,36,o),
(485,121,o),
(485,250,cs),
(485,379,o),
(407,464,o),
(294,464,cs),
(182,464,o),
(104,379,o),
(104,250,cs),
(104,121,o),
(182,36,o),
(294,36,cs)
);
}
);
width = 618;
}
);
leftKerningGroup = c2;
unicode = 113;
}
{
glyphname = r;
layers = (
{
layerId = "3C0957B3-9451-4BAD-AE3B-C8576C323C81";
shapes = (
{
closed = 1;
nodes = (
(63,0,l),
(63,500,l),
(215,500,l),
(232,408,l),
(271,470,o),
(334,512,o),
(411,512,c),
(411,330,l),
(364,330,ls),
(282,330,o),
(235,301,o),
(235,205,cs),
(235,0,l)
);
}
);
width = 431;
},
{
layerId = "C91D2DC0-8AAD-4B21-B0E6-07AA6617D11E";
shapes = (
{
closed = 1;
nodes = (
(69,0,l),
(69,500,l),
(149,500,l),
(157,402,l),
(188,471,o),
(250,512,o),
(345,512,c),
(345,419,l),
(320,419,ls),
(231,419,o),
(158,380,o),
(158,249,cs),
(158,0,l)
);
}
);
width = 370;
},
{
layerId = "972C881F-D909-4F62-92A5-F720CB79AC7E";
shapes = (
{
closed = 1;
nodes = (
(72,0,l),
(72,500,l),
(123,500,l),
(127,400,l),
(155,472,o),
(217,512,o),
(318,512,c),
(318,455,l),
(302,455,ls),
(211,455,o),
(127,411,o),
(127,267,cs),
(127,0,l)
);
}
);
width = 345;
}
);
leftKerningGroup = m;
rightKerningGroup = r;
unicode = 114;
}
{
glyphname = s;
layers = (
{
layerId = "BB5B5596-5E1F-4BCA-852B-56C614C2EA8E";
shapes = (
{
closed = 1;
nodes = (
(139,-12,o),
(43,64,o),
(35,161,c),
(206,161,l),
(213,134,o),
(242,115,o),
(278,115,cs),
(322,115,o),
(338,135,o),
(338,151,cs),
(338,178,o),
(304,182,o),
(249,198,c),
(156,222,o),
(47,244,o),
(47,347,cs),
(47,438,o),
(127,512,o),
(268,512,cs),
(398,512,o),
(473,451,o),
(488,355,c),
(329,355,l),
(321,374,o),
(300,384,o),
(268,384,cs),
(232,384,o),
(212,371,o),
(212,356,cs),
(212,335,o),
(251,326,o),
(306,313,cs),
(423,286,o),
(509,264,o),
(509,159,cs),
(509,61,o),
(424,-12,o),
(282,-12,cs)
);
}
);
width = 553;
},
{
layerId = "E4D0624D-8000-4CFF-8595-BC700BCBE458";
shapes = (
{
closed = 1;
nodes = (
(140,-12,o),
(54,53,o),
(41,156,c),
(133,156,l),
(144,105,o),
(188,62,o),
(263,62,cs),
(333,62,o),
(365,96,o),
(365,137,cs),
(365,195,o),
(320,207,o),
(242,223,cs),
(160,239,o),
(65,270,o),
(65,363,cs),
(65,449,o),
(135,512,o),
(248,512,cs),
(355,512,o),
(427,458,o),
(439,359,c),
(352,359,l),
(346,408,o),
(309,438,o),
(247,438,cs),
(187,438,o),
(154,411,o),
(154,370,cs),
(154,331,o),
(198,310,o),
(271,295,cs),
(365,275,o),
(455,252,o),
(455,144,cs),
(455,53,o),
(382,-12,o),
(262,-12,cs)
);
}
);
width = 507;
},
{
layerId = "E70FFCB9-C703-4CAE-9CF8-4537993847F6";
shapes = (
{
closed = 1;
nodes = (
(141,-12,o),
(59,48,o),
(44,154,c),
(104,154,l),
(116,94,o),
(167,41,o),
(257,41,cs),
(338,41,o),
(376,81,o),
(376,132,cs),
(376,202,o),
(326,217,o),
(239,233,c),
(161,246,o),
(72,281,o),
(72,369,cs),
(72,454,o),
(138,512,o),
(240,512,cs),
(338,512,o),
(408,461,o),
(419,361,c),
(361,361,l),
(356,421,o),
(312,460,o),
(238,460,cs),
(169,460,o),
(131,427,o),
(131,376,cs),
(131,329,o),
(177,304,o),
(257,288,cs),
(342,270,o),
(433,247,o),
(433,138,cs),
(433,50,o),
(365,-12,o),
(254,-12,cs)
);
}
);
width = 488;
}
);
leftKerningGroup = s2;
rightKerningGroup = s;
unicode = 115;
}
{
glyphname = t;
layers = (
{
layerId = "F6FB205E-B3AB-4819-9CAF-AB538C51B80E";
shapes = (
{
closed = 1;
nodes = (
(309,0,ls),
(193,0,o),
(111,49,o),
(111,196,cs),
(111,357,l),
(26,357,l),
(26,500,l),
(111,500,l),
(129,647,l),
(283,647,l),
(283,500,l),
(406,500,l),
(406,357,l),
(283,357,l),
(283,194,ls),
(283,159,o),
(296,146,o),
(336,146,cs),
(407,146,l),
(407,0,l)
);
}
);
width = 458;
},
{
layerId = "36B3D2C2-B8FB-4E59-BDB1-E262A6063C52";
shapes = (
{
closed = 1;
nodes = (
(269,0,ls),
(176,0,o),
(120,38,o),
(120,155,cs),
(120,425,l),
(32,425,l),
(32,500,l),
(120,500,l),
(130,621,l),
(208,621,l),
(208,500,l),
(355,500,l),
(355,425,l),
(208,425,l),
(208,155,ls),
(208,93,o),
(230,75,o),
(293,75,cs),
(347,75,l),
(347,0,l)
);
}
);
width = 393;
},
{
layerId = "0C974A3A-E5A4-4FB7-A898-B0FABB9FC9C2";
shapes = (
{
closed = 1;
nodes = (
(253,0,ls),
(169,0,o),
(123,34,o),
(123,139,cs),
(123,452,l),
(35,452,l),
(35,500,l),
(123,500,l),
(131,611,l),
(178,611,l),
(178,500,l),
(334,500,l),
(334,452,l),
(178,452,l),
(178,139,ls),
(178,67,o),
(204,47,o),
(276,47,cs),
(323,47,l),
(323,0,l)
);
}
);
width = 367;
}
);
leftKerningGroup = t2;
rightKerningGroup = t;
unicode = 116;
}
{
glyphname = u;
layers = (
{
layerId = "3C0957B3-9451-4BAD-AE3B-C8576C323C81";
shapes = (
{
closed = 1;
nodes = (
(228,500,l),
(228,243,ls),
(228,174,o),
(251,132,o),
(316,132,cs),
(374,132,o),
(413,174,o),
(413,243,cs),
(413,500,l),
(585,500,l),
(585,0,l),
(435,0,l),
(421,80,l),
(390,26,o),
(334,-12,o),
(253,-12,cs),
(123,-12,o),
(56,76,o),
(56,228,cs),
(56,500,l)
);
}
);
width = 648;
},
{
layerId = "C91D2DC0-8AAD-4B21-B0E6-07AA6617D11E";
shapes = (
{
closed = 1;
nodes = (
(146,500,l),
(146,218,ls),
(146,115,o),
(189,64,o),
(273,64,cs),
(359,64,o),
(421,127,o),
(421,242,cs),
(421,500,l),
(510,500,l),
(510,0,l),
(430,0,l),
(424,89,l),
(392,25,o),
(329,-12,o),
(252,-12,cs),
(133,-12,o),
(58,59,o),
(58,209,cs),
(58,500,l)
);
}
);
width = 579;
},
{
layerId = "972C881F-D909-4F62-92A5-F720CB79AC7E";
shapes = (
{
closed = 1;
nodes = (
(114,500,l),
(114,208,ls),
(114,91,o),
(165,37,o),
(257,37,cs),
(353,37,o),
(425,108,o),
(425,241,cs),
(425,500,l),
(480,500,l),
(480,0,l),
(428,0,l),
(426,93,l),
(394,25,o),
(327,-12,o),
(252,-12,cs),
(138,-12,o),
(59,52,o),
(59,202,cs),
(59,500,l)
);
}
);
width = 552;
}
);
leftKerningGroup = u;
unicode = 117;
}
{
glyphname = v;
layers = (
{
layerId = "801975A8-2B28-48D2-ACC9-91C57621CBC0";
shapes = (
{
closed = 1;
nodes = (
(189,0,l),
(10,500,l),
(192,500,l),
(295,161,l),
(399,500,l),
(580,500,l),
(401,0,l)
);
}
);
width = 590;
},
{
layerId = "108F7D4A-630E-4424-A5B2-B42F8C482EB9";
shapes = (
{
closed = 1;
nodes = (
(213,0,l),
(23,500,l),
(117,500,l),
(265,85,l),
(413,500,l),
(506,500,l),
(316,0,l)
);
}
);
width = 529;
},
{
layerId = "565F47C8-0ABB-4A45-ACC1-9062093877DB";
shapes = (
{
closed = 1;
nodes = (
(222,0,l),
(28,500,l),
(87,500,l),
(253,54,l),
(419,500,l),
(476,500,l),
(282,0,l)
);
}
);
width = 504;
}
);
unicode = 118;
}
{
glyphname = w;
layers = (
{
layerId = "3C0957B3-9451-4BAD-AE3B-C8576C323C81";
shapes = (
{
closed = 1;
nodes = (
(157,0,l),
(10,500,l),
(179,500,l),
(250,175,l),
(334,500,l),
(523,500,l),
(607,175,l),
(677,500,l),
(847,500,l),
(700,0,l),
(520,0,l),
(428,334,l),
(337,0,l)
);
}
);
width = 857;
},
{
layerId = "C91D2DC0-8AAD-4B21-B0E6-07AA6617D11E";
shapes = (
{
closed = 1;
nodes = (
(169,0,l),
(23,500,l),
(113,500,l),
(217,114,l),
(333,500,l),
(432,500,l),
(548,114,l),
(651,500,l),
(741,500,l),
(594,0,l),
(504,0,l),
(382,408,l),
(261,0,l)
);
}
);
width = 764;
},
{
layerId = "972C881F-D909-4F62-92A5-F720CB79AC7E";
shapes = (
{
closed = 1;
nodes = (
(174,0,l),
(28,500,l),
(86,500,l),
(204,89,l),
(332,500,l),
(396,500,l),
(524,89,l),
(641,500,l),
(699,500,l),
(552,0,l),
(497,0,l),
(364,438,l),
(230,0,l)
);
}
);
width = 727;
}
);
leftKerningGroup = w2;
rightKerningGroup = w;
unicode = 119;
}
{
glyphname = x;
layers = (
{
layerId = "F6FB205E-B3AB-4819-9CAF-AB538C51B80E";
shapes = (
{
closed = 1;
nodes = (
(16,0,l),
(207,250,l),
(16,500,l),
(202,500,l),
(315,351,l),
(426,500,l),
(612,500,l),
(421,250,l),
(612,0,l),
(426,0,l),
(315,149,l),
(202,0,l)
);
}
);
width = 628;
},
{
layerId = "36B3D2C2-B8FB-4E59-BDB1-E262A6063C52";
shapes = (
{
closed = 1;
nodes = (
(20,0,l),
(194,250,l),
(20,500,l),
(115,500,l),
(254,296,l),
(393,500,l),
(489,500,l),
(315,250,l),
(489,0,l),
(393,0,l),
(254,204,l),
(115,0,l)
);
}
);
width = 508;
},
{
layerId = "0C974A3A-E5A4-4FB7-A898-B0FABB9FC9C2";
shapes = (
{
closed = 1;
nodes = (
(21,0,l),
(189,250,l),
(21,500,l),
(80,500,l),
(230,274,l),
(380,500,l),
(440,500,l),
(272,250,l),
(440,0,l),
(380,0,l),
(230,226,l),
(80,0,l)
);
}
);
width = 460;
}
);
unicode = 120;
}
{
glyphname = y;
layers = (
{
layerId = "BB5B5596-5E1F-4BCA-852B-56C614C2EA8E";
shapes = (
{
closed = 1;
nodes = (
(132,-222,l),
(240,19,l),
(209,19,l),
(18,500,l),
(206,500,l),
(322,185,l),
(439,500,l),
(624,500,l),
(316,-222,l)
);
}
);
width = 642;
},
{
layerId = "E4D0624D-8000-4CFF-8595-BC700BCBE458";
shapes = (
{
closed = 1;
nodes = (
(125,-222,l),
(247,47,l),
(219,47,l),
(19,500,l),
(117,500,l),
(279,114,l),
(452,500,l),
(545,500,l),
(218,-222,l)
);
}
);
width = 564;
},
{
layerId = "E70FFCB9-C703-4CAE-9CF8-4537993847F6";
shapes = (
{
closed = 1;
nodes = (
(122,-222,l),
(250,58,l),
(223,58,l),
(20,500,l),
(81,500,l),
(262,86,l),
(457,500,l),
(513,500,l),
(179,-222,l)
);
}
);
width = 533;
}
);
leftKerningGroup = y2;
rightKerningGroup = y;
unicode = 121;
}
{
glyphname = z;
layers = (
{
layerId = "467F6941-6312-4AD9-9245-E692C0DBCD12";
name = "#instance";
shapes = (
{
closed = 1;
nodes = (
(30,0,l),
(30,137,l),
(264,358,l),
(32,358,l),
(32,500,l),
(462,500,l),
(462,363,l),
(223,142,l),
(467,142,l),
(467,0,l)
);
}
);
width = 509;
},
{
layerId = "801975A8-2B28-48D2-ACC9-91C57621CBC0";
shapes = (
{
closed = 1;
nodes = (
(30,0,l),
(30,137,l),
(264,358,l),
(32,358,l),
(32,500,l),
(462,500,l),
(462,363,l),
(223,142,l),
(467,142,l),
(467,0,l)
);
}
);
width = 509;
},
{
layerId = "108F7D4A-630E-4424-A5B2-B42F8C482EB9";
shapes = (
{
closed = 1;
nodes = (
(35,0,l),
(35,72,l),
(312,427,l),
(39,427,l),
(39,500,l),
(411,500,l),
(411,428,l),
(134,73,l),
(416,73,l),
(416,0,l)
);
}
);
width = 459;
},
{
layerId = "565F47C8-0ABB-4A45-ACC1-9062093877DB";
shapes = (
{
closed = 1;
nodes = (
(37,0,l),
(37,46,l),
(331,454,l),
(42,454,l),
(42,500,l),
(391,500,l),
(391,454,l),
(99,46,l),
(396,46,l),
(396,0,l)
);
}
);
width = 439;
}
);
leftKerningGroup = z;
unicode = 122;
}
{
glyphname = braceleft;
layers = (
{
layerId = "801975A8-2B28-48D2-ACC9-91C57621CBC0";
shapes = (
{
closed = 1;
nodes = (
(356,-194,ls),
(241,-194,o),
(165,-130,o),
(165,-13,cs),
(165,53,o),
(186,102,o),
(186,164,cs),
(186,208,o),
(159,238,o),
(91,241,c),
(91,377,l),
(159,380,o),
(186,407,o),
(186,454,cs),
(186,516,o),
(165,565,o),
(165,631,cs),
(165,747,o),
(242,811,o),
(356,811,cs),
(428,811,l),
(428,671,l),
(389,671,ls),
(346,671,o),
(329,653,o),
(329,614,cs),
(329,570,o),
(346,518,o),
(346,447,cs),
(346,375,o),
(314,325,o),
(239,310,c),
(239,308,l),
(314,293,o),
(346,242,o),
(346,170,cs),
(346,99,o),
(329,48,o),
(329,4,cs),
(329,-35,o),
(346,-54,o),
(389,-54,cs),
(428,-54,l),
(428,-194,l)
);
}
);
width = 499;
},
{
layerId = "108F7D4A-630E-4424-A5B2-B42F8C482EB9";
shapes = (
{
closed = 1;
nodes = (
(322,-154,ls),
(229,-154,o),
(169,-104,o),
(169,-2,cs),
(169,66,o),
(190,106,o),
(190,183,cs),
(190,231,o),
(168,276,o),
(87,294,c),
(87,365,l),
(168,381,o),
(190,426,o),
(190,475,cs),
(190,551,o),
(169,592,o),
(169,660,cs),
(169,761,o),
(229,811,o),
(322,811,cs),
(376,811,l),
(376,736,l),
(338,736,ls),
(282,736,o),
(253,712,o),
(253,653,cs),
(253,594,o),
(275,551,o),
(275,472,cs),
(275,401,o),
(242,348,o),
(163,330,c),
(163,328,l),
(242,310,o),
(275,257,o),
(275,186,cs),
(275,106,o),
(253,64,o),
(253,5,cs),
(253,-55,o),
(282,-79,o),
(338,-79,cs),
(376,-79,l),
(376,-154,l)
);
}
);
width = 428;
},
{
layerId = "565F47C8-0ABB-4A45-ACC1-9062093877DB";
shapes = (
{
closed = 1;
nodes = (
(308,-138,ls),
(224,-138,o),
(170,-94,o),
(170,2,cs),
(170,71,o),
(192,108,o),
(192,190,cs),
(192,240,o),
(172,291,o),
(85,315,c),
(85,360,l),
(172,381,o),
(192,433,o),
(192,483,cs),
(192,565,o),
(170,603,o),
(170,671,cs),
(170,767,o),
(224,811,o),
(308,811,cs),
(355,811,l),
(355,762,l),
(317,762,ls),
(257,762,o),
(223,736,o),
(223,668,cs),
(223,603,o),
(246,564,o),
(246,482,cs),
(246,411,o),
(213,357,o),
(133,338,c),
(133,336,l),
(213,317,o),
(246,263,o),
(246,192,cs),
(246,109,o),
(223,70,o),
(223,5,cs),
(223,-63,o),
(257,-89,o),
(317,-89,cs),
(355,-89,l),
(355,-138,l)
);
}
);
width = 400;
}
);
unicode = 123;
}
{
glyphname = bar;
layers = (
{
layerId = "BB5B5596-5E1F-4BCA-852B-56C614C2EA8E";
shapes = (
{
closed = 1;
nodes = (
(62,-100,l),
(62,720,l),
(233,720,l),
(233,-100,l)
);
}
);
width = 295;
},
{
layerId = "E4D0624D-8000-4CFF-8595-BC700BCBE458";
shapes = (
{
closed = 1;
nodes = (
(73,-100,l),
(73,720,l),
(162,720,l),
(162,-100,l)
);
}
);
width = 235;
},
{
layerId = "E70FFCB9-C703-4CAE-9CF8-4537993847F6";
shapes = (
{
closed = 1;
nodes = (
(78,-100,l),
(78,720,l),
(133,720,l),
(133,-100,l)
);
}
);
width = 211;
}
);
unicode = 124;
}
{
glyphname = asciitilde;
layers = (
{
layerId = "801975A8-2B28-48D2-ACC9-91C57621CBC0";
shapes = (
{
closed = 1;
nodes = (
(321,208,o),
(276,274,o),
(217,274,cs),
(182,274,o),
(160,253,o),
(153,208,c),
(28,208,l),
(53,363,o),
(128,425,o),
(227,425,cs),
(315,425,o),
(361,359,o),
(419,359,cs),
(454,359,o),
(475,378,o),
(482,425,c),
(609,425,l),
(585,271,o),
(508,208,o),
(409,208,cs)
);
}
);
width = 636;
},
{
layerId = "108F7D4A-630E-4424-A5B2-B42F8C482EB9";
shapes = (
{
closed = 1;
nodes = (
(265,247,o),
(227,314,o),
(168,314,cs),
(133,314,o),
(109,287,o),
(102,248,c),
(37,248,l),
(53,347,o),
(102,393,o),
(173,393,cs),
(251,393,o),
(289,326,o),
(346,326,cs),
(382,326,o),
(406,351,o),
(411,392,c),
(478,392,l),
(462,293,o),
(414,247,o),
(340,247,cs)
);
}
);
width = 514;
},
{
layerId = "565F47C8-0ABB-4A45-ACC1-9062093877DB";
shapes = (
{
closed = 1;
nodes = (
(242,263,o),
(208,330,o),
(149,330,cs),
(113,330,o),
(89,301,o),
(82,264,c),
(40,264,l),
(53,341,o),
(91,380,o),
(152,380,cs),
(225,380,o),
(260,313,o),
(317,313,cs),
(353,313,o),
(378,340,o),
(383,379,c),
(425,379,l),
(413,302,o),
(376,263,o),
(313,263,cs)
);
}
);
width = 465;
}
);
unicode = 126;
}
{
glyphname = cent;
layers = (
{
layerId = "3C0957B3-9451-4BAD-AE3B-C8576C323C81";
shapes = (
{
closed = 1;
nodes = (
(239,-104,l),
(239,-2,l),
(124,27,o),
(50,126,o),
(50,248,cs),
(50,372,o),
(124,466,o),
(239,498,c),
(239,600,l),
(393,600,l),
(393,500,l),
(489,477,o),
(558,410,o),
(579,306,c),
(396,306,l),
(385,341,o),
(357,362,o),
(318,362,cs),
(259,362,o),
(224,315,o),
(224,248,cs),
(224,181,o),
(259,134,o),
(318,134,cs),
(357,134,o),
(385,154,o),
(396,190,c),
(579,190,l),
(558,90,o),
(489,20,o),
(393,-3,c),
(393,-104,l)
);
}
);
width = 629;
},
{
layerId = "C91D2DC0-8AAD-4B21-B0E6-07AA6617D11E";
shapes = (
{
closed = 1;
nodes = (
(254,-104,l),
(254,-8,l),
(134,10,o),
(49,109,o),
(49,248,cs),
(49,388,o),
(134,485,o),
(254,504,c),
(254,600,l),
(339,600,l),
(339,505,l),
(438,491,o),
(505,429,o),
(525,337,c),
(435,337,l),
(420,398,o),
(366,433,o),
(297,433,cs),
(214,433,o),
(139,370,o),
(139,248,cs),
(139,127,o),
(214,63,o),
(297,63,cs),
(366,63,o),
(420,97,o),
(435,159,c),
(525,159,l),
(507,70,o),
(438,6,o),
(339,-9,c),
(339,-104,l)
);
}
);
width = 573;
},
{
layerId = "972C881F-D909-4F62-92A5-F720CB79AC7E";
shapes = (
{
closed = 1;
nodes = (
(260,-104,l),
(260,-10,l),
(138,3,o),
(48,102,o),
(48,248,cs),
(48,395,o),
(138,493,o),
(260,506,c),
(260,600,l),
(317,600,l),
(317,507,l),
(417,496,o),
(484,437,o),
(503,350,c),
(450,350,l),
(434,421,o),
(369,461,o),
(289,461,cs),
(196,461,o),
(105,392,o),
(105,248,cs),
(105,105,o),
(196,34,o),
(289,34,cs),
(369,34,o),
(434,74,o),
(450,146,c),
(503,146,l),
(486,62,o),
(417,0,o),
(317,-11,c),
(317,-104,l)
);
}
);
width = 551;
}
);
unicode = 162;
}
{
glyphname = sterling;
layers = (
{
layerId = "BB5B5596-5E1F-4BCA-852B-56C614C2EA8E";
shapes = (
{
closed = 1;
nodes = (
(66,0,l),
(66,95,l),
(104,131,o),
(125,166,o),
(136,208,cs),
(142,232,o),
(145,258,o),
(145,287,c),
(36,287,l),
(36,402,l),
(115,402,l),
(106,431,o),
(98,461,o),
(98,492,cs),
(98,631,o),
(199,712,o),
(340,712,cs),
(501,712,o),
(579,612,o),
(584,485,c),
(427,485,l),
(424,536,o),
(399,572,o),
(344,572,cs),
(296,572,o),
(260,542,o),
(260,487,cs),
(260,464,o),
(270,435,o),
(281,402,c),
(463,402,l),
(463,287,l),
(307,287,l),
(307,254,o),
(300,224,o),
(287,196,cs),
(276,173,o),
(261,152,o),
(241,134,c),
(588,134,l),
(588,0,l)
);
}
);
width = 642;
},
{
layerId = "E4D0624D-8000-4CFF-8595-BC700BCBE458";
shapes = (
{
closed = 1;
nodes = (
(86,0,l),
(86,56,l),
(131,106,o),
(163,146,o),
(166,220,cs),
(168,252,o),
(164,280,o),
(156,309,c),
(45,309,l),
(45,371,l),
(137,371,l),
(123,410,o),
(109,452,o),
(109,506,cs),
(109,631,o),
(196,712,o),
(323,712,cs),
(466,712,o),
(534,618,o),
(541,506,c),
(461,506,l),
(456,582,o),
(410,638,o),
(323,638,cs),
(253,638,o),
(192,598,o),
(192,503,cs),
(192,456,o),
(207,414,o),
(222,371,c),
(414,371,l),
(414,309,l),
(240,309,l),
(248,279,o),
(250,249,o),
(246,219,c),
(243,160,o),
(221,116,o),
(179,72,c),
(543,72,l),
(543,-1,l)
);
}
);
width = 602;
},
{
layerId = "E70FFCB9-C703-4CAE-9CF8-4537993847F6";
shapes = (
{
closed = 1;
nodes = (
(94,0,l),
(94,40,l),
(142,96,o),
(178,138,o),
(178,225,cs),
(178,260,o),
(172,289,o),
(161,318,c),
(48,318,l),
(48,358,l),
(146,358,l),
(130,402,o),
(113,448,o),
(113,512,cs),
(113,631,o),
(195,712,o),
(316,712,cs),
(452,712,o),
(516,621,o),
(524,514,c),
(474,514,l),
(469,601,o),
(415,665,o),
(315,665,cs),
(236,665,o),
(165,620,o),
(165,509,cs),
(165,453,o),
(182,405,o),
(199,358,c),
(395,358,l),
(395,318,l),
(213,318,l),
(224,289,o),
(230,259,o),
(230,228,cs),
(230,155,o),
(205,102,o),
(154,47,c),
(525,47,l),
(525,-1,l)
);
}
);
width = 586;
}
);
unicode = 163;
}
{
glyphname = yen;
layers = (
{
layerId = "BB5B5596-5E1F-4BCA-852B-56C614C2EA8E";
shapes = (
{
closed = 1;
nodes = (
(255,0,l),
(255,134,l),
(55,134,l),
(55,248,l),
(247,248,l),
(247,248,l),
(215,309,l),
(55,310,l),
(55,425,l),
(155,425,l),
(12,700,l),
(206,700,l),
(342,390,l),
(477,700,l),
(669,700,l),
(526,425,l),
(626,425,l),
(626,310,l),
(466,309,l),
(434,248,l),
(434,248,l),
(626,248,l),
(626,134,l),
(426,134,l),
(426,0,l)
);
}
);
width = 681;
},
{
layerId = "E4D0624D-8000-4CFF-8595-BC700BCBE458";
shapes = (
{
closed = 1;
nodes = (
(259,0,l),
(259,165,l),
(59,165,l),
(59,229,l),
(257,229,l),
(257,269,l),
(231,318,l),
(59,319,l),
(59,381,l),
(198,381,l),
(30,700,l),
(130,700,l),
(303,346,l),
(476,700,l),
(575,700,l),
(408,381,l),
(547,381,l),
(547,319,l),
(375,318,l),
(350,269,l),
(350,229,l),
(547,229,l),
(547,165,l),
(347,165,l),
(347,0,l)
);
}
);
width = 605;
},
{
layerId = "E70FFCB9-C703-4CAE-9CF8-4537993847F6";
shapes = (
{
closed = 1;
nodes = (
(261,0,l),
(261,178,l),
(61,178,l),
(61,222,l),
(261,222,l),
(261,278,l),
(238,321,l),
(61,322,l),
(61,364,l),
(215,364,l),
(37,700,l),
(99,700,l),
(287,329,l),
(475,700,l),
(537,700,l),
(361,364,l),
(516,364,l),
(516,322,l),
(338,321,l),
(316,278,l),
(316,222,l),
(516,222,l),
(516,178,l),
(316,178,l),
(316,0,l)
);
}
);
width = 574;
}
);
unicode = 165;
}
{
glyphname = brokenbar;
layers = (
{
layerId = "F6FB205E-B3AB-4819-9CAF-AB538C51B80E";
shapes = (
{
closed = 1;
nodes = (
(62,400,l),
(62,720,l),
(233,720,l),
(233,400,l)
);
},
{
closed = 1;
nodes = (
(62,-100,l),
(62,220,l),
(233,220,l),
(233,-100,l)
);
}
);
width = 295;
},
{
layerId = "36B3D2C2-B8FB-4E59-BDB1-E262A6063C52";
shapes = (
{
closed = 1;
nodes = (
(73,388,l),
(73,720,l),
(162,720,l),
(162,388,l)
);
},
{
closed = 1;
nodes = (
(73,-100,l),
(73,232,l),
(162,232,l),
(162,-100,l)
);
}
);
width = 235;
},
{
layerId = "0C974A3A-E5A4-4FB7-A898-B0FABB9FC9C2";
shapes = (
{
closed = 1;
nodes = (
(78,383,l),
(78,720,l),
(133,720,l),
(133,383,l)
);
},
{
closed = 1;
nodes = (
(78,-100,l),
(78,237,l),
(133,237,l),
(133,-100,l)
);
}
);
width = 211;
}
);
unicode = 166;
}
{
glyphname = section;
layers = (
{
layerId = "F6FB205E-B3AB-4819-9CAF-AB538C51B80E";
shapes = (
{
closed = 1;
nodes = (
(164,-232,o),
(63,-155,o),
(55,-22,c),
(240,-22,l),
(243,-62,o),
(274,-88,o),
(313,-89,cs),
(350,-90,o),
(381,-72,o),
(381,-35,cs),
(381,17,o),
(321,28,o),
(246,52,c),
(139,89,o),
(42,143,o),
(42,266,cs),
(42,321,o),
(60,368,o),
(97,407,c),
(79,433,o),
(70,466,o),
(70,505,cs),
(70,638,o),
(179,712,o),
(320,712,cs),
(468,712,o),
(569,635,o),
(577,502,c),
(392,502,l),
(389,542,o),
(358,568,o),
(319,569,cs),
(282,570,o),
(251,552,o),
(251,515,cs),
(251,463,o),
(311,452,o),
(386,428,cs),
(493,393,o),
(590,336,o),
(590,214,cs),
(590,159,o),
(572,112,o),
(535,73,c),
(553,47,o),
(562,14,o),
(562,-25,cs),
(562,-158,o),
(453,-232,o),
(312,-232,cs)
);
},
{
closed = 1;
nodes = (
(403,174,o),
(407,187,o),
(407,202,cs),
(407,242,o),
(364,271,o),
(279,302,cs),
(260,309,o),
(249,313,o),
(238,317,c),
(229,306,o),
(225,293,o),
(225,278,cs),
(225,239,o),
(264,210,o),
(352,178,cs),
(365,173,o),
(379,168,o),
(394,163,c)
);
}
);
width = 634;
},
{
layerId = "36B3D2C2-B8FB-4E59-BDB1-E262A6063C52";
shapes = (
{
closed = 1;
nodes = (
(155,-232,o),
(69,-151,o),
(66,-37,c),
(159,-37,l),
(159,-96,o),
(204,-157,o),
(293,-157,cs),
(367,-157,o),
(420,-117,o),
(420,-47,cs),
(420,40,o),
(338,54,o),
(220,93,c),
(119,128,o),
(43,177,o),
(43,294,cs),
(43,343,o),
(62,390,o),
(101,427,c),
(83,452,o),
(74,482,o),
(74,519,c),
(71,633,o),
(159,712,o),
(296,712,cs),
(430,712,o),
(517,631,o),
(519,517,c),
(426,517,l),
(425,576,o),
(383,637,o),
(292,637,cs),
(218,637,o),
(165,597,o),
(165,527,cs),
(165,440,o),
(247,426,o),
(365,387,c),
(466,352,o),
(541,303,o),
(541,186,cs),
(541,137,o),
(523,89,o),
(485,53,c),
(504,26,o),
(512,-2,o),
(512,-39,cs),
(512,-153,o),
(426,-232,o),
(290,-232,cs)
);
},
{
closed = 1;
nodes = (
(440,127,o),
(450,151,o),
(450,181,cs),
(450,286,o),
(353,300,o),
(240,340,c),
(209,350,o),
(185,362,o),
(165,373,c),
(145,354,o),
(136,329,o),
(136,299,cs),
(136,195,o),
(230,180,o),
(346,140,cs),
(375,130,o),
(400,119,o),
(420,107,c)
);
}
);
width = 586;
},
{
layerId = "0C974A3A-E5A4-4FB7-A898-B0FABB9FC9C2";
shapes = (
{
closed = 1;
nodes = (
(152,-232,o),
(71,-150,o),
(71,-43,c),
(126,-43,l),
(126,-109,o),
(176,-184,o),
(285,-184,cs),
(374,-184,o),
(436,-135,o),
(436,-52,cs),
(436,49,o),
(345,64,o),
(210,109,c),
(111,144,o),
(44,190,o),
(44,305,cs),
(44,352,o),
(63,399,o),
(102,435,c),
(84,459,o),
(75,489,o),
(75,525,c),
(72,631,o),
(151,712,o),
(286,712,cs),
(415,712,o),
(496,630,o),
(496,523,c),
(440,523,l),
(440,589,o),
(393,664,o),
(281,664,cs),
(192,664,o),
(130,615,o),
(130,532,cs),
(130,431,o),
(221,416,o),
(356,371,c),
(455,336,o),
(522,290,o),
(522,175,cs),
(522,128,o),
(504,80,o),
(465,45,c),
(484,18,o),
(492,-9,o),
(492,-45,cs),
(492,-151,o),
(415,-232,o),
(281,-232,cs)
);
},
{
closed = 1;
nodes = (
(455,108,o),
(467,137,o),
(467,172,cs),
(467,304,o),
(349,312,o),
(224,355,c),
(189,366,o),
(159,381,o),
(136,396,c),
(112,373,o),
(100,343,o),
(100,308,cs),
(100,178,o),
(217,168,o),
(343,125,cs),
(379,113,o),
(408,99,o),
(431,84,c)
);
}
);
width = 567;
}
);
unicode = 167;
}
{
glyphname = dieresis;
layers = (
{
layerId = "3C0957B3-9451-4BAD-AE3B-C8576C323C81";
shapes = (
{
closed = 1;
nodes = (
(242,558,o),
(210,590,o),
(210,631,cs),
(210,674,o),
(242,705,o),
(283,705,cs),
(326,705,o),
(357,674,o),
(357,631,cs),
(357,590,o),
(326,558,o),
(283,558,cs)
);
},
{
closed = 1;
nodes = (
(42,558,o),
(10,590,o),
(10,631,cs),
(10,674,o),
(42,705,o),
(83,705,cs),
(126,705,o),
(157,674,o),
(157,631,cs),
(157,590,o),
(126,558,o),
(83,558,cs)
);
}
);
width = 367;
},
{
layerId = "C91D2DC0-8AAD-4B21-B0E6-07AA6617D11E";
shapes = (
{
closed = 1;
nodes = (
(215,570,o),
(193,593,o),
(193,621,cs),
(193,650,o),
(215,672,o),
(244,672,cs),
(272,672,o),
(294,650,o),
(294,621,cs),
(294,593,o),
(272,570,o),
(244,570,cs)
);
},
{
closed = 1;
nodes = (
(53,570,o),
(31,593,o),
(31,621,cs),
(31,650,o),
(53,672,o),
(82,672,cs),
(110,672,o),
(133,650,o),
(133,621,cs),
(133,593,o),
(110,570,o),
(82,570,cs)
);
}
);
width = 324;
},
{
layerId = "972C881F-D909-4F62-92A5-F720CB79AC7E";
shapes = (
{
closed = 1;
nodes = (
(204,575,o),
(186,594,o),
(186,617,cs),
(186,640,o),
(204,659,o),
(228,659,cs),
(251,659,o),
(269,640,o),
(269,617,cs),
(269,594,o),
(251,575,o),
(228,575,cs)
);
},
{
closed = 1;
nodes = (
(57,575,o),
(39,594,o),
(39,617,cs),
(39,640,o),
(57,659,o),
(81,659,cs),
(104,659,o),
(123,640,o),
(123,617,cs),
(123,594,o),
(104,575,o),
(81,575,cs)
);
}
);
width = 307;
}
);
unicode = 168;
}
{
glyphname = copyright;
layers = (
{
layerId = "801975A8-2B28-48D2-ACC9-91C57621CBC0";
shapes = (
{
closed = 1;
nodes = (
(181,-7,o),
(38,142,o),
(38,353,cs),
(38,564,o),
(181,712,o),
(390,712,cs),
(599,712,o),
(742,564,o),
(742,353,cs),
(742,142,o),
(599,-7,o),
(390,-7,cs)
);
},
{
closed = 1;
nodes = (
(570,49,o),
(682,170,o),
(682,353,cs),
(682,537,o),
(570,656,o),
(390,656,cs),
(210,656,o),
(98,537,o),
(98,353,cs),
(98,170,o),
(210,49,o),
(390,49,cs)
);
},
{
closed = 1;
nodes = (
(262,128,o),
(169,215,o),
(169,353,cs),
(169,492,o),
(262,578,o),
(391,578,cs),
(498,578,o),
(579,517,o),
(600,414,c),
(453,414,l),
(444,443,o),
(421,463,o),
(386,463,cs),
(338,463,o),
(307,428,o),
(307,353,cs),
(307,280,o),
(338,243,o),
(386,243,cs),
(425,243,o),
(442,264,o),
(453,292,c),
(600,292,l),
(578,192,o),
(498,128,o),
(391,128,cs)
);
}
);
width = 779;
},
{
layerId = "108F7D4A-630E-4424-A5B2-B42F8C482EB9";
shapes = (
{
closed = 1;
nodes = (
(191,-5,o),
(50,142,o),
(50,351,cs),
(50,558,o),
(191,705,o),
(396,705,cs),
(603,705,o),
(743,558,o),
(743,351,cs),
(743,142,o),
(603,-5,o),
(396,-5,cs)
);
},
{
closed = 1;
nodes = (
(586,33,o),
(703,164,o),
(703,351,cs),
(703,538,o),
(586,667,o),
(396,667,cs),
(208,667,o),
(91,538,o),
(91,351,cs),
(91,164,o),
(208,33,o),
(396,33,cs)
);
},
{
closed = 1;
nodes = (
(277,119,o),
(180,204,o),
(180,352,cs),
(180,498,o),
(277,583,o),
(397,583,cs),
(497,583,o),
(576,528,o),
(601,430,c),
(522,430,l),
(503,489,o),
(455,519,o),
(396,519,cs),
(320,519,o),
(256,462,o),
(256,351,cs),
(256,239,o),
(320,182,o),
(396,182,cs),
(459,182,o),
(502,214,o),
(522,271,c),
(601,271,l),
(576,177,o),
(497,119,o),
(397,119,cs)
);
}
);
width = 793;
},
{
layerId = "565F47C8-0ABB-4A45-ACC1-9062093877DB";
shapes = (
{
closed = 1;
nodes = (
(195,-4,o),
(55,142,o),
(55,350,cs),
(55,556,o),
(195,702,o),
(399,702,cs),
(604,702,o),
(743,556,o),
(743,350,cs),
(743,142,o),
(604,-4,o),
(399,-4,cs)
);
},
{
closed = 1;
nodes = (
(592,27,o),
(711,161,o),
(711,350,cs),
(711,539,o),
(592,672,o),
(399,672,cs),
(207,672,o),
(88,539,o),
(88,350,cs),
(88,161,o),
(207,27,o),
(399,27,cs)
);
},
{
closed = 1;
nodes = (
(283,115,o),
(184,199,o),
(184,351,cs),
(184,500,o),
(283,585,o),
(399,585,cs),
(496,585,o),
(575,532,o),
(602,436,c),
(550,436,l),
(527,507,o),
(468,542,o),
(400,542,cs),
(313,542,o),
(236,475,o),
(236,350,cs),
(236,222,o),
(313,158,o),
(400,158,cs),
(472,158,o),
(526,194,o),
(550,263,c),
(602,263,l),
(575,171,o),
(496,115,o),
(399,115,cs)
);
}
);
width = 799;
}
);
unicode = 169;
}
{
glyphname = ordfeminine;
layers = (
{
layerId = "F6FB205E-B3AB-4819-9CAF-AB538C51B80E";
shapes = (
{
closed = 1;
nodes = (
(99,349,o),
(25,418,o),
(25,530,cs),
(25,642,o),
(99,711,o),
(191,711,cs),
(250,711,o),
(286,691,o),
(310,662,c),
(320,706,l),
(439,706,l),
(439,354,l),
(320,354,l),
(310,396,l),
(287,368,o),
(250,349,o),
(194,349,cs)
);
},
{
closed = 1;
nodes = (
(274,450,o),
(310,478,o),
(310,530,cs),
(310,582,o),
(274,609,o),
(234,609,cs),
(194,609,o),
(158,581,o),
(158,529,cs),
(158,477,o),
(194,450,o),
(234,450,cs)
);
}
);
width = 469;
},
{
layerId = "36B3D2C2-B8FB-4E59-BDB1-E262A6063C52";
shapes = (
{
closed = 1;
nodes = (
(105,348,o),
(34,422,o),
(34,529,cs),
(34,638,o),
(104,710,o),
(198,710,cs),
(266,710,o),
(312,678,o),
(332,635,c),
(339,704,l),
(402,704,l),
(402,353,l),
(339,353,l),
(332,421,l),
(312,378,o),
(267,348,o),
(200,348,cs)
);
},
{
closed = 1;
nodes = (
(281,402,o),
(332,449,o),
(332,529,cs),
(332,608,o),
(281,654,o),
(218,654,cs),
(157,654,o),
(106,609,o),
(106,529,cs),
(106,449,o),
(157,402,o),
(218,402,cs)
);
}
);
width = 449;
},
{
layerId = "0C974A3A-E5A4-4FB7-A898-B0FABB9FC9C2";
shapes = (
{
closed = 1;
nodes = (
(107,347,o),
(37,424,o),
(37,529,cs),
(37,636,o),
(106,709,o),
(201,709,cs),
(273,709,o),
(322,673,o),
(341,624,c),
(346,703,l),
(387,703,l),
(387,353,l),
(346,353,l),
(341,431,l),
(322,382,o),
(274,347,o),
(203,347,cs)
);
},
{
closed = 1;
nodes = (
(284,383,o),
(341,437,o),
(341,528,cs),
(341,619,o),
(284,672,o),
(211,672,cs),
(142,672,o),
(85,620,o),
(85,529,cs),
(85,438,o),
(142,383,o),
(211,383,cs)
);
}
);
width = 441;
}
);
unicode = 170;
}
{
glyphname = guillemotleft;
layers = (
{
layerId = "801975A8-2B28-48D2-ACC9-91C57621CBC0";
shapes = (
{
closed = 1;
nodes = (
(349,120,l),
(265,295,l),
(349,470,l),
(507,470,l),
(420,295,l),
(507,120,l)
);
},
{
closed = 1;
nodes = (
(124,120,l),
(40,295,l),
(124,470,l),
(282,470,l),
(195,295,l),
(282,120,l)
);
}
);
width = 557;
},
{
layerId = "108F7D4A-630E-4424-A5B2-B42F8C482EB9";
shapes = (
{
closed = 1;
nodes = (
(320,120,l),
(224,295,l),
(320,470,l),
(407,470,l),
(308,295,l),
(407,120,l)
);
},
{
closed = 1;
nodes = (
(140,120,l),
(44,295,l),
(140,470,l),
(227,470,l),
(128,295,l),
(227,120,l)
);
}
);
width = 457;
},
{
layerId = "565F47C8-0ABB-4A45-ACC1-9062093877DB";
shapes = (
{
closed = 1;
nodes = (
(309,120,l),
(208,295,l),
(309,470,l),
(367,470,l),
(263,295,l),
(367,120,l)
);
},
{
closed = 1;
nodes = (
(147,120,l),
(46,295,l),
(147,470,l),
(205,470,l),
(101,295,l),
(205,120,l)
);
}
);
width = 417;
}
);
leftKerningGroup = guillemotleft;
unicode = 171;
}
{
glyphname = logicalnot;
layers = (
{
layerId = "801975A8-2B28-48D2-ACC9-91C57621CBC0";
shapes = (
{
closed = 1;
nodes = (
(491,180,l),
(491,312,l),
(47,312,l),
(47,442,l),
(662,442,l),
(662,180,l)
);
}
);
width = 717;
},
{
layerId = "108F7D4A-630E-4424-A5B2-B42F8C482EB9";
shapes = (
{
closed = 1;
nodes = (
(530,221,l),
(530,362,l),
(46,362,l),
(46,432,l),
(617,432,l),
(617,221,l)
);
}
);
width = 663;
},
{
layerId = "565F47C8-0ABB-4A45-ACC1-9062093877DB";
shapes = (
{
closed = 1;
nodes = (
(545,237,l),
(545,382,l),
(45,382,l),
(45,428,l),
(599,428,l),
(599,237,l)
);
}
);
width = 641;
}
);
unicode = 172;
}
{
glyphname = registered;
layers = (
{
layerId = "F6FB205E-B3AB-4819-9CAF-AB538C51B80E";
shapes = (
{
closed = 1;
nodes = (
(129,280,o),
(39,370,o),
(39,496,cs),
(39,623,o),
(129,712,o),
(257,712,cs),
(384,712,o),
(474,623,o),
(474,496,cs),
(474,370,o),
(384,280,o),
(257,280,cs)
);
},
{
closed = 1;
nodes = (
(353,336,o),
(415,400,o),
(415,496,cs),
(415,592,o),
(353,656,o),
(257,656,cs),
(160,656,o),
(99,592,o),
(99,496,cs),
(99,400,o),
(160,336,o),
(257,336,cs)
);
},
{
closed = 1;
nodes = (
(284,393,l),
(244,467,l),
(238,467,l),
(238,393,l),
(166,393,l),
(166,605,l),
(277,605,ls),
(324,605,o),
(354,579,o),
(354,536,cs),
(354,508,o),
(339,486,o),
(315,475,c),
(366,393,l)
);
},
{
closed = 1;
nodes = (
(237,516,l),
(265,516,ls),
(276,516,o),
(281,521,o),
(281,531,cs),
(281,540,o),
(276,545,o),
(265,545,cs),
(237,545,l)
);
}
);
width = 514;
},
{
layerId = "36B3D2C2-B8FB-4E59-BDB1-E262A6063C52";
shapes = (
{
closed = 1;
nodes = (
(135,306,o),
(51,391,o),
(51,508,cs),
(51,625,o),
(135,712,o),
(253,712,cs),
(370,712,o),
(453,625,o),
(453,508,cs),
(453,391,o),
(370,306,o),
(253,306,cs)
);
},
{
closed = 1;
nodes = (
(349,342,o),
(414,411,o),
(414,508,cs),
(414,605,o),
(349,674,o),
(253,674,cs),
(154,674,o),
(92,605,o),
(92,508,cs),
(92,411,o),
(154,342,o),
(253,342,cs)
);
},
{
closed = 1;
nodes = (
(293,403,l),
(240,486,l),
(221,486,l),
(221,403,l),
(172,403,l),
(172,617,l),
(269,617,ls),
(313,617,o),
(342,593,o),
(342,552,cs),
(342,519,o),
(323,496,o),
(291,489,c),
(350,404,l)
);
},
{
closed = 1;
nodes = (
(221,525,l),
(264,525,ls),
(281,525,o),
(293,532,o),
(293,550,cs),
(293,567,o),
(281,574,o),
(264,574,cs),
(221,574,l)
);
}
);
width = 504;
},
{
layerId = "0C974A3A-E5A4-4FB7-A898-B0FABB9FC9C2";
shapes = (
{
closed = 1;
nodes = (
(137,316,o),
(56,400,o),
(56,513,cs),
(56,626,o),
(137,712,o),
(251,712,cs),
(365,712,o),
(445,626,o),
(445,513,cs),
(445,400,o),
(365,316,o),
(251,316,cs)
);
},
{
closed = 1;
nodes = (
(348,345,o),
(413,416,o),
(413,513,cs),
(413,610,o),
(348,681,o),
(251,681,cs),
(152,681,o),
(89,610,o),
(89,513,cs),
(89,416,o),
(152,345,o),
(251,345,cs)
);
},
{
closed = 1;
nodes = (
(297,407,l),
(239,493,l),
(214,493,l),
(214,407,l),
(175,407,l),
(175,622,l),
(266,622,ls),
(309,622,o),
(337,598,o),
(337,558,cs),
(337,523,o),
(317,500,o),
(282,495,c),
(343,408,l)
);
},
{
closed = 1;
nodes = (
(214,528,l),
(264,528,ls),
(283,528,o),
(298,536,o),
(298,557,cs),
(298,578,o),
(283,586,o),
(264,586,cs),
(214,586,l)
);
}
);
width = 500;
}
);
unicode = 174;
}
{
glyphname = macron;
layers = (
{
layerId = "BB5B5596-5E1F-4BCA-852B-56C614C2EA8E";
shapes = (
{
closed = 1;
nodes = (
(10,566,l),
(10,684,l),
(410,684,l),
(410,566,l)
);
}
);
width = 420;
},
{
layerId = "E4D0624D-8000-4CFF-8595-BC700BCBE458";
shapes = (
{
closed = 1;
nodes = (
(21,591,l),
(21,656,l),
(371,656,l),
(371,591,l)
);
}
);
width = 393;
},
{
layerId = "E70FFCB9-C703-4CAE-9CF8-4537993847F6";
shapes = (
{
closed = 1;
nodes = (
(26,601,l),
(26,645,l),
(356,645,l),
(356,601,l)
);
}
);
width = 382;
}
);
unicode = 175;
}
{
glyphname = degree;
layers = (
{
layerId = "3C0957B3-9451-4BAD-AE3B-C8576C323C81";
shapes = (
{
closed = 1;
nodes = (
(148,408,o),
(110,422,o),
(82,449,cs),
(54,476,o),
(36,514,o),
(36,559,cs),
(36,606,o),
(54,644,o),
(82,671,cs),
(110,698,o),
(149,712,o),
(189,712,cs),
(229,712,o),
(267,698,o),
(295,671,cs),
(323,644,o),
(341,606,o),
(341,559,cs),
(341,514,o),
(323,476,o),
(295,449,cs),
(267,422,o),
(228,408,o),
(188,408,cs)
);
},
{
closed = 1;
nodes = (
(211,509,o),
(236,525,o),
(236,560,cs),
(236,595,o),
(212,611,o),
(189,611,cs),
(166,611,o),
(141,595,o),
(141,560,cs),
(141,525,o),
(165,509,o),
(188,509,cs)
);
}
);
width = 377;
},
{
layerId = "C91D2DC0-8AAD-4B21-B0E6-07AA6617D11E";
shapes = (
{
closed = 1;
nodes = (
(137,442,o),
(103,456,o),
(79,479,cs),
(55,502,o),
(40,535,o),
(40,576,cs),
(40,618,o),
(55,651,o),
(79,675,cs),
(104,699,o),
(138,712,o),
(173,712,cs),
(209,712,o),
(241,699,o),
(266,675,cs),
(290,651,o),
(305,618,o),
(305,576,cs),
(305,535,o),
(290,502,o),
(266,479,cs),
(241,456,o),
(208,442,o),
(172,442,cs)
);
},
{
closed = 1;
nodes = (
(204,507,o),
(237,530,o),
(237,577,cs),
(237,625,o),
(205,648,o),
(173,648,cs),
(140,648,o),
(107,625,o),
(107,577,cs),
(107,530,o),
(139,507,o),
(172,507,cs)
);
}
);
width = 344;
},
{
layerId = "972C881F-D909-4F62-92A5-F720CB79AC7E";
shapes = (
{
closed = 1;
nodes = (
(132,456,o),
(100,469,o),
(78,491,cs),
(56,513,o),
(41,544,o),
(41,583,cs),
(41,623,o),
(55,654,o),
(78,677,cs),
(101,700,o),
(133,712,o),
(166,712,cs),
(201,712,o),
(231,700,o),
(254,677,cs),
(277,654,o),
(291,623,o),
(291,583,cs),
(291,544,o),
(277,513,o),
(254,491,cs),
(230,469,o),
(200,456,o),
(165,456,cs)
);
},
{
closed = 1;
nodes = (
(201,506,o),
(238,532,o),
(238,584,cs),
(238,637,o),
(202,663,o),
(166,663,cs),
(130,663,o),
(93,637,o),
(93,584,cs),
(93,532,o),
(129,506,o),
(165,506,cs)
);
}
);
width = 331;
}
);
unicode = 176;
}
{
glyphname = plusminus;
layers = (
{
layerId = "BB5B5596-5E1F-4BCA-852B-56C614C2EA8E";
shapes = (
{
closed = 1;
nodes = (
(244,183,l),
(244,297,l),
(60,297,l),
(60,439,l),
(244,439,l),
(244,553,l),
(386,553,l),
(386,439,l),
(570,439,l),
(570,297,l),
(386,297,l),
(386,183,l)
);
},
{
closed = 1;
nodes = (
(60,0,l),
(60,151,l),
(570,151,l),
(570,0,l)
);
}
);
width = 630;
},
{
layerId = "E4D0624D-8000-4CFF-8595-BC700BCBE458";
shapes = (
{
closed = 1;
nodes = (
(263,128,l),
(263,268,l),
(64,268,l),
(64,343,l),
(263,343,l),
(263,482,l),
(342,482,l),
(342,343,l),
(541,343,l),
(541,268,l),
(342,268,l),
(342,128,l)
);
},
{
closed = 1;
nodes = (
(64,0,l),
(64,77,l),
(541,77,l),
(541,0,l)
);
}
);
width = 604;
},
{
layerId = "E70FFCB9-C703-4CAE-9CF8-4537993847F6";
shapes = (
{
closed = 1;
nodes = (
(270,106,l),
(270,256,l),
(66,256,l),
(66,304,l),
(270,304,l),
(270,453,l),
(324,453,l),
(324,304,l),
(529,304,l),
(529,256,l),
(324,256,l),
(324,106,l)
);
},
{
closed = 1;
nodes = (
(66,0,l),
(66,47,l),
(529,47,l),
(529,0,l)
);
}
);
width = 594;
}
);
unicode = 177;
}
{
glyphname = twosuperior;
layers = (
{
layerId = "3C0957B3-9451-4BAD-AE3B-C8576C323C81";
shapes = (
{
closed = 1;
nodes = (
(39,352,l),
(39,448,l),
(161,522,l),
(198,546,o),
(217,567,o),
(217,594,cs),
(217,613,o),
(209,622,o),
(192,622,cs),
(174,622,o),
(164,610,o),
(162,586,c),
(34,586,l),
(39,662,o),
(100,714,o),
(205,714,cs),
(309,714,o),
(353,657,o),
(353,603,cs),
(353,554,o),
(319,522,o),
(235,482,cs),
(174,452,l),
(348,452,l),
(348,352,l)
);
}
);
width = 383;
},
{
layerId = "C91D2DC0-8AAD-4B21-B0E6-07AA6617D11E";
shapes = (
{
closed = 1;
nodes = (
(35,352,l),
(35,402,l),
(148,493,ls),
(187,525,o),
(216,556,o),
(216,600,cs),
(216,639,o),
(192,657,o),
(162,657,cs),
(128,657,o),
(108,638,o),
(103,599,c),
(33,599,l),
(38,661,o),
(81,710,o),
(166,710,cs),
(244,710,o),
(289,662,o),
(289,603,cs),
(289,548,o),
(256,512,o),
(192,466,c),
(115,408,l),
(293,408,l),
(293,352,l)
);
}
);
width = 333;
},
{
layerId = "972C881F-D909-4F62-92A5-F720CB79AC7E";
shapes = (
{
closed = 1;
nodes = (
(33,352,l),
(33,384,l),
(143,482,ls),
(182,517,o),
(215,551,o),
(215,602,cs),
(215,649,o),
(185,671,o),
(150,671,cs),
(109,671,o),
(85,649,o),
(79,604,c),
(33,604,l),
(37,661,o),
(74,708,o),
(150,708,cs),
(218,708,o),
(263,664,o),
(263,603,cs),
(263,546,o),
(231,508,o),
(175,460,c),
(91,391,l),
(271,391,l),
(271,352,l)
);
}
);
width = 313;
}
);
unicode = 178;
}
{
glyphname = threesuperior;
layers = (
{
layerId = "BB5B5596-5E1F-4BCA-852B-56C614C2EA8E";
shapes = (
{
closed = 1;
nodes = (
(70,348,o),
(20,395,o),
(15,470,c),
(148,470,l),
(150,449,o),
(161,439,o),
(181,439,cs),
(200,439,o),
(212,448,o),
(212,471,cs),
(212,494,o),
(197,505,o),
(173,505,cs),
(139,505,l),
(139,561,l),
(167,561,ls),
(193,561,o),
(206,572,o),
(206,594,cs),
(206,613,o),
(196,623,o),
(175,623,cs),
(156,623,o),
(146,613,o),
(143,592,c),
(21,592,l),
(24,656,o),
(73,714,o),
(189,714,cs),
(282,714,o),
(343,669,o),
(343,609,cs),
(343,566,o),
(318,542,o),
(275,533,c),
(275,530,l),
(324,517,o),
(349,490,o),
(349,449,cs),
(349,386,o),
(285,348,o),
(189,348,cs)
);
}
);
width = 374;
},
{
layerId = "E4D0624D-8000-4CFF-8595-BC700BCBE458";
shapes = (
{
closed = 1;
nodes = (
(80,347,o),
(32,384,o),
(26,454,c),
(96,454,l),
(101,414,o),
(127,400,o),
(161,400,cs),
(200,400,o),
(224,419,o),
(224,453,cs),
(224,488,o),
(196,507,o),
(157,507,cs),
(112,507,l),
(112,550,l),
(156,550,ls),
(194,550,o),
(222,569,o),
(222,604,cs),
(222,636,o),
(197,657,o),
(160,657,cs),
(122,657,o),
(102,639,o),
(95,610,c),
(30,610,l),
(35,667,o),
(82,710,o),
(166,710,cs),
(239,710,o),
(295,667,o),
(295,608,cs),
(295,567,o),
(271,540,o),
(231,529,c),
(231,526,l),
(270,515,o),
(298,487,o),
(298,444,cs),
(298,391,o),
(247,347,o),
(163,347,cs)
);
}
);
width = 332;
},
{
layerId = "E70FFCB9-C703-4CAE-9CF8-4537993847F6";
shapes = (
{
closed = 1;
nodes = (
(84,347,o),
(37,380,o),
(30,448,c),
(75,448,l),
(82,400,o),
(113,384,o),
(153,384,cs),
(200,384,o),
(229,407,o),
(229,446,cs),
(229,486,o),
(196,508,o),
(151,508,cs),
(101,508,l),
(101,545,l),
(152,545,ls),
(195,545,o),
(228,568,o),
(228,608,cs),
(228,645,o),
(198,670,o),
(154,670,cs),
(109,670,o),
(85,649,o),
(76,617,c),
(33,617,l),
(40,672,o),
(86,708,o),
(157,708,cs),
(222,708,o),
(276,666,o),
(276,608,cs),
(276,567,o),
(252,539,o),
(213,527,c),
(213,525,l),
(248,514,o),
(278,486,o),
(278,442,cs),
(278,393,o),
(232,347,o),
(152,347,cs)
);
}
);
width = 315;
}
);
unicode = 179;
}
{
glyphname = acute;
layers = (
{
layerId = "801975A8-2B28-48D2-ACC9-91C57621CBC0";
shapes = (
{
closed = 1;
nodes = (
(10,534,l),
(10,652,l),
(251,768,l),
(251,635,l)
);
}
);
width = 261;
},
{
layerId = "108F7D4A-630E-4424-A5B2-B42F8C482EB9";
shapes = (
{
closed = 1;
nodes = (
(21,538,l),
(21,603,l),
(233,729,l),
(233,653,l)
);
}
);
width = 255;
},
{
layerId = "565F47C8-0ABB-4A45-ACC1-9062093877DB";
shapes = (
{
closed = 1;
nodes = (
(26,539,l),
(26,583,l),
(226,713,l),
(226,660,l)
);
}
);
width = 252;
}
);
unicode = 180;
}
{
glyphname = mu;
layers = (
{
layerId = "3C0957B3-9451-4BAD-AE3B-C8576C323C81";
shapes = (
{
closed = 1;
nodes = (
(63,-222,l),
(63,500,l),
(235,500,l),
(235,243,ls),
(235,175,o),
(257,132,o),
(324,132,cs),
(381,132,o),
(420,175,o),
(420,243,cs),
(420,500,l),
(593,500,l),
(593,0,l),
(443,0,l),
(428,80,l),
(397,25,o),
(343,-12,o),
(260,-12,cs),
(251,-12,o),
(243,-12,o),
(235,-11,c),
(235,-222,l)
);
}
);
width = 655;
},
{
layerId = "C91D2DC0-8AAD-4B21-B0E6-07AA6617D11E";
shapes = (
{
closed = 1;
nodes = (
(69,-222,l),
(69,500,l),
(158,500,l),
(158,219,ls),
(158,116,o),
(202,64,o),
(285,64,cs),
(370,64,o),
(433,128,o),
(433,242,cs),
(433,500,l),
(522,500,l),
(522,0,l),
(442,0,l),
(436,89,l),
(403,25,o),
(342,-12,o),
(264,-12,cs),
(221,-12,o),
(186,-2,o),
(158,18,c),
(158,-222,l)
);
}
);
width = 591;
},
{
layerId = "972C881F-D909-4F62-92A5-F720CB79AC7E";
shapes = (
{
closed = 1;
nodes = (
(72,-222,l),
(72,500,l),
(127,500,l),
(127,209,ls),
(127,92,o),
(180,37,o),
(269,37,cs),
(365,37,o),
(438,109,o),
(438,241,cs),
(438,500,l),
(493,500,l),
(493,0,l),
(442,0,l),
(439,93,l),
(406,25,o),
(341,-12,o),
(265,-12,cs),
(209,-12,o),
(163,2,o),
(127,30,c),
(127,-222,l)
);
}
);
width = 565;
}
);
unicode = 181;
}
{
glyphname = paragraph;
layers = (
{
layerId = "3C0957B3-9451-4BAD-AE3B-C8576C323C81";
shapes = (
{
closed = 1;
nodes = (
(288,-100,l),
(288,271,l),
(265,271,ls),
(181,271,o),
(121,297,o),
(83,337,cs),
(45,376,o),
(27,429,o),
(27,485,cs),
(27,541,o),
(45,594,o),
(83,634,cs),
(121,674,o),
(181,700,o),
(265,700,cs),
(632,700,l),
(632,-100,l),
(491,-100,l),
(491,570,l),
(429,570,l),
(429,-100,l)
);
}
);
width = 694;
},
{
layerId = "C91D2DC0-8AAD-4B21-B0E6-07AA6617D11E";
shapes = (
{
closed = 1;
nodes = (
(282,-100,l),
(282,294,l),
(271,294,ls),
(190,294,o),
(131,316,o),
(92,353,cs),
(54,390,o),
(36,440,o),
(36,496,cs),
(36,555,o),
(54,605,o),
(94,641,c),
(132,678,o),
(191,700,o),
(271,700,cs),
(518,700,l),
(518,-100,l),
(441,-100,l),
(441,631,l),
(359,631,l),
(359,-100,l)
);
}
);
width = 591;
},
{
layerId = "972C881F-D909-4F62-92A5-F720CB79AC7E";
shapes = (
{
closed = 1;
nodes = (
(280,-100,l),
(280,303,l),
(274,303,ls),
(194,303,o),
(135,324,o),
(96,360,cs),
(57,395,o),
(39,444,o),
(39,501,cs),
(39,560,o),
(58,609,o),
(98,644,cs),
(137,679,o),
(195,700,o),
(274,700,cs),
(472,700,l),
(472,-100,l),
(421,-100,l),
(421,655,l),
(331,655,l),
(331,-100,l)
);
}
);
width = 550;
}
);
unicode = 182;
}
{
glyphname = periodcentered;
layers = (
{
layerId = "F6FB205E-B3AB-4819-9CAF-AB538C51B80E";
shapes = (
{
closed = 1;
nodes = (
(81,222,o),
(40,263,o),
(40,314,cs),
(40,367,o),
(81,408,o),
(142,408,cs),
(202,408,o),
(243,367,o),
(243,314,cs),
(243,263,o),
(202,222,o),
(142,222,cs)
);
}
);
width = 283;
},
{
layerId = "36B3D2C2-B8FB-4E59-BDB1-E262A6063C52";
shapes = (
{
closed = 1;
nodes = (
(65,282,o),
(40,307,o),
(40,341,cs),
(40,374,o),
(65,400,o),
(100,400,cs),
(134,400,o),
(159,374,o),
(159,341,cs),
(159,307,o),
(134,282,o),
(100,282,cs)
);
}
);
width = 199;
},
{
layerId = "0C974A3A-E5A4-4FB7-A898-B0FABB9FC9C2";
shapes = (
{
closed = 1;
nodes = (
(59,306,o),
(40,325,o),
(40,352,cs),
(40,377,o),
(59,397,o),
(83,397,cs),
(107,397,o),
(126,377,o),
(126,352,cs),
(126,325,o),
(107,306,o),
(83,306,cs)
);
}
);
width = 166;
}
);
unicode = 183;
}
{
glyphname = cedilla;
layers = (
{
layerId = "F6FB205E-B3AB-4819-9CAF-AB538C51B80E";
shapes = (
{
closed = 1;
nodes = (
(10,-267,l),
(10,-173,l),
(141,-173,ls),
(166,-173,o),
(181,-167,o),
(181,-147,cs),
(181,-128,o),
(166,-122,o),
(141,-122,cs),
(70,-122,l),
(70,7,l),
(173,7,l),
(173,-37,l),
(233,-37,o),
(303,-67,o),
(303,-151,cs),
(303,-234,o),
(233,-267,o),
(164,-267,cs)
);
}
);
width = 313;
},
{
layerId = "36B3D2C2-B8FB-4E59-BDB1-E262A6063C52";
shapes = (
{
closed = 1;
nodes = (
(21,-260,l),
(21,-204,l),
(115,-204,ls),
(162,-204,o),
(182,-189,o),
(182,-158,cs),
(182,-129,o),
(162,-114,o),
(115,-114,cs),
(65,-114,l),
(65,7,l),
(124,7,l),
(124,-62,l),
(199,-60,o),
(252,-92,o),
(252,-158,cs),
(252,-223,o),
(202,-260,o),
(131,-260,cs)
);
}
);
width = 274;
},
{
layerId = "0C974A3A-E5A4-4FB7-A898-B0FABB9FC9C2";
shapes = (
{
closed = 1;
nodes = (
(26,-257,l),
(26,-217,l),
(105,-217,ls),
(160,-217,o),
(182,-198,o),
(182,-162,cs),
(182,-129,o),
(160,-111,o),
(105,-111,cs),
(63,-111,l),
(63,7,l),
(104,7,l),
(104,-72,l),
(185,-69,o),
(232,-102,o),
(232,-161,cs),
(232,-218,o),
(189,-257,o),
(118,-257,cs)
);
}
);
width = 258;
}
);
unicode = 184;
}
{
glyphname = onesuperior;
layers = (
{
layerId = "BB5B5596-5E1F-4BCA-852B-56C614C2EA8E";
shapes = (
{
closed = 1;
nodes = (
(92,352,l),
(92,585,l),
(20,571,l),
(20,650,l),
(152,704,l),
(221,704,l),
(221,352,l)
);
}
);
width = 261;
},
{
layerId = "E4D0624D-8000-4CFF-8595-BC700BCBE458";
shapes = (
{
closed = 1;
nodes = (
(94,352,l),
(94,636,l),
(27,618,l),
(27,661,l),
(120,704,l),
(165,704,l),
(165,352,l)
);
}
);
width = 207;
},
{
layerId = "E70FFCB9-C703-4CAE-9CF8-4537993847F6";
shapes = (
{
closed = 1;
nodes = (
(95,352,l),
(95,656,l),
(30,637,l),
(30,666,l),
(107,704,l),
(142,704,l),
(142,352,l)
);
}
);
width = 185;
}
);
unicode = 185;
}
{
glyphname = ordmasculine;
layers = (
{
layerId = "801975A8-2B28-48D2-ACC9-91C57621CBC0";
shapes = (
{
closed = 1;
nodes = (
(105,350,o),
(25,425,o),
(25,532,cs),
(25,639,o),
(106,712,o),
(229,712,cs),
(352,712,o),
(433,639,o),
(433,532,cs),
(433,425,o),
(350,350,o),
(228,350,cs)
);
},
{
closed = 1;
nodes = (
(267,450,o),
(301,476,o),
(301,531,cs),
(301,587,o),
(267,613,o),
(228,613,cs),
(189,613,o),
(157,587,o),
(157,531,cs),
(157,476,o),
(189,450,o),
(228,450,cs)
);
}
);
width = 458;
},
{
layerId = "108F7D4A-630E-4424-A5B2-B42F8C482EB9";
shapes = (
{
closed = 1;
nodes = (
(110,349,o),
(34,422,o),
(34,531,cs),
(34,639,o),
(112,712,o),
(218,712,cs),
(324,712,o),
(402,639,o),
(402,531,cs),
(402,422,o),
(323,349,o),
(217,349,cs)
);
},
{
closed = 1;
nodes = (
(277,405,o),
(330,449,o),
(330,530,cs),
(330,613,o),
(277,657,o),
(217,657,cs),
(156,657,o),
(106,613,o),
(106,530,cs),
(106,449,o),
(156,405,o),
(217,405,cs)
);
}
);
width = 434;
},
{
layerId = "565F47C8-0ABB-4A45-ACC1-9062093877DB";
shapes = (
{
closed = 1;
nodes = (
(112,348,o),
(37,421,o),
(37,530,cs),
(37,639,o),
(114,712,o),
(213,712,cs),
(313,712,o),
(389,639,o),
(389,530,cs),
(389,421,o),
(312,348,o),
(212,348,cs)
);
},
{
closed = 1;
nodes = (
(281,387,o),
(341,438,o),
(341,530,cs),
(341,623,o),
(281,674,o),
(212,674,cs),
(143,674,o),
(85,623,o),
(85,530,cs),
(85,438,o),
(143,387,o),
(212,387,cs)
);
}
);
width = 425;
}
);
unicode = 186;
}
{
glyphname = guillemotright;
layers = (
{
layerId = "F6FB205E-B3AB-4819-9CAF-AB538C51B80E";
shapes = (
{
closed = 1;
nodes = (
(275,120,l),
(362,295,l),
(275,470,l),
(433,470,l),
(517,295,l),
(433,120,l)
);
},
{
closed = 1;
nodes = (
(50,120,l),
(137,295,l),
(50,470,l),
(208,470,l),
(292,295,l),
(208,120,l)
);
}
);
width = 557;
},
{
layerId = "36B3D2C2-B8FB-4E59-BDB1-E262A6063C52";
shapes = (
{
closed = 1;
nodes = (
(230,120,l),
(329,295,l),
(230,470,l),
(317,470,l),
(413,295,l),
(317,120,l)
);
},
{
closed = 1;
nodes = (
(50,120,l),
(149,295,l),
(50,470,l),
(137,470,l),
(233,295,l),
(137,120,l)
);
}
);
width = 457;
},
{
layerId = "0C974A3A-E5A4-4FB7-A898-B0FABB9FC9C2";
shapes = (
{
closed = 1;
nodes = (
(212,120,l),
(316,295,l),
(212,470,l),
(270,470,l),
(371,295,l),
(270,120,l)
);
},
{
closed = 1;
nodes = (
(50,120,l),
(154,295,l),
(50,470,l),
(108,470,l),
(209,295,l),
(108,120,l)
);
}
);
width = 417;
}
);
unicode = 187;
}
{
glyphname = onequarter;
layers = (
{
layerId = "801975A8-2B28-48D2-ACC9-91C57621CBC0";
shapes = (
{
closed = 1;
nodes = (
(112,352,l),
(112,585,l),
(40,571,l),
(40,650,l),
(172,704,l),
(241,704,l),
(241,352,l)
);
},
{
closed = 1;
nodes = (
(88,0,l),
(472,700,l),
(637,700,l),
(253,0,l)
);
},
{
closed = 1;
nodes = (
(587,0,l),
(587,62,l),
(392,62,l),
(392,130,l),
(538,352,l),
(716,352,l),
(716,135,l),
(756,135,l),
(756,62,l),
(716,62,l),
(716,0,l)
);
},
{
closed = 1;
nodes = (
(515,138,l),
(593,138,l),
(593,267,l)
);
}
);
width = 786;
},
{
layerId = "108F7D4A-630E-4424-A5B2-B42F8C482EB9";
shapes = (
{
closed = 1;
nodes = (
(105,352,l),
(105,636,l),
(38,618,l),
(38,661,l),
(131,704,l),
(175,704,l),
(175,352,l)
);
},
{
closed = 1;
nodes = (
(62,0,l),
(433,700,l),
(516,700,l),
(147,0,l)
);
},
{
closed = 1;
nodes = (
(481,0,l),
(481,69,l),
(299,69,l),
(299,110,l),
(459,353,l),
(551,353,l),
(551,114,l),
(600,114,l),
(600,69,l),
(551,69,l),
(551,0,l)
);
},
{
closed = 1;
nodes = (
(369,115,l),
(483,115,l),
(483,291,l)
);
}
);
width = 632;
},
{
layerId = "565F47C8-0ABB-4A45-ACC1-9062093877DB";
shapes = (
{
closed = 1;
nodes = (
(102,352,l),
(102,656,l),
(37,637,l),
(37,666,l),
(114,704,l),
(149,704,l),
(149,352,l)
);
},
{
closed = 1;
nodes = (
(52,0,l),
(417,700,l),
(468,700,l),
(105,0,l)
);
},
{
closed = 1;
nodes = (
(439,0,l),
(439,72,l),
(262,72,l),
(262,102,l),
(428,354,l),
(485,354,l),
(485,106,l),
(537,106,l),
(537,72,l),
(485,72,l),
(485,0,l)
);
},
{
closed = 1;
nodes = (
(311,106,l),
(439,106,l),
(439,300,l)
);
}
);
width = 571;
}
);
unicode = 188;
}
{
glyphname = onehalf;
layers = (
{
layerId = "3C0957B3-9451-4BAD-AE3B-C8576C323C81";
shapes = (
{
closed = 1;
nodes = (
(112,352,l),
(112,585,l),
(40,571,l),
(40,650,l),
(172,704,l),
(241,704,l),
(241,352,l)
);
},
{
closed = 1;
nodes = (
(88,0,l),
(471,700,l),
(636,700,l),
(253,0,l)
);
},
{
closed = 1;
nodes = (
(448,-1,l),
(448,95,l),
(570,169,l),
(607,193,o),
(626,214,o),
(626,241,cs),
(626,260,o),
(618,269,o),
(601,269,cs),
(583,269,o),
(573,257,o),
(571,233,c),
(443,233,l),
(448,309,o),
(509,361,o),
(614,361,cs),
(718,361,o),
(762,304,o),
(762,250,cs),
(762,201,o),
(728,169,o),
(644,129,cs),
(583,99,l),
(757,99,l),
(757,-1,l)
);
}
);
width = 821;
},
{
layerId = "C91D2DC0-8AAD-4B21-B0E6-07AA6617D11E";
shapes = (
{
closed = 1;
nodes = (
(105,352,l),
(105,636,l),
(38,618,l),
(38,661,l),
(131,704,l),
(175,704,l),
(175,352,l)
);
},
{
closed = 1;
nodes = (
(59,0,l),
(422,700,l),
(507,700,l),
(143,0,l)
);
},
{
closed = 1;
nodes = (
(369,-1,l),
(369,49,l),
(482,140,ls),
(521,172,o),
(550,203,o),
(550,247,cs),
(550,286,o),
(526,304,o),
(496,304,cs),
(462,304,o),
(442,285,o),
(437,246,c),
(367,246,l),
(372,308,o),
(415,357,o),
(500,357,cs),
(578,357,o),
(623,309,o),
(623,250,cs),
(623,195,o),
(590,159,o),
(526,113,c),
(449,55,l),
(627,55,l),
(627,-1,l)
);
}
);
width = 681;
},
{
layerId = "972C881F-D909-4F62-92A5-F720CB79AC7E";
shapes = (
{
closed = 1;
nodes = (
(102,352,l),
(102,656,l),
(37,637,l),
(37,666,l),
(114,704,l),
(149,704,l),
(149,352,l)
);
},
{
closed = 1;
nodes = (
(47,0,l),
(403,700,l),
(456,700,l),
(99,0,l)
);
},
{
closed = 1;
nodes = (
(337,-1,l),
(337,31,l),
(447,129,ls),
(486,164,o),
(519,198,o),
(519,249,cs),
(519,296,o),
(489,318,o),
(454,318,cs),
(413,318,o),
(389,296,o),
(383,251,c),
(337,251,l),
(341,308,o),
(378,355,o),
(454,355,cs),
(522,355,o),
(567,311,o),
(567,250,cs),
(567,193,o),
(535,155,o),
(479,107,c),
(395,38,l),
(575,38,l),
(575,-1,l)
);
}
);
width = 625;
}
);
unicode = 189;
}
{
glyphname = threequarters;
layers = (
{
layerId = "801975A8-2B28-48D2-ACC9-91C57621CBC0";
shapes = (
{
closed = 1;
nodes = (
(105,348,o),
(55,395,o),
(50,470,c),
(183,470,l),
(185,449,o),
(196,439,o),
(216,439,cs),
(235,439,o),
(247,448,o),
(247,471,cs),
(247,494,o),
(232,505,o),
(208,505,cs),
(174,505,l),
(174,561,l),
(202,561,ls),
(228,561,o),
(241,572,o),
(241,594,cs),
(241,613,o),
(231,623,o),
(210,623,cs),
(191,623,o),
(181,613,o),
(178,592,c),
(56,592,l),
(59,656,o),
(108,714,o),
(224,714,cs),
(317,714,o),
(378,669,o),
(378,609,cs),
(378,566,o),
(353,542,o),
(310,533,c),
(310,530,l),
(359,517,o),
(384,490,o),
(384,449,cs),
(384,386,o),
(320,348,o),
(224,348,cs)
);
},
{
closed = 1;
nodes = (
(203,0,l),
(586,700,l),
(751,700,l),
(368,0,l)
);
},
{
closed = 1;
nodes = (
(702,0,l),
(702,62,l),
(507,62,l),
(507,130,l),
(642,352,l),
(831,352,l),
(831,135,l),
(871,135,l),
(871,62,l),
(831,62,l),
(831,0,l)
);
},
{
closed = 1;
nodes = (
(630,135,l),
(708,135,l),
(708,277,l)
);
}
);
width = 901;
},
{
layerId = "108F7D4A-630E-4424-A5B2-B42F8C482EB9";
shapes = (
{
closed = 1;
nodes = (
(94,347,o),
(46,384,o),
(40,454,c),
(110,454,l),
(116,414,o),
(141,400,o),
(175,400,cs),
(214,400,o),
(238,419,o),
(238,453,cs),
(238,488,o),
(211,507,o),
(172,507,cs),
(126,507,l),
(126,550,l),
(171,550,ls),
(209,550,o),
(236,569,o),
(236,604,cs),
(236,636,o),
(212,657,o),
(174,657,cs),
(137,657,o),
(117,639,o),
(109,610,c),
(44,610,l),
(50,667,o),
(97,710,o),
(180,710,cs),
(253,710,o),
(309,667,o),
(309,608,cs),
(309,567,o),
(285,540,o),
(245,529,c),
(245,526,l),
(284,515,o),
(313,487,o),
(313,444,cs),
(313,391,o),
(261,347,o),
(177,347,cs)
);
},
{
closed = 1;
nodes = (
(157,0,l),
(535,700,l),
(618,700,l),
(240,0,l)
);
},
{
closed = 1;
nodes = (
(573,0,l),
(573,69,l),
(391,69,l),
(391,110,l),
(549,353,l),
(643,353,l),
(643,114,l),
(692,114,l),
(692,69,l),
(643,69,l),
(643,0,l)
);
},
{
closed = 1;
nodes = (
(462,114,l),
(576,114,l),
(576,293,l)
);
}
);
width = 725;
},
{
layerId = "565F47C8-0ABB-4A45-ACC1-9062093877DB";
shapes = (
{
closed = 1;
nodes = (
(90,347,o),
(43,380,o),
(36,448,c),
(81,448,l),
(88,400,o),
(119,384,o),
(159,384,cs),
(206,384,o),
(235,407,o),
(235,446,cs),
(235,486,o),
(202,508,o),
(157,508,cs),
(107,508,l),
(107,545,l),
(158,545,ls),
(201,545,o),
(234,568,o),
(234,608,cs),
(234,645,o),
(204,670,o),
(160,670,cs),
(115,670,o),
(91,649,o),
(82,617,c),
(39,617,l),
(46,672,o),
(92,708,o),
(163,708,cs),
(228,708,o),
(282,666,o),
(282,608,cs),
(282,567,o),
(258,539,o),
(219,527,c),
(219,525,l),
(254,514,o),
(284,486,o),
(284,442,cs),
(284,393,o),
(238,347,o),
(158,347,cs)
);
},
{
closed = 1;
nodes = (
(138,0,l),
(514,700,l),
(565,700,l),
(189,0,l)
);
},
{
closed = 1;
nodes = (
(522,0,l),
(522,72,l),
(345,72,l),
(345,102,l),
(512,354,l),
(568,354,l),
(568,106,l),
(620,106,l),
(620,72,l),
(568,72,l),
(568,0,l)
);
},
{
closed = 1;
nodes = (
(395,106,l),
(523,106,l),
(523,299,l)
);
}
);
width = 654;
}
);
unicode = 190;
}
{
glyphname = Acircumflex;
layers = (
{
layerId = "F6FB205E-B3AB-4819-9CAF-AB538C51B80E";
shapes = (
{
closed = 1;
nodes = (
(16,0,l),
(270,700,l),
(468,700,l),
(722,0,l),
(541,0,l),
(492,144,l),
(244,144,l),
(195,0,l)
);
},
{
closed = 1;
nodes = (
(448,276,l),
(368,511,l),
(289,276,l)
);
},
{
closed = 1;
nodes = (
(214,738,l),
(214,856,l),
(369,935,l),
(524,856,l),
(524,738,l),
(369,820,l)
);
}
);
width = 738;
},
{
layerId = "36B3D2C2-B8FB-4E59-BDB1-E262A6063C52";
shapes = (
{
closed = 1;
nodes = (
(29,0,l),
(287,700,l),
(381,700,l),
(638,0,l),
(545,0,l),
(481,178,l),
(186,178,l),
(122,0,l)
);
},
{
closed = 1;
nodes = (
(456,250,l),
(334,590,l),
(211,250,l)
);
},
{
closed = 1;
nodes = (
(197,754,l),
(197,822,l),
(335,904,l),
(473,822,l),
(473,754,l),
(335,838,l)
);
}
);
width = 667;
},
{
layerId = "0C974A3A-E5A4-4FB7-A898-B0FABB9FC9C2";
shapes = (
{
closed = 1;
nodes = (
(34,0,l),
(294,700,l),
(346,700,l),
(605,0,l),
(547,0,l),
(476,192,l),
(163,192,l),
(93,0,l)
);
},
{
closed = 1;
nodes = (
(459,239,l),
(320,621,l),
(180,239,l)
);
},
{
closed = 1;
nodes = (
(190,761,l),
(190,809,l),
(321,891,l),
(452,809,l),
(452,761,l),
(321,845,l)
);
}
);
width = 639;
}
);
leftKerningGroup = A2;
rightKerningGroup = A;
unicode = 194;
}
{
glyphname = AE;
layers = (
{
layerId = "3C0957B3-9451-4BAD-AE3B-C8576C323C81";
shapes = (
{
closed = 1;
nodes = (
(16,0,l),
(375,700,l),
(916,700,l),
(916,565,l),
(663,565,l),
(663,423,l),
(886,423,l),
(886,293,l),
(663,293,l),
(663,135,l),
(916,135,l),
(916,0,l),
(492,0,l),
(492,118,l),
(261,118,l),
(201,0,l)
);
},
{
closed = 1;
nodes = (
(492,248,l),
(492,573,l),
(327,248,l)
);
}
);
width = 966;
},
{
layerId = "C91D2DC0-8AAD-4B21-B0E6-07AA6617D11E";
shapes = (
{
closed = 1;
nodes = (
(29,0,l),
(426,700,l),
(857,700,l),
(857,630,l),
(569,630,l),
(569,388,l),
(827,388,l),
(827,319,l),
(569,319,l),
(569,70,l),
(857,70,l),
(857,0,l),
(481,0,l),
(481,157,l),
(215,157,l),
(125,0,l)
);
},
{
closed = 1;
nodes = (
(481,227,l),
(481,628,l),
(253,227,l)
);
}
);
width = 913;
},
{
layerId = "972C881F-D909-4F62-92A5-F720CB79AC7E";
shapes = (
{
closed = 1;
nodes = (
(34,0,l),
(447,700,l),
(833,700,l),
(833,656,l),
(532,656,l),
(532,374,l),
(803,374,l),
(803,329,l),
(532,329,l),
(532,44,l),
(833,44,l),
(833,0,l),
(477,0,l),
(477,173,l),
(197,173,l),
(95,0,l)
);
},
{
closed = 1;
nodes = (
(477,218,l),
(477,650,l),
(223,218,l)
);
}
);
width = 892;
}
);
leftKerningGroup = AE;
unicode = 198;
}
{
glyphname = Ecircumflex;
layers = (
{
layerId = "801975A8-2B28-48D2-ACC9-91C57621CBC0";
shapes = (
{
closed = 1;
nodes = (
(62,0,l),
(62,700,l),
(542,700,l),
(542,563,l),
(233,563,l),
(233,423,l),
(512,423,l),
(512,291,l),
(233,291,l),
(233,137,l),
(542,137,l),
(542,0,l)
);
},
{
closed = 1;
nodes = (
(148,738,l),
(148,856,l),
(303,935,l),
(458,856,l),
(458,738,l),
(303,820,l)
);
}
);
width = 592;
},
{
layerId = "108F7D4A-630E-4424-A5B2-B42F8C482EB9";
shapes = (
{
closed = 1;
nodes = (
(73,0,l),
(73,700,l),
(508,700,l),
(508,628,l),
(162,628,l),
(162,389,l),
(478,389,l),
(478,317,l),
(162,317,l),
(162,72,l),
(508,72,l),
(508,0,l)
);
},
{
closed = 1;
nodes = (
(158,754,l),
(158,822,l),
(296,904,l),
(434,822,l),
(434,754,l),
(296,838,l)
);
}
);
width = 565;
},
{
layerId = "565F47C8-0ABB-4A45-ACC1-9062093877DB";
shapes = (
{
closed = 1;
nodes = (
(78,0,l),
(78,700,l),
(495,700,l),
(495,654,l),
(133,654,l),
(133,375,l),
(465,375,l),
(465,328,l),
(133,328,l),
(133,46,l),
(495,46,l),
(495,0,l)
);
},
{
closed = 1;
nodes = (
(162,761,l),
(162,809,l),
(293,891,l),
(424,809,l),
(424,761,l),
(293,845,l)
);
}
);
width = 554;
}
);
unicode = 202;
}
{
glyphname = Eth;
layers = (
{
layerId = "801975A8-2B28-48D2-ACC9-91C57621CBC0";
shapes = (
{
closed = 1;
nodes = (
(62,0,l),
(62,280,l),
(4,280,l),
(4,422,l),
(62,422,l),
(62,700,l),
(325,700,ls),
(569,700,o),
(683,558,o),
(683,351,cs),
(683,143,o),
(569,0,o),
(325,0,cs)
);
},
{
closed = 1;
nodes = (
(233,422,l),
(391,422,l),
(391,280,l),
(233,280,l),
(233,148,l),
(314,148,ls),
(463,148,o),
(509,222,o),
(509,351,cs),
(509,478,o),
(463,554,o),
(314,554,cs),
(233,554,l)
);
}
);
width = 731;
},
{
layerId = "108F7D4A-630E-4424-A5B2-B42F8C482EB9";
shapes = (
{
closed = 1;
nodes = (
(73,0,l),
(73,309,l),
(8,309,l),
(8,388,l),
(73,388,l),
(73,700,l),
(291,700,ls),
(537,700,o),
(650,567,o),
(650,349,cs),
(650,133,o),
(537,0,o),
(291,0,cs)
);
},
{
closed = 1;
nodes = (
(162,388,l),
(381,388,l),
(381,309,l),
(162,309,l),
(162,74,l),
(288,74,ls),
(489,74,o),
(560,178,o),
(560,349,cs),
(560,521,o),
(489,626,o),
(288,626,cs),
(162,626,l)
);
}
);
width = 718;
},
{
layerId = "565F47C8-0ABB-4A45-ACC1-9062093877DB";
shapes = (
{
closed = 1;
nodes = (
(78,0,l),
(78,321,l),
(10,321,l),
(10,375,l),
(78,375,l),
(78,700,l),
(277,700,ls),
(524,700,o),
(637,571,o),
(637,348,cs),
(637,129,o),
(524,0,o),
(277,0,cs)
);
},
{
closed = 1;
nodes = (
(133,375,l),
(377,375,l),
(377,321,l),
(133,321,l),
(133,45,l),
(278,45,ls),
(499,45,o),
(580,160,o),
(580,348,cs),
(580,538,o),
(499,655,o),
(278,655,cs),
(133,655,l)
);
}
);
width = 713;
}
);
rightKerningGroup = D;
unicode = 208;
}
{
glyphname = Ocircumflex;
layers = (
{
layerId = "3C0957B3-9451-4BAD-AE3B-C8576C323C81";
shapes = (
{
closed = 1;
nodes = (
(188,-12,o),
(43,137,o),
(43,350,cs),
(43,563,o),
(188,712,o),
(399,712,cs),
(610,712,o),
(755,563,o),
(755,350,cs),
(755,137,o),
(610,-12,o),
(399,-12,cs)
);
},
{
closed = 1;
nodes = (
(512,143,o),
(581,222,o),
(581,350,cs),
(581,478,o),
(512,557,o),
(399,557,cs),
(286,557,o),
(217,478,o),
(217,350,cs),
(217,222,o),
(286,143,o),
(399,143,cs)
);
},
{
closed = 1;
nodes = (
(245,738,l),
(245,856,l),
(400,935,l),
(555,856,l),
(555,738,l),
(400,820,l)
);
}
);
width = 798;
},
{
layerId = "C91D2DC0-8AAD-4B21-B0E6-07AA6617D11E";
shapes = (
{
closed = 1;
nodes = (
(186,-12,o),
(47,136,o),
(47,350,cs),
(47,563,o),
(186,712,o),
(393,712,cs),
(599,712,o),
(738,563,o),
(738,350,cs),
(738,136,o),
(599,-12,o),
(393,-12,cs)
);
},
{
closed = 1;
nodes = (
(546,66,o),
(647,173,o),
(647,350,cs),
(647,527,o),
(546,633,o),
(393,633,cs),
(241,633,o),
(138,527,o),
(138,350,cs),
(138,173,o),
(241,66,o),
(393,66,cs)
);
},
{
closed = 1;
nodes = (
(255,754,l),
(255,822,l),
(393,904,l),
(531,822,l),
(531,754,l),
(393,838,l)
);
}
);
width = 785;
},
{
layerId = "972C881F-D909-4F62-92A5-F720CB79AC7E";
shapes = (
{
alignment = -1;
ref = O;
},
{
alignment = -1;
pos = (259,0);
ref = circumflexcomb.cap;
}
);
width = 780;
}
);
leftKerningGroup = C2;
rightKerningGroup = D;
unicode = 212;
}
{
glyphname = multiply;
layers = (
{
layerId = "F6FB205E-B3AB-4819-9CAF-AB538C51B80E";
shapes = (
{
closed = 1;
nodes = (
(150,73,l),
(50,173,l),
(166,289,l),
(50,405,l),
(150,505,l),
(266,389,l),
(382,505,l),
(482,405,l),
(366,289,l),
(482,173,l),
(382,73,l),
(266,189,l)
);
}
);
width = 532;
},
{
layerId = "36B3D2C2-B8FB-4E59-BDB1-E262A6063C52";
shapes = (
{
closed = 1;
nodes = (
(115,104,l),
(62,157,l),
(195,290,l),
(67,419,l),
(121,471,l),
(249,343,l),
(382,477,l),
(434,425,l),
(301,290,l),
(430,162,l),
(376,110,l),
(248,238,l)
);
}
);
width = 497;
},
{
layerId = "0C974A3A-E5A4-4FB7-A898-B0FABB9FC9C2";
shapes = (
{
closed = 1;
nodes = (
(101,117,l),
(67,150,l),
(207,291,l),
(74,425,l),
(109,458,l),
(242,325,l),
(382,466,l),
(415,433,l),
(275,291,l),
(409,158,l),
(374,125,l),
(241,258,l)
);
}
);
width = 483;
}
);
unicode = 215;
}
{
glyphname = Oslash;
layers = (
{
layerId = "801975A8-2B28-48D2-ACC9-91C57621CBC0";
shapes = (
{
closed = 1;
nodes = (
(326,-12,o),
(262,6,o),
(207,37,c),
(176,0,l),
(22,0,l),
(118,115,l),
(70,176,o),
(42,257,o),
(42,350,cs),
(42,563,o),
(187,712,o),
(398,712,cs),
(466,712,o),
(527,696,o),
(579,668,c),
(606,700,l),
(760,700,l),
(671,593,l),
(724,530,o),
(754,447,o),
(754,350,cs),
(754,137,o),
(609,-12,o),
(398,-12,cs)
);
},
{
closed = 1;
nodes = (
(474,542,l),
(452,552,o),
(427,557,o),
(398,557,cs),
(285,557,o),
(216,478,o),
(216,350,cs),
(216,314,o),
(222,282,o),
(233,253,c)
);
},
{
closed = 1;
nodes = (
(511,143,o),
(580,222,o),
(580,350,cs),
(580,392,o),
(573,428,o),
(559,459,c),
(311,162,l),
(338,149,o),
(367,143,o),
(398,143,cs)
);
}
);
width = 782;
},
{
layerId = "108F7D4A-630E-4424-A5B2-B42F8C482EB9";
shapes = (
{
closed = 1;
nodes = (
(309,-12,o),
(237,12,o),
(181,55,c),
(132,0,l),
(38,0,l),
(129,103,l),
(76,166,o),
(47,250,o),
(47,350,cs),
(47,563,o),
(186,712,o),
(392,712,cs),
(477,712,o),
(548,687,o),
(605,643,c),
(655,700,l),
(748,700,l),
(656,596,l),
(708,532,o),
(738,449,o),
(738,350,cs),
(738,136,o),
(599,-12,o),
(392,-12,cs)
);
},
{
closed = 1;
nodes = (
(550,580,l),
(508,616,o),
(456,633,o),
(392,633,cs),
(241,633,o),
(137,527,o),
(137,350,cs),
(137,277,o),
(156,216,o),
(187,171,c)
);
},
{
closed = 1;
nodes = (
(545,66,o),
(647,173,o),
(647,350,cs),
(647,423,o),
(630,483,o),
(598,529,c),
(235,118,l),
(277,83,o),
(330,66,o),
(392,66,cs)
);
}
);
width = 786;
},
{
layerId = "565F47C8-0ABB-4A45-ACC1-9062093877DB";
shapes = (
{
closed = 1;
nodes = (
(302,-12,o),
(227,15,o),
(170,62,c),
(114,0,l),
(45,0,l),
(133,98,l),
(78,162,o),
(49,247,o),
(49,350,cs),
(49,563,o),
(185,712,o),
(390,712,cs),
(482,712,o),
(556,684,o),
(615,633,c),
(675,700,l),
(743,700,l),
(650,597,l),
(702,533,o),
(731,450,o),
(731,350,cs),
(731,135,o),
(595,-12,o),
(390,-12,cs)
);
},
{
closed = 1;
nodes = (
(581,595,l),
(531,641,o),
(467,664,o),
(390,664,cs),
(223,664,o),
(106,546,o),
(106,350,cs),
(106,262,o),
(129,190,o),
(169,138,c)
);
},
{
closed = 1;
nodes = (
(559,35,o),
(674,153,o),
(674,350,cs),
(674,435,o),
(653,505,o),
(614,557,c),
(204,100,l),
(253,57,o),
(315,35,o),
(390,35,cs)
);
}
);
width = 788;
}
);
unicode = 216;
}
{
glyphname = Thorn;
layers = (
{
layerId = "3C0957B3-9451-4BAD-AE3B-C8576C323C81";
shapes = (
{
closed = 1;
nodes = (
(62,0,l),
(62,700,l),
(233,700,l),
(233,575,l),
(349,575,ls),
(521,575,o),
(607,478,o),
(607,349,cs),
(607,233,o),
(529,125,o),
(349,125,cs),
(233,125,l),
(233,0,l)
);
},
{
closed = 1;
nodes = (
(233,261,l),
(336,261,ls),
(404,261,o),
(433,294,o),
(433,349,cs),
(433,404,o),
(404,437,o),
(336,437,cs),
(233,437,l)
);
}
);
width = 634;
},
{
layerId = "C91D2DC0-8AAD-4B21-B0E6-07AA6617D11E";
shapes = (
{
closed = 1;
nodes = (
(73,0,l),
(73,700,l),
(162,700,l),
(162,555,l),
(306,555,ls),
(470,555,o),
(546,467,o),
(546,350,cs),
(546,237,o),
(474,146,o),
(306,146,cs),
(162,146,l),
(162,0,l)
);
},
{
closed = 1;
nodes = (
(162,219,l),
(304,219,ls),
(413,219,o),
(456,269,o),
(456,350,cs),
(456,434,o),
(414,482,o),
(304,482,cs),
(162,482,l)
);
}
);
width = 581;
},
{
layerId = "972C881F-D909-4F62-92A5-F720CB79AC7E";
shapes = (
{
closed = 1;
nodes = (
(78,0,l),
(78,700,l),
(133,700,l),
(133,547,l),
(289,547,ls),
(449,547,o),
(522,463,o),
(522,350,cs),
(522,238,o),
(452,154,o),
(289,154,cs),
(133,154,l),
(133,0,l)
);
},
{
closed = 1;
nodes = (
(133,202,l),
(291,202,ls),
(416,202,o),
(465,259,o),
(465,350,cs),
(465,446,o),
(418,500,o),
(291,500,cs),
(133,500,l)
);
}
);
width = 560;
}
);
unicode = 222;
}
{
glyphname = germandbls;
layers = (
{
layerId = "F6FB205E-B3AB-4819-9CAF-AB538C51B80E";
shapes = (
{
closed = 1;
nodes = (
(376,-10,o),
(292,58,o),
(276,182,c),
(434,182,l),
(441,141,o),
(467,115,o),
(508,115,cs),
(546,115,o),
(565,130,o),
(565,159,cs),
(565,188,o),
(549,207,o),
(481,231,cs),
(368,271,o),
(321,308,o),
(321,369,cs),
(321,456,o),
(432,465,o),
(432,529,cs),
(432,572,o),
(396,595,o),
(340,595,cs),
(267,595,o),
(234,555,o),
(234,490,cs),
(234,0,l),
(63,0,l),
(63,502,ls),
(63,642,o),
(170,738,o),
(349,738,cs),
(504,738,o),
(604,655,o),
(604,548,cs),
(604,463,o),
(493,437,o),
(493,397,cs),
(493,379,o),
(504,367,o),
(586,338,c),
(690,298,o),
(731,250,o),
(731,169,cs),
(731,63,o),
(645,-10,o),
(511,-10,cs)
);
}
);
width = 755;
},
{
layerId = "36B3D2C2-B8FB-4E59-BDB1-E262A6063C52";
shapes = (
{
closed = 1;
nodes = (
(332,-10,o),
(253,58,o),
(242,171,c),
(328,171,l),
(335,104,o),
(378,59,o),
(447,59,cs),
(511,59,o),
(546,92,o),
(546,146,cs),
(546,194,o),
(520,223,o),
(443,247,c),
(337,284,o),
(294,317,o),
(294,378,cs),
(294,479,o),
(436,474,o),
(436,565,cs),
(436,626,o),
(386,664,o),
(304,664,cs),
(206,664,o),
(160,607,o),
(160,515,cs),
(160,0,l),
(72,0,l),
(72,523,ls),
(72,648,o),
(151,738,o),
(306,738,cs),
(446,738,o),
(525,661,o),
(525,572,cs),
(525,456,o),
(384,453,o),
(384,390,cs),
(384,360,o),
(405,339,o),
(497,310,c),
(596,277,o),
(636,229,o),
(636,152,cs),
(636,56,o),
(566,-10,o),
(447,-10,cs)
);
}
);
width = 673;
},
{
layerId = "0C974A3A-E5A4-4FB7-A898-B0FABB9FC9C2";
shapes = (
{
closed = 1;
nodes = (
(314,-10,o),
(238,58,o),
(228,166,c),
(286,166,l),
(293,89,o),
(342,37,o),
(422,37,cs),
(497,37,o),
(539,77,o),
(539,141,cs),
(539,197,o),
(509,229,o),
(428,254,c),
(324,289,o),
(283,321,o),
(283,381,cs),
(283,488,o),
(438,478,o),
(438,579,cs),
(438,647,o),
(382,691,o),
(290,691,cs),
(181,691,o),
(130,628,o),
(130,525,cs),
(130,0,l),
(75,0,l),
(75,532,ls),
(75,650,o),
(143,738,o),
(289,738,cs),
(423,738,o),
(493,664,o),
(493,582,cs),
(493,453,o),
(340,459,o),
(340,387,cs),
(340,353,o),
(365,328,o),
(462,299,c),
(558,268,o),
(598,221,o),
(598,145,cs),
(598,53,o),
(534,-10,o),
(422,-10,cs)
);
}
);
width = 640;
}
);
unicode = 223;
}
{
glyphname = acircumflex;
widthMetricsKey = a;
layers = (
{
layerId = "3C0957B3-9451-4BAD-AE3B-C8576C323C81";
shapes = (
{
closed = 1;
nodes = (
(417,0,l),
(395,69,l),
(364,20,o),
(316,-12,o),
(239,-12,cs),
(109,-12,o),
(50,53,o),
(50,136,cs),
(50,221,o),
(111,289,o),
(268,289,cs),
(387,289,l),
(387,307,ls),
(387,357,o),
(350,374,o),
(309,374,cs),
(268,374,o),
(236,359,o),
(229,324,c),
(65,324,l),
(73,434,o),
(168,512,o),
(310,512,cs),
(456,512,o),
(559,445,o),
(559,307,cs),
(559,0,l)
);
},
{
closed = 1;
nodes = (
(289,194,ls),
(252,194,o),
(233,177,o),
(233,153,cs),
(233,126,o),
(257,117,o),
(285,117,cs),
(331,117,o),
(378,154,o),
(378,194,c),
(378,194,l)
);
},
{
closed = 1;
nodes = (
(153.081,538.325,l),
(153.081,657.281,l),
(309.337,736.921,l),
(465.592,657.281,l),
(465.592,538.325,l),
(309.337,620.99,l)
);
}
);
width = 616;
},
{
layerId = "C91D2DC0-8AAD-4B21-B0E6-07AA6617D11E";
shapes = (
{
closed = 1;
nodes = (
(412,0,l),
(405,87,l),
(378,31,o),
(325,-12,o),
(237,-12,cs),
(110,-12,o),
(50,58,o),
(50,142,cs),
(50,243,o),
(133,300,o),
(268,300,cs),
(402,300,l),
(402,307,ls),
(402,393,o),
(354,438,o),
(279,438,cs),
(214,438,o),
(162,406,o),
(151,343,c),
(60,343,l),
(72,451,o),
(170,512,o),
(279,512,cs),
(418,512,o),
(491,431,o),
(491,307,cs),
(491,0,l)
);
},
{
closed = 1;
nodes = (
(276,234,ls),
(179,234,o),
(144,196,o),
(144,147,cs),
(144,95,o),
(182,62,o),
(251,62,cs),
(338,62,o),
(399,138,o),
(399,213,cs),
(399,234,l)
);
},
{
closed = 1;
nodes = (
(136.17,554.455,l),
(136.17,623.006,l),
(275.288,705.67,l),
(414.406,623.006,l),
(414.406,554.455,l),
(275.288,639.135,l)
);
}
);
width = 549;
},
{
layerId = "972C881F-D909-4F62-92A5-F720CB79AC7E";
shapes = (
{
alignment = -1;
ref = a;
},
{
alignment = -1;
pos = (104,0);
ref = circumflex;
scale = (1.008,1.008);
}
);
width = 522;
}
);
leftKerningGroup = a2;
rightKerningGroup = a;
unicode = 226;
}
{
glyphname = ae;
layers = (
{
layerId = "F6FB205E-B3AB-4819-9CAF-AB538C51B80E";
shapes = (
{
closed = 1;
nodes = (
(126,-12,o),
(50,55,o),
(50,138,cs),
(50,225,o),
(107,297,o),
(264,297,cs),
(395,297,l),
(395,307,ls),
(395,357,o),
(358,374,o),
(319,374,cs),
(279,374,o),
(248,359,o),
(241,328,c),
(77,328,l),
(85,435,o),
(181,512,o),
(319,512,cs),
(394,512,o),
(457,494,o),
(501,459,c),
(545,492,o),
(603,512,o),
(667,512,cs),
(818,512,o),
(932,410,o),
(932,252,cs),
(932,237,o),
(931,220,o),
(929,203,c),
(573,203,l),
(580,159,o),
(613,127,o),
(666,127,cs),
(707,127,o),
(733,150,o),
(748,177,c),
(921,177,l),
(894,72,o),
(793,-12,o),
(668,-12,cs),
(581,-12,o),
(508,20,o),
(460,76,c),
(418,23,o),
(361,-12,o),
(256,-12,cs)
);
},
{
closed = 1;
nodes = (
(756,298,l),
(752,346,o),
(717,375,o),
(669,375,cs),
(626,375,o),
(591,350,o),
(576,298,c)
);
},
{
closed = 1;
nodes = (
(336,117,o),
(375,152,o),
(385,203,c),
(385,203,l),
(289,203,ls),
(252,203,o),
(233,183,o),
(233,159,cs),
(233,132,o),
(257,117,o),
(285,117,cs)
);
}
);
width = 977;
},
{
layerId = "36B3D2C2-B8FB-4E59-BDB1-E262A6063C52";
shapes = (
{
closed = 1;
nodes = (
(113,-12,o),
(50,59,o),
(50,142,cs),
(50,244,o),
(132,298,o),
(263,298,cs),
(401,298,l),
(401,307,ls),
(401,393,o),
(352,438,o),
(281,438,cs),
(221,438,o),
(171,406,o),
(160,344,c),
(70,344,l),
(81,451,o),
(177,512,o),
(281,512,cs),
(366,512,o),
(428,479,o),
(461,423,c),
(503,481,o),
(569,512,o),
(648,512,cs),
(790,512,o),
(881,403,o),
(881,279,cs),
(881,264,o),
(880,251,o),
(879,232,c),
(492,232,l),
(497,119,o),
(570,62,o),
(646,62,cs),
(721,62,o),
(765,102,o),
(786,165,c),
(872,165,l),
(848,64,o),
(766,-12,o),
(647,-12,cs),
(558,-12,o),
(483,31,o),
(441,105,c),
(401,39,o),
(337,-12,o),
(240,-12,cs)
);
},
{
closed = 1;
nodes = (
(792,299,l),
(788,385,o),
(725,438,o),
(648,438,cs),
(572,438,o),
(505,389,o),
(493,299,c)
);
},
{
closed = 1;
nodes = (
(330,62,o),
(397,135,o),
(400,214,c),
(400,232,l),
(272,232,ls),
(180,232,o),
(144,198,o),
(144,148,cs),
(144,97,o),
(183,62,o),
(246,62,cs)
);
}
);
width = 923;
},
{
layerId = "0C974A3A-E5A4-4FB7-A898-B0FABB9FC9C2";
shapes = (
{
closed = 1;
nodes = (
(108,-12,o),
(50,60,o),
(50,144,cs),
(50,252,o),
(142,299,o),
(263,299,cs),
(404,299,l),
(404,307,ls),
(404,408,o),
(350,463,o),
(266,463,cs),
(198,463,o),
(140,425,o),
(127,350,c),
(67,350,l),
(80,458,o),
(176,512,o),
(266,512,cs),
(355,512,o),
(416,473,o),
(445,408,c),
(486,476,o),
(556,512,o),
(641,512,cs),
(779,512,o),
(860,400,o),
(860,290,cs),
(860,275,o),
(860,264,o),
(859,244,c),
(459,244,l),
(464,103,o),
(553,36,o),
(638,36,cs),
(726,36,o),
(778,83,o),
(801,160,c),
(853,160,l),
(829,61,o),
(755,-12,o),
(638,-12,cs),
(549,-12,o),
(473,36,o),
(433,117,c),
(394,45,o),
(328,-12,o),
(233,-12,cs)
);
},
{
closed = 1;
nodes = (
(807,299,l),
(802,401,o),
(728,463,o),
(639,463,cs),
(550,463,o),
(471,405,o),
(460,299,c)
);
},
{
closed = 1;
nodes = (
(328,40,o),
(406,128,o),
(406,218,cs),
(406,244,l),
(265,244,ls),
(151,244,o),
(108,204,o),
(108,143,cs),
(108,83,o),
(153,40,o),
(231,40,cs)
);
}
);
width = 901;
}
);
leftKerningGroup = a2;
rightKerningGroup = e;
unicode = 230;
}
{
glyphname = ecircumflex;
widthMetricsKey = e;
layers = (
{
layerId = "3C0957B3-9451-4BAD-AE3B-C8576C323C81";
shapes = (
{
closed = 1;
nodes = (
(161,-12,o),
(50,93,o),
(50,242,cs),
(50,395,o),
(157,512,o),
(322,512,cs),
(472,512,o),
(587,408,o),
(587,256,cs),
(587,241,o),
(586,224,o),
(584,207,c),
(222,207,l),
(229,163,o),
(261,127,o),
(321,127,cs),
(356,127,o),
(379,144,o),
(394,165,c),
(572,165,l),
(539,66,o),
(445,-12,o),
(323,-12,cs)
);
},
{
closed = 1;
nodes = (
(410,302,l),
(406,344,o),
(371,375,o),
(324,375,cs),
(276,375,o),
(242,352,o),
(227,302,c)
);
},
{
closed = 1;
nodes = (
(164.081,538.325,l),
(164.081,657.281,l),
(320.337,736.921,l),
(476.592,657.281,l),
(476.592,538.325,l),
(320.337,620.99,l)
);
}
);
width = 631;
},
{
layerId = "C91D2DC0-8AAD-4B21-B0E6-07AA6617D11E";
shapes = (
{
closed = 1;
nodes = (
(151,-12,o),
(49,92,o),
(49,249,cs),
(49,407,o),
(150,512,o),
(298,512,cs),
(444,512,o),
(534,403,o),
(534,277,cs),
(534,262,o),
(534,249,o),
(533,230,c),
(136,230,l),
(142,118,o),
(217,62,o),
(296,62,cs),
(364,62,o),
(410,95,o),
(432,150,c),
(520,150,l),
(493,57,o),
(414,-12,o),
(296,-12,cs)
);
},
{
closed = 1;
nodes = (
(446,296,l),
(442,383,o),
(379,438,o),
(295,438,cs),
(215,438,o),
(148,388,o),
(138,296,c)
);
},
{
closed = 1;
nodes = (
(155.17,554.455,l),
(155.17,623.006,l),
(294.288,705.67,l),
(433.406,623.006,l),
(433.406,554.455,l),
(294.288,639.135,l)
);
}
);
width = 576;
},
{
layerId = "972C881F-D909-4F62-92A5-F720CB79AC7E";
shapes = (
{
alignment = -1;
ref = e;
},
{
alignment = -1;
pos = (126,0);
ref = circumflex;
scale = (1.008,1.008);
}
);
width = 554;
}
);
leftKerningGroup = c;
rightKerningGroup = e;
unicode = 234;
}
{
glyphname = eth;
layers = (
{
layerId = "801975A8-2B28-48D2-ACC9-91C57621CBC0";
shapes = (
{
closed = 1;
nodes = (
(167,-12,o),
(50,99,o),
(50,247,cs),
(50,395,o),
(163,503,o),
(317,503,cs),
(362,503,o),
(397,494,o),
(434,475,c),
(423,504,o),
(408,533,o),
(392,562,c),
(278,527,l),
(278,625,l),
(337,643,l),
(317,666,o),
(297,687,o),
(277,706,c),
(435,706,l),
(446,698,o),
(454,691,o),
(462,680,c),
(576,716,l),
(576,618,l),
(524,602,l),
(589,502,o),
(619,391,o),
(619,308,cs),
(619,106,o),
(490,-12,o),
(330,-12,cs)
);
},
{
closed = 1;
nodes = (
(393,135,o),
(443,177,o),
(443,246,cs),
(443,315,o),
(393,357,o),
(335,357,cs),
(275,357,o),
(227,315,o),
(227,246,cs),
(227,177,o),
(275,135,o),
(335,135,cs)
);
}
);
width = 669;
},
{
layerId = "108F7D4A-630E-4424-A5B2-B42F8C482EB9";
shapes = (
{
closed = 1;
nodes = (
(161,-12,o),
(49,105,o),
(49,248,cs),
(49,401,o),
(162,510,o),
(308,510,cs),
(377,510,o),
(454,485,o),
(491,413,c),
(462,490,o),
(442,537,o),
(387,600,c),
(255,554,l),
(255,614,l),
(348,647,l),
(330,666,o),
(308,686,o),
(284,706,c),
(373,706,l),
(388,693,o),
(401,682,o),
(414,668,c),
(545,715,l),
(545,654,l),
(455,623,l),
(541,521,o),
(585,407,o),
(585,275,cs),
(585,105,o),
(466,-12,o),
(314,-12,cs)
);
},
{
closed = 1;
nodes = (
(409,63,o),
(494,136,o),
(494,250,cs),
(494,364,o),
(409,436,o),
(316,436,cs),
(224,436,o),
(139,364,o),
(139,250,cs),
(139,136,o),
(224,63,o),
(316,63,cs)
);
}
);
width = 633;
},
{
layerId = "565F47C8-0ABB-4A45-ACC1-9062093877DB";
shapes = (
{
closed = 1;
nodes = (
(158,-12,o),
(48,107,o),
(48,249,cs),
(48,403,o),
(161,513,o),
(305,513,cs),
(383,513,o),
(477,481,o),
(514,388,c),
(478,484,o),
(456,538,o),
(385,615,c),
(246,565,l),
(246,609,l),
(353,648,l),
(335,666,o),
(313,685,o),
(287,706,c),
(348,706,l),
(365,691,o),
(380,678,o),
(395,663,c),
(533,714,l),
(533,669,l),
(427,631,l),
(522,528,o),
(571,413,o),
(571,262,cs),
(571,105,o),
(457,-12,o),
(307,-12,cs)
);
},
{
closed = 1;
nodes = (
(416,34,o),
(514,119,o),
(514,252,cs),
(514,384,o),
(416,467,o),
(309,467,cs),
(204,467,o),
(104,384,o),
(104,252,cs),
(104,119,o),
(204,34,o),
(309,34,cs)
);
}
);
width = 618;
}
);
leftKerningGroup = c2;
unicode = 240;
}
{
glyphname = ocircumflex;
widthMetricsKey = o;
layers = (
{
layerId = "3C0957B3-9451-4BAD-AE3B-C8576C323C81";
shapes = (
{
closed = 1;
nodes = (
(164,-12,o),
(50,99,o),
(50,250,cs),
(50,401,o),
(164,512,o),
(313,512,cs),
(461,512,o),
(575,401,o),
(575,250,cs),
(575,99,o),
(461,-12,o),
(313,-12,cs)
);
},
{
closed = 1;
nodes = (
(362,137,o),
(399,174,o),
(399,250,cs),
(399,326,o),
(362,363,o),
(313,363,cs),
(263,363,o),
(226,326,o),
(226,250,cs),
(226,174,o),
(263,137,o),
(313,137,cs)
);
},
{
closed = 1;
nodes = (
(156.081,538.325,l),
(156.081,657.281,l),
(312.337,736.921,l),
(468.592,657.281,l),
(468.592,538.325,l),
(312.337,620.99,l)
);
}
);
width = 625;
},
{
layerId = "C91D2DC0-8AAD-4B21-B0E6-07AA6617D11E";
shapes = (
{
closed = 1;
nodes = (
(156,-12,o),
(49,92,o),
(49,250,cs),
(49,408,o),
(158,512,o),
(300,512,cs),
(442,512,o),
(550,408,o),
(550,250,cs),
(550,92,o),
(440,-12,o),
(299,-12,cs)
);
},
{
closed = 1;
nodes = (
(383,64,o),
(459,127,o),
(459,250,cs),
(459,373,o),
(383,436,o),
(300,436,cs),
(217,436,o),
(140,373,o),
(140,250,cs),
(140,127,o),
(215,64,o),
(299,64,cs)
);
},
{
closed = 1;
nodes = (
(161.17,554.455,l),
(161.17,623.006,l),
(300.288,705.67,l),
(439.406,623.006,l),
(439.406,554.455,l),
(300.288,639.135,l)
);
}
);
width = 599;
},
{
layerId = "972C881F-D909-4F62-92A5-F720CB79AC7E";
shapes = (
{
alignment = -1;
ref = o;
},
{
alignment = -1;
pos = (137,0);
ref = circumflex;
scale = (1.008,1.008);
}
);
width = 588;
}
);
leftKerningGroup = c;
rightKerningGroup = b;
unicode = 244;
}
{
glyphname = divide;
layers = (
{
layerId = "801975A8-2B28-48D2-ACC9-91C57621CBC0";
shapes = (
{
closed = 1;
nodes = (
(218,405,o),
(177,446,o),
(177,497,cs),
(177,550,o),
(218,591,o),
(279,591,cs),
(339,591,o),
(380,550,o),
(380,497,cs),
(380,446,o),
(339,405,o),
(279,405,cs)
);
},
{
closed = 1;
nodes = (
(48,218,l),
(48,360,l),
(508,360,l),
(508,218,l)
);
},
{
closed = 1;
nodes = (
(218,-13,o),
(177,28,o),
(177,79,cs),
(177,132,o),
(218,173,o),
(279,173,cs),
(339,173,o),
(380,132,o),
(380,79,cs),
(380,28,o),
(339,-13,o),
(279,-13,cs)
);
}
);
width = 556;
},
{
layerId = "108F7D4A-630E-4424-A5B2-B42F8C482EB9";
shapes = (
{
closed = 1;
nodes = (
(228,379,o),
(203,405,o),
(203,439,cs),
(203,472,o),
(228,497,o),
(263,497,cs),
(297,497,o),
(322,472,o),
(322,439,cs),
(322,405,o),
(297,379,o),
(263,379,cs)
);
},
{
closed = 1;
nodes = (
(62,253,l),
(62,328,l),
(464,328,l),
(464,253,l)
);
},
{
closed = 1;
nodes = (
(228,83,o),
(203,109,o),
(203,143,cs),
(203,176,o),
(228,202,o),
(263,202,cs),
(297,202,o),
(322,176,o),
(322,143,cs),
(322,109,o),
(297,83,o),
(263,83,cs)
);
}
);
width = 526;
},
{
layerId = "565F47C8-0ABB-4A45-ACC1-9062093877DB";
shapes = (
{
closed = 1;
nodes = (
(232,369,o),
(213,389,o),
(213,416,cs),
(213,441,o),
(232,460,o),
(256,460,cs),
(280,460,o),
(299,441,o),
(299,416,cs),
(299,389,o),
(280,369,o),
(256,369,cs)
);
},
{
closed = 1;
nodes = (
(68,267,l),
(68,315,l),
(446,315,l),
(446,267,l)
);
},
{
closed = 1;
nodes = (
(232,122,o),
(213,142,o),
(213,169,cs),
(213,194,o),
(232,213,o),
(256,213,cs),
(280,213,o),
(299,194,o),
(299,169,cs),
(299,142,o),
(280,122,o),
(256,122,cs)
);
}
);
width = 514;
}
);
unicode = 247;
}
{
glyphname = Abreve;
layers = (
{
layerId = "3C0957B3-9451-4BAD-AE3B-C8576C323C81";
shapes = (
{
closed = 1;
nodes = (
(16,0,l),
(270,700,l),
(468,700,l),
(722,0,l),
(541,0,l),
(492,144,l),
(244,144,l),
(195,0,l)
);
},
{
closed = 1;
nodes = (
(448,276,l),
(368,511,l),
(289,276,l)
);
},
{
closed = 1;
nodes = (
(269,741,o),
(199,801,o),
(199,914,cs),
(199,933,l),
(284,933,l),
(284,890,o),
(304,866,o),
(369,866,cs),
(434,866,o),
(454,890,o),
(454,933,c),
(540,933,l),
(540,913,ls),
(540,800,o),
(469,741,o),
(369,741,cs)
);
}
);
width = 738;
},
{
layerId = "C91D2DC0-8AAD-4B21-B0E6-07AA6617D11E";
shapes = (
{
closed = 1;
nodes = (
(29,0,l),
(287,700,l),
(381,700,l),
(638,0,l),
(545,0,l),
(481,178,l),
(186,178,l),
(122,0,l)
);
},
{
closed = 1;
nodes = (
(456,250,l),
(334,590,l),
(211,250,l)
);
},
{
closed = 1;
nodes = (
(243,757,o),
(193,813,o),
(193,888,cs),
(193,903,l),
(244,903,l),
(244,853,o),
(270,825,o),
(334,825,cs),
(399,825,o),
(424,853,o),
(424,903,c),
(477,903,l),
(477,889,ls),
(477,813,o),
(426,757,o),
(334,757,cs)
);
}
);
width = 667;
},
{
layerId = "972C881F-D909-4F62-92A5-F720CB79AC7E";
shapes = (
{
alignment = -1;
ref = A;
},
{
alignment = -1;
pos = (191,0);
ref = brevecomb.cap;
}
);
width = 639;
}
);
leftKerningGroup = A2;
rightKerningGroup = A;
unicode = 258;
}
{
glyphname = abreve;
widthMetricsKey = a;
layers = (
{
layerId = "3C0957B3-9451-4BAD-AE3B-C8576C323C81";
shapes = (
{
closed = 1;
nodes = (
(417,0,l),
(395,69,l),
(364,20,o),
(316,-12,o),
(239,-12,cs),
(109,-12,o),
(50,53,o),
(50,136,cs),
(50,221,o),
(111,289,o),
(268,289,cs),
(387,289,l),
(387,307,ls),
(387,357,o),
(350,374,o),
(309,374,cs),
(268,374,o),
(236,359,o),
(229,324,c),
(65,324,l),
(73,434,o),
(168,512,o),
(310,512,cs),
(456,512,o),
(559,445,o),
(559,307,cs),
(559,0,l)
);
},
{
closed = 1;
nodes = (
(289,194,ls),
(252,194,o),
(233,177,o),
(233,153,cs),
(233,126,o),
(257,117,o),
(285,117,cs),
(331,117,o),
(378,154,o),
(378,194,c),
(378,194,l)
);
},
{
closed = 1;
nodes = (
(208.648,541.35,o),
(138.081,601.836,o),
(138.081,715.751,cs),
(138.081,734.905,l),
(223.77,734.905,l),
(223.77,691.557,o),
(243.932,667.362,o),
(309.458,667.362,cs),
(374.985,667.362,o),
(395.147,691.557,o),
(395.147,734.905,c),
(481.843,734.905,l),
(481.843,714.743,ls),
(481.843,600.828,o),
(410.268,541.35,o),
(309.458,541.35,cs)
);
}
);
width = 616;
},
{
layerId = "C91D2DC0-8AAD-4B21-B0E6-07AA6617D11E";
shapes = (
{
closed = 1;
nodes = (
(412,0,l),
(405,87,l),
(378,31,o),
(325,-12,o),
(237,-12,cs),
(110,-12,o),
(50,58,o),
(50,142,cs),
(50,243,o),
(133,300,o),
(268,300,cs),
(402,300,l),
(402,307,ls),
(402,393,o),
(354,438,o),
(279,438,cs),
(214,438,o),
(162,406,o),
(151,343,c),
(60,343,l),
(72,451,o),
(170,512,o),
(279,512,cs),
(418,512,o),
(491,431,o),
(491,307,cs),
(491,0,l)
);
},
{
closed = 1;
nodes = (
(276,234,ls),
(179,234,o),
(144,196,o),
(144,147,cs),
(144,95,o),
(182,62,o),
(251,62,cs),
(338,62,o),
(399,138,o),
(399,213,cs),
(399,234,l)
);
},
{
closed = 1;
nodes = (
(183.575,557.479,o),
(133.17,613.933,o),
(133.17,689.54,cs),
(133.17,704.662,l),
(185.591,704.662,l),
(185.591,654.257,o),
(211.802,626.03,o),
(276.32,626.03,cs),
(340.839,626.03,o),
(367.049,654.257,o),
(367.049,704.662,c),
(419.471,704.662,l),
(419.471,690.549,ls),
(419.471,613.933,o),
(368.057,557.479,o),
(276.32,557.479,cs)
);
}
);
width = 549;
},
{
layerId = "972C881F-D909-4F62-92A5-F720CB79AC7E";
shapes = (
{
alignment = -1;
ref = a;
},
{
alignment = -1;
pos = (105,0);
ref = breve;
scale = (1.008,1.008);
}
);
width = 522;
}
);
leftKerningGroup = a2;
rightKerningGroup = a;
unicode = 259;
}
{
glyphname = Aogonek;
layers = (
{
layerId = "3C0957B3-9451-4BAD-AE3B-C8576C323C81";
shapes = (
{
closed = 1;
nodes = (
(16,0,l),
(270,700,l),
(468,700,l),
(722,0,l),
(675,-22,ls),
(622,-46,o),
(609,-66,o),
(609,-86,cs),
(609,-109,o),
(624,-121,o),
(654,-121,cs),
(675,-121,o),
(700,-116,o),
(729,-106,c),
(729,-202,l),
(700,-211,o),
(667,-217,o),
(630,-217,cs),
(548,-217,o),
(483,-180,o),
(483,-100,cs),
(483,-65,o),
(505,-23,o),
(539,6,cs),
(539,6,l),
(492,144,l),
(244,144,l),
(195,0,l)
);
},
{
closed = 1;
nodes = (
(448,276,l),
(368,511,l),
(289,276,l)
);
}
);
width = 745;
},
{
layerId = "C91D2DC0-8AAD-4B21-B0E6-07AA6617D11E";
shapes = (
{
closed = 1;
nodes = (
(29,0,l),
(287,700,l),
(381,700,l),
(638,0,l),
(581,-28,ls),
(533,-51,o),
(518,-74,o),
(518,-99,cs),
(518,-130,o),
(541,-147,o),
(576,-147,cs),
(596,-147,o),
(619,-142,o),
(643,-133,c),
(643,-191,l),
(618,-200,o),
(593,-204,o),
(566,-204,cs),
(504,-204,o),
(447,-176,o),
(447,-107,cs),
(447,-66,o),
(473,-27,o),
(534,5,cs),
(542,9,l),
(481,178,l),
(186,178,l),
(122,0,l)
);
},
{
closed = 1;
nodes = (
(456,250,l),
(334,590,l),
(211,250,l)
);
}
);
width = 672;
},
{
layerId = "972C881F-D909-4F62-92A5-F720CB79AC7E";
shapes = (
{
closed = 1;
nodes = (
(34,0,l),
(294,700,l),
(346,700,l),
(605,0,l),
(544,-30,ls),
(497,-53,o),
(482,-77,o),
(482,-104,cs),
(482,-139,o),
(508,-158,o),
(545,-158,cs),
(565,-158,o),
(586,-153,o),
(608,-144,c),
(608,-186,l),
(585,-195,o),
(563,-199,o),
(540,-199,cs),
(486,-199,o),
(433,-174,o),
(433,-110,cs),
(433,-67,o),
(460,-28,o),
(532,5,cs),
(543,10,l),
(476,192,l),
(163,192,l),
(93,0,l)
);
},
{
closed = 1;
nodes = (
(459,239,l),
(320,621,l),
(180,239,l)
);
}
);
width = 643;
}
);
leftKerningGroup = A2;
rightKerningGroup = A;
unicode = 260;
}
{
glyphname = dcaron;
layers = (
{
layerId = "BB5B5596-5E1F-4BCA-852B-56C614C2EA8E";
shapes = (
{
closed = 1;
nodes = (
(695,539,l),
(730,539,o),
(747,561,o),
(747,606,cs),
(747,622,l),
(683,622,l),
(683,746,l),
(816,746,l),
(831,703,o),
(836,663,o),
(836,627,cs),
(836,535,o),
(791,474,o),
(695,474,c)
);
},
{
closed = 1;
nodes = (
(161,-12,o),
(50,102,o),
(50,251,cs),
(50,401,o),
(161,512,o),
(294,512,cs),
(363,512,o),
(410,488,o),
(446,447,c),
(446,726,l),
(618,726,l),
(618,0,l),
(466,0,l),
(446,60,l),
(414,20,o),
(371,-12,o),
(294,-12,cs)
);
},
{
closed = 1;
nodes = (
(406,138,o),
(454,189,o),
(454,250,cs),
(454,314,o),
(407,362,o),
(340,362,cs),
(274,362,o),
(226,313,o),
(226,251,cs),
(226,189,o),
(274,138,o),
(340,138,cs)
);
}
);
width = 862;
},
{
layerId = "E4D0624D-8000-4CFF-8595-BC700BCBE458";
shapes = (
{
closed = 1;
nodes = (
(643,583,l),
(678,583,o),
(691,602,o),
(691,637,cs),
(691,661,l),
(641,661,l),
(641,746,l),
(732,746,l),
(741,711,o),
(745,680,o),
(745,654,cs),
(745,576,o),
(708,542,o),
(643,542,c)
);
},
{
closed = 1;
nodes = (
(149,-12,o),
(49,101,o),
(49,251,cs),
(49,401,o),
(149,512,o),
(296,512,cs),
(379,512,o),
(443,478,o),
(478,418,c),
(478,726,l),
(567,726,l),
(567,0,l),
(487,0,l),
(478,82,l),
(445,34,o),
(388,-12,o),
(295,-12,cs)
);
},
{
closed = 1;
nodes = (
(407,65,o),
(476,140,o),
(476,250,cs),
(476,360,o),
(407,435,o),
(307,435,cs),
(208,435,o),
(139,360,o),
(139,250,cs),
(139,140,o),
(208,65,o),
(307,65,cs)
);
}
);
width = 756;
},
{
layerId = "E70FFCB9-C703-4CAE-9CF8-4537993847F6";
shapes = (
{
closed = 1;
nodes = (
(622,601,l),
(657,601,o),
(668,618,o),
(668,650,cs),
(668,676,l),
(624,676,l),
(624,746,l),
(699,746,l),
(705,714,o),
(708,687,o),
(708,665,cs),
(708,593,o),
(675,569,o),
(622,569,c)
);
},
{
closed = 1;
nodes = (
(144,-12,o),
(48,100,o),
(48,251,cs),
(48,401,o),
(144,512,o),
(297,512,cs),
(386,512,o),
(456,474,o),
(491,406,c),
(491,726,l),
(546,726,l),
(546,0,l),
(495,0,l),
(491,91,l),
(458,39,o),
(395,-12,o),
(296,-12,cs)
);
},
{
closed = 1;
nodes = (
(407,36,o),
(485,121,o),
(485,250,cs),
(485,379,o),
(407,464,o),
(294,464,cs),
(182,464,o),
(104,379,o),
(104,250,cs),
(104,121,o),
(182,36,o),
(294,36,cs)
);
}
);
width = 713;
}
);
leftKerningGroup = c2;
unicode = 271;
}
{
glyphname = dcroat;
layers = (
{
layerId = "801975A8-2B28-48D2-ACC9-91C57621CBC0";
shapes = (
{
closed = 1;
nodes = (
(161,-12,o),
(50,102,o),
(50,251,cs),
(50,401,o),
(161,512,o),
(294,512,cs),
(363,512,o),
(410,488,o),
(446,447,c),
(446,566,l),
(308,566,l),
(308,658,l),
(446,658,l),
(446,726,l),
(618,726,l),
(618,658,l),
(684,658,l),
(684,566,l),
(618,566,l),
(618,0,l),
(466,0,l),
(446,60,l),
(414,20,o),
(371,-12,o),
(294,-12,cs)
);
},
{
closed = 1;
nodes = (
(406,138,o),
(454,189,o),
(454,250,cs),
(454,314,o),
(407,362,o),
(340,362,cs),
(274,362,o),
(226,313,o),
(226,251,cs),
(226,189,o),
(274,138,o),
(340,138,cs)
);
}
);
width = 698;
},
{
layerId = "108F7D4A-630E-4424-A5B2-B42F8C482EB9";
shapes = (
{
closed = 1;
nodes = (
(149,-12,o),
(49,101,o),
(49,251,cs),
(49,401,o),
(149,512,o),
(296,512,cs),
(379,512,o),
(443,478,o),
(478,418,c),
(478,575,l),
(332,575,l),
(332,641,l),
(478,641,l),
(478,726,l),
(567,726,l),
(567,641,l),
(642,641,l),
(642,575,l),
(567,575,l),
(567,0,l),
(487,0,l),
(478,82,l),
(445,34,o),
(388,-12,o),
(295,-12,cs)
);
},
{
closed = 1;
nodes = (
(407,65,o),
(476,140,o),
(476,250,cs),
(476,360,o),
(407,435,o),
(307,435,cs),
(208,435,o),
(139,360,o),
(139,250,cs),
(139,140,o),
(208,65,o),
(307,65,cs)
);
}
);
width = 680;
},
{
layerId = "565F47C8-0ABB-4A45-ACC1-9062093877DB";
shapes = (
{
closed = 1;
nodes = (
(144,-12,o),
(48,100,o),
(48,251,cs),
(48,401,o),
(144,512,o),
(297,512,cs),
(386,512,o),
(456,474,o),
(491,406,c),
(491,579,l),
(342,579,l),
(342,634,l),
(491,634,l),
(491,726,l),
(546,726,l),
(546,634,l),
(625,634,l),
(625,579,l),
(546,579,l),
(546,0,l),
(495,0,l),
(491,91,l),
(458,39,o),
(395,-12,o),
(296,-12,cs)
);
},
{
closed = 1;
nodes = (
(407,36,o),
(485,121,o),
(485,250,cs),
(485,379,o),
(407,464,o),
(294,464,cs),
(182,464,o),
(104,379,o),
(104,250,cs),
(104,121,o),
(182,36,o),
(294,36,cs)
);
}
);
width = 673;
}
);
leftKerningGroup = c2;
unicode = 273;
}
{
glyphname = Gcommaaccent;
layers = (
{
layerId = "801975A8-2B28-48D2-ACC9-91C57621CBC0";
shapes = (
{
closed = 1;
nodes = (
(174,-12,o),
(43,130,o),
(43,343,cs),
(43,559,o),
(177,712,o),
(403,712,cs),
(574,712,o),
(690,627,o),
(723,482,c),
(534,482,l),
(511,529,o),
(470,554,o),
(402,554,cs),
(278,554,o),
(217,473,o),
(217,342,cs),
(217,209,o),
(280,139,o),
(395,139,cs),
(499,139,o),
(551,198,o),
(564,270,c),
(413,270,l),
(413,396,l),
(735,396,l),
(735,0,l),
(577,0,l),
(564,70,l),
(524,17,o),
(465,-12,o),
(374,-12,cs)
);
},
{
closed = 1;
nodes = (
(325,-245,l),
(360,-245,o),
(377,-223,o),
(377,-179,cs),
(377,-163,l),
(314,-163,l),
(314,-40,l),
(445,-40,l),
(460,-83,o),
(465,-122,o),
(465,-158,cs),
(465,-249,o),
(421,-310,o),
(325,-310,c)
);
}
);
width = 788;
},
{
layerId = "108F7D4A-630E-4424-A5B2-B42F8C482EB9";
shapes = (
{
closed = 1;
nodes = (
(178,-12,o),
(47,134,o),
(47,349,cs),
(47,563,o),
(178,712,o),
(388,712,cs),
(546,712,o),
(656,633,o),
(687,497,c),
(585,497,l),
(565,579,o),
(496,631,o),
(388,631,cs),
(235,631,o),
(138,526,o),
(138,348,cs),
(138,171,o),
(235,67,o),
(379,67,cs),
(526,67,o),
(600,159,o),
(610,306,c),
(409,306,l),
(409,375,l),
(700,375,l),
(700,0,l),
(619,0,l),
(612,113,l),
(563,33,o),
(495,-12,o),
(375,-12,cs)
);
},
{
closed = 1;
nodes = (
(346,-201,l),
(379,-201,o),
(393,-181,o),
(393,-143,cs),
(393,-129,l),
(346,-129,l),
(346,-50,l),
(434,-50,l),
(441,-77,o),
(444,-104,o),
(444,-126,cs),
(444,-206,o),
(410,-241,o),
(346,-241,c)
);
}
);
width = 759;
},
{
layerId = "565F47C8-0ABB-4A45-ACC1-9062093877DB";
shapes = (
{
closed = 1;
nodes = (
(180,-12,o),
(49,136,o),
(49,351,cs),
(49,564,o),
(179,712,o),
(382,712,cs),
(535,712,o),
(642,635,o),
(673,503,c),
(606,503,l),
(587,599,o),
(507,662,o),
(383,662,cs),
(218,662,o),
(106,547,o),
(106,351,cs),
(106,156,o),
(217,38,o),
(372,38,cs),
(537,38,o),
(619,144,o),
(628,321,c),
(408,321,l),
(408,367,l),
(686,367,l),
(686,0,l),
(636,0,l),
(631,130,l),
(578,39,o),
(507,-12,o),
(375,-12,cs)
);
},
{
closed = 1;
nodes = (
(354,-183,l),
(387,-183,o),
(399,-164,o),
(399,-129,cs),
(399,-115,l),
(359,-115,l),
(359,-54,l),
(430,-54,l),
(434,-75,o),
(436,-97,o),
(436,-113,cs),
(436,-189,o),
(405,-214,o),
(354,-214,c)
);
}
);
width = 747;
}
);
leftKerningGroup = C2;
rightKerningGroup = G;
unicode = 290;
}
{
glyphname = gcommaaccent;
layers = (
{
layerId = "801975A8-2B28-48D2-ACC9-91C57621CBC0";
shapes = (
{
closed = 1;
nodes = (
(248,603,l),
(233,646,o),
(228,686,o),
(228,722,cs),
(228,813,o),
(272,875,o),
(369,875,c),
(369,810,l),
(334,810,o),
(317,788,o),
(317,743,cs),
(317,727,l),
(380,727,l),
(380,603,l)
);
},
{
closed = 1;
nodes = (
(133,-234,o),
(40,-180,o),
(40,-76,cs),
(40,-31,o),
(61,6,o),
(96,37,c),
(72,48,o),
(55,60,o),
(45,72,c),
(45,95,l),
(134,196,l),
(97,230,o),
(78,274,o),
(78,327,cs),
(78,428,o),
(158,512,o),
(286,512,cs),
(316,512,o),
(342,508,o),
(365,500,c),
(559,500,l),
(559,407,l),
(480,399,l),
(489,376,o),
(494,352,o),
(494,327,cs),
(494,224,o),
(413,141,o),
(286,141,cs),
(267,141,o),
(248,143,o),
(231,147,c),
(205,120,l),
(228,109,o),
(259,104,o),
(324,97,cs),
(455,84,o),
(518,36,o),
(518,-59,cs),
(518,-150,o),
(444,-234,o),
(284,-234,cs)
);
},
{
closed = 1;
nodes = (
(323,269,o),
(352,289,o),
(352,326,cs),
(352,362,o),
(323,382,o),
(286,382,cs),
(249,382,o),
(220,362,o),
(220,326,cs),
(220,289,o),
(249,269,o),
(286,269,cs)
);
},
{
closed = 1;
nodes = (
(204,-18,o),
(191,-36,o),
(191,-58,cs),
(191,-93,o),
(233,-108,o),
(284,-108,cs),
(332,-108,o),
(365,-92,o),
(365,-63,cs),
(365,-32,o),
(352,-16,o),
(292,-11,c),
(269,-8,o),
(250,-6,o),
(230,-3,c)
);
}
);
width = 590;
},
{
layerId = "108F7D4A-630E-4424-A5B2-B42F8C482EB9";
shapes = (
{
closed = 1;
nodes = (
(228,601,l),
(221,635,o),
(217,665,o),
(217,692,cs),
(217,770,o),
(252,804,o),
(318,804,c),
(318,764,l),
(283,764,o),
(270,745,o),
(270,709,cs),
(270,686,l),
(319,686,l),
(319,601,l)
);
},
{
closed = 1;
nodes = (
(132,-234,o),
(36,-180,o),
(36,-74,cs),
(36,-38,o),
(47,10,o),
(107,50,c),
(76,62,o),
(59,76,o),
(41,93,c),
(41,116,l),
(128,202,l),
(89,234,o),
(69,280,o),
(69,334,cs),
(69,433,o),
(141,512,o),
(268,512,cs),
(297,512,o),
(324,508,o),
(347,500,c),
(531,500,l),
(531,436,l),
(437,432,l),
(457,403,o),
(467,371,o),
(467,334,cs),
(467,235,o),
(394,156,o),
(268,156,cs),
(240,156,o),
(214,160,o),
(192,167,c),
(141,122,l),
(164,107,o),
(190,97,o),
(303,89,cs),
(439,78,o),
(492,23,o),
(492,-60,cs),
(492,-149,o),
(422,-234,o),
(269,-234,cs)
);
},
{
closed = 1;
nodes = (
(339,229,o),
(383,266,o),
(383,335,cs),
(383,402,o),
(339,439,o),
(268,439,cs),
(198,439,o),
(153,402,o),
(153,335,cs),
(153,266,o),
(198,229,o),
(268,229,cs)
);
},
{
closed = 1;
nodes = (
(134,-2,o),
(124,-38,o),
(124,-64,cs),
(124,-131,o),
(185,-162,o),
(269,-162,cs),
(352,-162,o),
(404,-124,o),
(404,-64,cs),
(404,-21,o),
(377,13,o),
(283,18,c),
(244,21,o),
(214,24,o),
(187,28,c)
);
}
);
width = 558;
},
{
layerId = "565F47C8-0ABB-4A45-ACC1-9062093877DB";
shapes = (
{
closed = 1;
nodes = (
(220,600,l),
(216,631,o),
(213,657,o),
(213,680,cs),
(213,753,o),
(244,776,o),
(297,776,c),
(297,745,l),
(262,745,o),
(251,728,o),
(251,696,cs),
(251,670,l),
(294,670,l),
(294,600,l)
);
},
{
closed = 1;
nodes = (
(132,-234,o),
(35,-180,o),
(35,-73,cs),
(35,-41,o),
(41,12,o),
(111,55,c),
(78,68,o),
(60,82,o),
(40,101,c),
(40,125,l),
(126,204,l),
(86,236,o),
(65,282,o),
(65,337,cs),
(65,435,o),
(134,512,o),
(261,512,cs),
(290,512,o),
(317,508,o),
(340,500,c),
(520,500,l),
(520,447,l),
(420,445,l),
(444,414,o),
(456,378,o),
(456,337,cs),
(456,240,o),
(386,162,o),
(261,162,cs),
(229,162,o),
(201,167,o),
(176,175,c),
(116,123,l),
(138,106,o),
(163,94,o),
(295,86,c),
(432,75,o),
(481,18,o),
(481,-61,cs),
(481,-149,o),
(413,-234,o),
(263,-234,cs)
);
},
{
closed = 1;
nodes = (
(345,213,o),
(395,257,o),
(395,338,cs),
(395,418,o),
(345,462,o),
(261,462,cs),
(177,462,o),
(126,418,o),
(126,338,cs),
(126,257,o),
(177,213,o),
(261,213,cs)
);
},
{
closed = 1;
nodes = (
(106,5,o),
(97,-39,o),
(97,-67,cs),
(97,-146,o),
(166,-183,o),
(263,-183,cs),
(360,-183,o),
(420,-137,o),
(420,-65,cs),
(420,-17,o),
(387,24,o),
(279,29,c),
(234,32,o),
(199,36,o),
(170,40,c)
);
}
);
width = 545;
}
);
leftKerningGroup = g2;
rightKerningGroup = g;
unicode = 291;
}
{
color = (153, 154, 255, 255);
glyphname = Hbar;
layers = (
{
layerId = "3C0957B3-9451-4BAD-AE3B-C8576C323C81";
shapes = (
{
closed = 1;
nodes = (
(166,526,l),
(166,644,l),
(566,644,l),
(566,526,l)
);
},
{
alignment = -1;
ref = H;
}
);
width = 732;
},
{
layerId = "C91D2DC0-8AAD-4B21-B0E6-07AA6617D11E";
shapes = (
{
closed = 1;
nodes = (
(123,558,l),
(123,623,l),
(559,623,l),
(559,558,l)
);
},
{
alignment = -1;
ref = H;
}
);
width = 682;
},
{
layerId = "972C881F-D909-4F62-92A5-F720CB79AC7E";
shapes = (
{
closed = 1;
nodes = (
(106,571,l),
(106,615,l),
(556,615,l),
(556,571,l)
);
},
{
alignment = -1;
ref = H;
}
);
width = 662;
}
);
unicode = 294;
}
{
glyphname = dotlessi;
layers = (
{
layerId = "3C0957B3-9451-4BAD-AE3B-C8576C323C81";
shapes = (
{
closed = 1;
nodes = (
(63,0,l),
(63,500,l),
(235,500,l),
(235,0,l)
);
}
);
width = 297;
},
{
layerId = "C91D2DC0-8AAD-4B21-B0E6-07AA6617D11E";
shapes = (
{
closed = 1;
nodes = (
(69,0,l),
(69,500,l),
(158,500,l),
(158,0,l)
);
}
);
width = 227;
},
{
layerId = "972C881F-D909-4F62-92A5-F720CB79AC7E";
shapes = (
{
closed = 1;
nodes = (
(72,0,l),
(72,500,l),
(127,500,l),
(127,0,l)
);
}
);
width = 199;
}
);
leftKerningGroup = m;
unicode = 305;
}
{
color = (153, 155, 255, 255);
glyphname = jcircumflex;
layers = (
{
layerId = "BB5B5596-5E1F-4BCA-852B-56C614C2EA8E";
shapes = (
{
closed = 1;
nodes = (
(-31,-222,l),
(-31,-76,l),
(10,-76,ls),
(49,-76,o),
(63,-61,o),
(63,-28,cs),
(63,500,l),
(235,500,l),
(235,-26,ls),
(235,-173,o),
(154,-222,o),
(36,-222,cs)
);
},
{
alignment = -1;
pos = (-17,0);
ref = circumflex;
}
);
width = 296;
},
{
layerId = "E4D0624D-8000-4CFF-8595-BC700BCBE458";
shapes = (
{
closed = 1;
nodes = (
(-27,-222,l),
(-27,-146,l),
(11,-146,ls),
(61,-146,o),
(81,-127,o),
(81,-78,cs),
(81,500,l),
(169,500,l),
(169,-80,ls),
(169,-179,o),
(119,-222,o),
(25,-222,cs)
);
},
{
alignment = -1;
pos = (-36,0);
ref = circumflex;
}
);
width = 247;
},
{
layerId = "E70FFCB9-C703-4CAE-9CF8-4537993847F6";
shapes = (
{
closed = 1;
nodes = (
(-26,-222,l),
(-26,-174,l),
(11,-174,ls),
(66,-174,o),
(88,-154,o),
(88,-98,cs),
(88,500,l),
(143,500,l),
(143,-102,ls),
(143,-182,o),
(105,-222,o),
(20,-222,cs)
);
},
{
alignment = -1;
pos = (-44,0);
ref = circumflex;
}
);
width = 227;
}
);
unicode = 309;
}
{
glyphname = Kcommaaccent;
layers = (
{
layerId = "BB5B5596-5E1F-4BCA-852B-56C614C2EA8E";
shapes = (
{
closed = 1;
nodes = (
(62,0,l),
(62,700,l),
(233,700,l),
(233,451,l),
(459,700,l),
(668,700,l),
(412,424,l),
(678,0,l),
(469,0,l),
(290,292,l),
(233,230,l),
(233,0,l)
);
},
{
closed = 1;
nodes = (
(303,-245,l),
(338,-245,o),
(355,-223,o),
(355,-179,cs),
(355,-163,l),
(292,-163,l),
(292,-40,l),
(423,-40,l),
(438,-83,o),
(443,-122,o),
(443,-158,cs),
(443,-249,o),
(399,-310,o),
(303,-310,c)
);
}
);
width = 697;
},
{
layerId = "E4D0624D-8000-4CFF-8595-BC700BCBE458";
shapes = (
{
closed = 1;
nodes = (
(73,0,l),
(73,700,l),
(162,700,l),
(162,386,l),
(451,700,l),
(562,700,l),
(301,420,l),
(566,0,l),
(458,0,l),
(239,353,l),
(162,271,l),
(162,0,l)
);
},
{
closed = 1;
nodes = (
(249,-201,l),
(283,-201,o),
(297,-181,o),
(297,-143,cs),
(297,-129,l),
(250,-129,l),
(250,-50,l),
(339,-50,l),
(345,-77,o),
(349,-104,o),
(349,-126,cs),
(349,-206,o),
(313,-241,o),
(249,-241,c)
);
}
);
width = 588;
},
{
layerId = "E70FFCB9-C703-4CAE-9CF8-4537993847F6";
shapes = (
{
closed = 1;
nodes = (
(78,0,l),
(78,700,l),
(133,700,l),
(133,360,l),
(448,700,l),
(519,700,l),
(257,419,l),
(521,0,l),
(454,0,l),
(218,377,l),
(133,287,l),
(133,0,l)
);
},
{
closed = 1;
nodes = (
(228,-183,l),
(261,-183,o),
(274,-164,o),
(274,-129,cs),
(274,-115,l),
(233,-115,l),
(233,-54,l),
(305,-54,l),
(308,-75,o),
(311,-97,o),
(311,-113,cs),
(311,-189,o),
(279,-214,o),
(228,-214,c)
);
}
);
width = 544;
}
);
rightKerningGroup = K;
unicode = 310;
}
{
glyphname = kcommaaccent;
layers = (
{
layerId = "BB5B5596-5E1F-4BCA-852B-56C614C2EA8E";
shapes = (
{
closed = 1;
nodes = (
(256,-247,l),
(291,-247,o),
(309,-225,o),
(309,-180,cs),
(309,-164,l),
(246,-164,l),
(246,-40,l),
(378,-40,l),
(391,-84,o),
(397,-123,o),
(397,-159,cs),
(397,-251,o),
(353,-313,o),
(256,-313,c)
);
},
{
alignment = -1;
ref = k;
}
);
width = 635;
},
{
layerId = "E4D0624D-8000-4CFF-8595-BC700BCBE458";
shapes = (
{
closed = 1;
nodes = (
(210,-202,l),
(244,-202,o),
(258,-182,o),
(258,-144,cs),
(258,-130,l),
(211,-130,l),
(211,-50,l),
(299,-50,l),
(306,-79,o),
(309,-105,o),
(309,-127,cs),
(309,-207,o),
(274,-244,o),
(210,-244,c)
);
},
{
alignment = -1;
ref = k;
}
);
width = 514;
},
{
layerId = "E70FFCB9-C703-4CAE-9CF8-4537993847F6";
shapes = (
{
closed = 1;
nodes = (
(192,-184,l),
(225,-184,o),
(237,-165,o),
(237,-130,cs),
(237,-116,l),
(197,-116,l),
(197,-54,l),
(268,-54,l),
(272,-77,o),
(274,-98,o),
(274,-114,cs),
(274,-190,o),
(243,-216,o),
(192,-216,c)
);
},
{
alignment = -1;
ref = k;
}
);
width = 466;
}
);
rightKerningGroup = k;
unicode = 311;
}
{
glyphname = kgreenlandic;
layers = (
{
layerId = "F6FB205E-B3AB-4819-9CAF-AB538C51B80E";
shapes = (
{
closed = 1;
nodes = (
(61,0,l),
(234,0,l),
(234,500,l),
(61,500,l)
);
},
{
closed = 1;
nodes = (
(224,94,l),
(599,500,l),
(391,500,l),
(224,302,l)
);
},
{
closed = 1;
nodes = (
(288,186,l),
(431,0,l),
(633,0,l),
(387,291,l)
);
}
);
width = 644;
},
{
layerId = "36B3D2C2-B8FB-4E59-BDB1-E262A6063C52";
shapes = (
{
closed = 1;
nodes = (
(70,0,l),
(158,0,l),
(158,500,l),
(70,500,l)
);
},
{
closed = 1;
nodes = (
(148,145,l),
(477,500,l),
(365,500,l),
(148,254,l)
);
},
{
closed = 1;
nodes = (
(205,247,l),
(399,0,l),
(503,0,l),
(261,301,l)
);
}
);
width = 523;
},
{
layerId = "0C974A3A-E5A4-4FB7-A898-B0FABB9FC9C2";
shapes = (
{
closed = 1;
nodes = (
(73,0,l),
(128,0,l),
(128,500,l),
(73,500,l)
);
},
{
closed = 1;
nodes = (
(118,166,l),
(428,500,l),
(355,500,l),
(117,235,l)
);
},
{
closed = 1;
nodes = (
(172,271,l),
(386,0,l),
(451,0,l),
(210,305,l)
);
}
);
width = 474;
}
);
unicode = 312;
}
{
glyphname = Lcommaaccent;
layers = (
{
layerId = "F6FB205E-B3AB-4819-9CAF-AB538C51B80E";
shapes = (
{
closed = 1;
nodes = (
(62,0,l),
(62,700,l),
(233,700,l),
(233,132,l),
(527,132,l),
(527,0,l)
);
},
{
closed = 1;
nodes = (
(213,-245,l),
(248,-245,o),
(265,-223,o),
(265,-179,cs),
(265,-163,l),
(202,-163,l),
(202,-40,l),
(333,-40,l),
(348,-83,o),
(353,-122,o),
(353,-158,cs),
(353,-249,o),
(309,-310,o),
(213,-310,c)
);
}
);
width = 577;
},
{
layerId = "36B3D2C2-B8FB-4E59-BDB1-E262A6063C52";
shapes = (
{
closed = 1;
nodes = (
(73,0,l),
(73,700,l),
(162,700,l),
(162,71,l),
(486,71,l),
(486,0,l)
);
},
{
closed = 1;
nodes = (
(199,-201,l),
(232,-201,o),
(246,-181,o),
(246,-143,cs),
(246,-129,l),
(201,-129,l),
(201,-50,l),
(288,-50,l),
(296,-77,o),
(299,-104,o),
(299,-126,cs),
(299,-206,o),
(263,-241,o),
(199,-241,c)
);
}
);
width = 528;
},
{
layerId = "0C974A3A-E5A4-4FB7-A898-B0FABB9FC9C2";
shapes = (
{
closed = 1;
nodes = (
(78,0,l),
(78,700,l),
(133,700,l),
(133,46,l),
(470,46,l),
(470,0,l)
);
},
{
closed = 1;
nodes = (
(194,-183,l),
(226,-183,o),
(239,-164,o),
(239,-129,cs),
(239,-115,l),
(200,-115,l),
(200,-54,l),
(270,-54,l),
(275,-75,o),
(277,-97,o),
(277,-113,cs),
(277,-189,o),
(245,-214,o),
(194,-214,c)
);
}
);
width = 508;
}
);
rightKerningGroup = L;
unicode = 315;
}
{
glyphname = lcommaaccent;
layers = (
{
layerId = "BB5B5596-5E1F-4BCA-852B-56C614C2EA8E";
shapes = (
{
closed = 1;
nodes = (
(63,0,l),
(63,726,l),
(235,726,l),
(235,0,l)
);
},
{
closed = 1;
nodes = (
(92,-247,l),
(127,-247,o),
(144,-225,o),
(144,-180,cs),
(144,-164,l),
(81,-164,l),
(81,-40,l),
(213,-40,l),
(228,-84,o),
(233,-123,o),
(233,-159,cs),
(233,-251,o),
(187,-313,o),
(92,-313,c)
);
}
);
width = 297;
},
{
layerId = "E4D0624D-8000-4CFF-8595-BC700BCBE458";
shapes = (
{
closed = 1;
nodes = (
(69,0,l),
(69,726,l),
(158,726,l),
(158,0,l)
);
},
{
closed = 1;
nodes = (
(68,-202,l),
(103,-202,o),
(116,-182,o),
(116,-144,cs),
(116,-130,l),
(70,-130,l),
(70,-50,l),
(158,-50,l),
(165,-79,o),
(168,-105,o),
(168,-127,cs),
(168,-207,o),
(132,-244,o),
(68,-244,c)
);
}
);
width = 243;
},
{
layerId = "E70FFCB9-C703-4CAE-9CF8-4537993847F6";
shapes = (
{
closed = 1;
nodes = (
(72,0,l),
(72,726,l),
(127,726,l),
(127,0,l)
);
},
{
closed = 1;
nodes = (
(58,-184,l),
(93,-184,o),
(105,-165,o),
(105,-130,cs),
(105,-116,l),
(65,-116,l),
(65,-54,l),
(136,-54,l),
(140,-77,o),
(142,-98,o),
(142,-114,cs),
(142,-190,o),
(110,-216,o),
(58,-216,c)
);
}
);
width = 221;
}
);
unicode = 316;
}
{
glyphname = Lcaron;
layers = (
{
layerId = "F6FB205E-B3AB-4819-9CAF-AB538C51B80E";
shapes = (
{
closed = 1;
nodes = (
(62,0,l),
(62,700,l),
(233,700,l),
(233,132,l),
(527,132,l),
(527,0,l)
);
},
{
closed = 1;
nodes = (
(346,495,l),
(381,495,o),
(398,517,o),
(398,561,cs),
(398,577,l),
(335,577,l),
(335,700,l),
(466,700,l),
(481,657,o),
(486,618,o),
(486,582,cs),
(486,491,o),
(442,430,o),
(346,430,c)
);
}
);
width = 577;
},
{
layerId = "36B3D2C2-B8FB-4E59-BDB1-E262A6063C52";
shapes = (
{
closed = 1;
nodes = (
(73,0,l),
(73,700,l),
(162,700,l),
(162,71,l),
(486,71,l),
(486,0,l)
);
},
{
closed = 1;
nodes = (
(280,539,l),
(315,539,o),
(328,557,o),
(328,593,cs),
(328,616,l),
(279,616,l),
(279,700,l),
(370,700,l),
(377,665,o),
(380,636,o),
(380,609,cs),
(380,532,o),
(346,497,o),
(280,497,c)
);
}
);
width = 528;
},
{
layerId = "0C974A3A-E5A4-4FB7-A898-B0FABB9FC9C2";
shapes = (
{
closed = 1;
nodes = (
(78,0,l),
(78,700,l),
(133,700,l),
(133,46,l),
(470,46,l),
(470,0,l)
);
},
{
closed = 1;
nodes = (
(254,556,l),
(289,556,o),
(300,573,o),
(300,606,cs),
(300,631,l),
(257,631,l),
(257,700,l),
(331,700,l),
(335,668,o),
(338,643,o),
(338,620,cs),
(338,548,o),
(307,524,o),
(254,524,c)
);
}
);
width = 508;
}
);
rightKerningGroup = L;
unicode = 317;
}
{
glyphname = lcaron;
layers = (
{
layerId = "801975A8-2B28-48D2-ACC9-91C57621CBC0";
shapes = (
{
closed = 1;
nodes = (
(312,539,l),
(347,539,o),
(364,561,o),
(364,606,cs),
(364,622,l),
(300,622,l),
(300,746,l),
(432,746,l),
(448,703,o),
(452,663,o),
(452,627,cs),
(452,535,o),
(406,474,o),
(312,474,c)
);
},
{
closed = 1;
nodes = (
(63,0,l),
(63,726,l),
(235,726,l),
(235,0,l)
);
}
);
width = 478;
},
{
layerId = "108F7D4A-630E-4424-A5B2-B42F8C482EB9";
shapes = (
{
closed = 1;
nodes = (
(236,583,l),
(271,583,o),
(284,602,o),
(284,637,cs),
(284,661,l),
(234,661,l),
(234,746,l),
(325,746,l),
(334,711,o),
(336,681,o),
(336,654,cs),
(336,576,o),
(300,542,o),
(236,542,c)
);
},
{
closed = 1;
nodes = (
(69,0,l),
(69,726,l),
(158,726,l),
(158,0,l)
);
}
);
width = 347;
},
{
layerId = "565F47C8-0ABB-4A45-ACC1-9062093877DB";
shapes = (
{
closed = 1;
nodes = (
(205,601,l),
(240,601,o),
(252,618,o),
(252,650,cs),
(252,676,l),
(208,676,l),
(208,746,l),
(282,746,l),
(289,714,o),
(289,688,o),
(289,665,cs),
(289,593,o),
(258,569,o),
(205,569,c)
);
},
{
closed = 1;
nodes = (
(72,0,l),
(72,726,l),
(127,726,l),
(127,0,l)
);
}
);
width = 295;
}
);
unicode = 318;
}
{
glyphname = ldot;
layers = (
{
layerId = "F6FB205E-B3AB-4819-9CAF-AB538C51B80E";
shapes = (
{
closed = 1;
nodes = (
(63,0,l),
(63,726,l),
(235,726,l),
(235,0,l)
);
},
{
closed = 1;
nodes = (
(296,292,o),
(265,325,o),
(265,366,cs),
(265,409,o),
(296,442,o),
(340,442,cs),
(383,442,o),
(414,409,o),
(414,366,cs),
(414,325,o),
(383,292,o),
(340,292,cs)
);
}
);
width = 445;
},
{
layerId = "36B3D2C2-B8FB-4E59-BDB1-E262A6063C52";
shapes = (
{
closed = 1;
nodes = (
(78,0,l),
(78,726,l),
(166,726,l),
(166,0,l)
);
},
{
closed = 1;
nodes = (
(242,319,o),
(221,342,o),
(221,370,cs),
(221,399,o),
(242,421,o),
(272,421,cs),
(301,421,o),
(323,399,o),
(323,370,cs),
(323,342,o),
(301,319,o),
(272,319,cs)
);
}
);
width = 354;
},
{
layerId = "0C974A3A-E5A4-4FB7-A898-B0FABB9FC9C2";
shapes = (
{
closed = 1;
nodes = (
(84,0,l),
(84,726,l),
(139,726,l),
(139,0,l)
);
},
{
closed = 1;
nodes = (
(221,330,o),
(203,349,o),
(203,372,cs),
(203,395,o),
(221,413,o),
(245,413,cs),
(268,413,o),
(287,395,o),
(287,372,cs),
(287,349,o),
(268,330,o),
(245,330,cs)
);
}
);
width = 318;
}
);
unicode = 320;
}
{
glyphname = Lslash;
layers = (
{
layerId = "BB5B5596-5E1F-4BCA-852B-56C614C2EA8E";
shapes = (
{
closed = 1;
nodes = (
(62,0,l),
(62,266,l),
(20,253,l),
(20,397,l),
(62,410,l),
(62,700,l),
(233,700,l),
(233,460,l),
(339,492,l),
(339,348,l),
(233,316,l),
(233,132,l),
(527,132,l),
(527,0,l)
);
}
);
width = 600;
},
{
layerId = "E4D0624D-8000-4CFF-8595-BC700BCBE458";
shapes = (
{
closed = 1;
nodes = (
(73,0,l),
(73,303,l),
(20,282,l),
(20,353,l),
(73,374,l),
(73,700,l),
(162,700,l),
(162,404,l),
(308,461,l),
(308,390,l),
(162,333,l),
(162,71,l),
(486,71,l),
(486,0,l)
);
}
);
width = 554;
},
{
layerId = "E70FFCB9-C703-4CAE-9CF8-4537993847F6";
shapes = (
{
closed = 1;
nodes = (
(78,0,l),
(78,318,l),
(20,294,l),
(20,336,l),
(78,360,l),
(78,700,l),
(133,700,l),
(133,382,l),
(295,448,l),
(295,407,l),
(133,340,l),
(133,46,l),
(470,46,l),
(470,0,l)
);
}
);
width = 535;
}
);
rightKerningGroup = L;
unicode = 321;
}
{
glyphname = lslash;
layers = (
{
layerId = "F6FB205E-B3AB-4819-9CAF-AB538C51B80E";
shapes = (
{
closed = 1;
nodes = (
(78,0,l),
(78,278,l),
(12,258,l),
(12,404,l),
(78,424,l),
(78,726,l),
(250,726,l),
(250,476,l),
(317,496,l),
(317,350,l),
(250,330,l),
(250,0,l)
);
}
);
width = 329;
},
{
layerId = "36B3D2C2-B8FB-4E59-BDB1-E262A6063C52";
shapes = (
{
closed = 1;
nodes = (
(84,0,l),
(84,361,l),
(10,330,l),
(10,402,l),
(84,433,l),
(84,726,l),
(172,726,l),
(172,466,l),
(248,497,l),
(248,426,l),
(172,394,l),
(172,0,l)
);
}
);
width = 257;
},
{
layerId = "0C974A3A-E5A4-4FB7-A898-B0FABB9FC9C2";
shapes = (
{
closed = 1;
nodes = (
(86,0,l),
(86,394,l),
(9,359,l),
(9,401,l),
(86,437,l),
(86,726,l),
(141,726,l),
(141,462,l),
(220,498,l),
(220,457,l),
(141,420,l),
(141,0,l)
);
}
);
width = 228;
}
);
unicode = 322;
}
{
glyphname = Ncommaaccent;
layers = (
{
layerId = "801975A8-2B28-48D2-ACC9-91C57621CBC0";
shapes = (
{
closed = 1;
nodes = (
(62,0,l),
(62,700,l),
(233,700,l),
(519,273,l),
(519,700,l),
(690,700,l),
(690,0,l),
(519,0,l),
(233,425,l),
(233,0,l)
);
},
{
closed = 1;
nodes = (
(332,-245,l),
(367,-245,o),
(384,-223,o),
(384,-179,cs),
(384,-163,l),
(321,-163,l),
(321,-40,l),
(452,-40,l),
(467,-83,o),
(472,-122,o),
(472,-158,cs),
(472,-249,o),
(428,-310,o),
(332,-310,c)
);
}
);
width = 752;
},
{
layerId = "108F7D4A-630E-4424-A5B2-B42F8C482EB9";
shapes = (
{
closed = 1;
nodes = (
(73,0,l),
(73,700,l),
(162,700,l),
(530,146,l),
(530,700,l),
(619,700,l),
(619,0,l),
(530,0,l),
(162,555,l),
(162,0,l)
);
},
{
closed = 1;
nodes = (
(305,-201,l),
(338,-201,o),
(351,-181,o),
(351,-143,cs),
(351,-129,l),
(305,-129,l),
(305,-50,l),
(393,-50,l),
(401,-79,o),
(404,-103,o),
(404,-126,cs),
(404,-206,o),
(369,-241,o),
(305,-241,c)
);
}
);
width = 692;
},
{
layerId = "565F47C8-0ABB-4A45-ACC1-9062093877DB";
shapes = (
{
closed = 1;
nodes = (
(78,0,l),
(78,700,l),
(133,700,l),
(535,95,l),
(535,700,l),
(590,700,l),
(590,0,l),
(535,0,l),
(133,607,l),
(133,0,l)
);
},
{
closed = 1;
nodes = (
(294,-183,l),
(326,-183,o),
(338,-164,o),
(338,-129,cs),
(338,-115,l),
(299,-115,l),
(299,-54,l),
(369,-54,l),
(374,-77,o),
(377,-96,o),
(377,-113,cs),
(377,-189,o),
(345,-214,o),
(294,-214,c)
);
}
);
width = 668;
}
);
unicode = 325;
}
{
glyphname = ncommaaccent;
layers = (
{
layerId = "3C0957B3-9451-4BAD-AE3B-C8576C323C81";
shapes = (
{
closed = 1;
nodes = (
(420,0,l),
(420,257,ls),
(420,325,o),
(397,368,o),
(332,368,cs),
(273,368,o),
(235,325,o),
(235,257,cs),
(235,0,l),
(63,0,l),
(63,500,l),
(213,500,l),
(227,420,l),
(258,475,o),
(314,512,o),
(395,512,cs),
(526,512,o),
(592,424,o),
(592,272,cs),
(592,0,l)
);
},
{
closed = 1;
nodes = (
(275,-247,l),
(310,-247,o),
(328,-225,o),
(328,-180,cs),
(328,-164,l),
(264,-164,l),
(264,-40,l),
(396,-40,l),
(411,-84,o),
(416,-123,o),
(416,-159,cs),
(416,-251,o),
(372,-313,o),
(275,-313,c)
);
}
);
width = 648;
},
{
layerId = "C91D2DC0-8AAD-4B21-B0E6-07AA6617D11E";
shapes = (
{
closed = 1;
nodes = (
(433,0,l),
(433,282,ls),
(433,385,o),
(390,436,o),
(306,436,cs),
(220,436,o),
(158,373,o),
(158,258,cs),
(158,0,l),
(69,0,l),
(69,500,l),
(149,500,l),
(155,411,l),
(187,475,o),
(250,512,o),
(327,512,cs),
(447,512,o),
(521,441,o),
(521,291,cs),
(521,0,l)
);
},
{
closed = 1;
nodes = (
(260,-202,l),
(294,-202,o),
(307,-182,o),
(307,-144,cs),
(307,-130,l),
(260,-130,l),
(260,-50,l),
(350,-50,l),
(357,-79,o),
(360,-105,o),
(360,-127,cs),
(360,-207,o),
(324,-244,o),
(260,-244,c)
);
}
);
width = 579;
},
{
layerId = "972C881F-D909-4F62-92A5-F720CB79AC7E";
shapes = (
{
closed = 1;
nodes = (
(438,0,l),
(438,292,ls),
(438,409,o),
(387,463,o),
(295,463,cs),
(199,463,o),
(127,392,o),
(127,259,cs),
(127,0,l),
(72,0,l),
(72,500,l),
(124,500,l),
(126,407,l),
(158,475,o),
(225,512,o),
(300,512,cs),
(415,512,o),
(493,448,o),
(493,298,cs),
(493,0,l)
);
},
{
closed = 1;
nodes = (
(254,-184,l),
(287,-184,o),
(299,-165,o),
(299,-130,cs),
(299,-116,l),
(259,-116,l),
(259,-54,l),
(332,-54,l),
(335,-77,o),
(338,-98,o),
(338,-114,cs),
(338,-190,o),
(305,-216,o),
(254,-216,c)
);
}
);
width = 552;
}
);
leftKerningGroup = m;
rightKerningGroup = h;
unicode = 326;
}
{
color = (153, 154, 255, 255);
glyphname = Eng;
layers = (
{
layerId = "3C0957B3-9451-4BAD-AE3B-C8576C323C81";
shapes = (
{
closed = 1;
nodes = (
(424,-222,l),
(424,-76,l),
(465,-76,ls),
(504,-76,o),
(518,-61,o),
(518,-28,cs),
(518,0,l),
(690,0,l),
(690,-26,ls),
(690,-173,o),
(609,-222,o),
(491,-222,cs)
);
},
{
alignment = -1;
ref = N;
}
);
width = 752;
},
{
layerId = "C91D2DC0-8AAD-4B21-B0E6-07AA6617D11E";
shapes = (
{
closed = 1;
nodes = (
(422,-222,l),
(422,-146,l),
(460,-146,ls),
(510,-146,o),
(530,-127,o),
(530,-78,cs),
(530,0,l),
(619,0,l),
(619,-80,ls),
(619,-179,o),
(568,-222,o),
(474,-222,cs)
);
},
{
alignment = -1;
ref = N;
}
);
width = 692;
},
{
layerId = "972C881F-D909-4F62-92A5-F720CB79AC7E";
shapes = (
{
closed = 1;
nodes = (
(421,-222,l),
(421,-174,l),
(458,-174,ls),
(513,-174,o),
(535,-154,o),
(535,-98,cs),
(535,0,l),
(590,0,l),
(590,-102,ls),
(590,-182,o),
(552,-222,o),
(467,-222,cs)
);
},
{
alignment = -1;
ref = N;
}
);
width = 668;
}
);
unicode = 330;
}
{
color = (153, 155, 255, 255);
glyphname = eng;
layers = (
{
layerId = "F6FB205E-B3AB-4819-9CAF-AB538C51B80E";
shapes = (
{
closed = 1;
nodes = (
(326,-222,l),
(326,-76,l),
(367,-76,ls),
(406,-76,o),
(420,-61,o),
(420,-28,cs),
(420,0,l),
(592,0,l),
(592,-26,ls),
(592,-173,o),
(511,-222,o),
(393,-222,cs)
);
},
{
alignment = -1;
ref = n;
}
);
width = 618;
},
{
layerId = "36B3D2C2-B8FB-4E59-BDB1-E262A6063C52";
shapes = (
{
closed = 1;
nodes = (
(325,-222,l),
(325,-146,l),
(363,-146,ls),
(413,-146,o),
(433,-127,o),
(433,-78,cs),
(433,0,l),
(521,0,l),
(521,-80,ls),
(521,-179,o),
(471,-222,o),
(377,-222,cs)
);
},
{
alignment = -1;
ref = n;
}
);
width = 618;
},
{
layerId = "0C974A3A-E5A4-4FB7-A898-B0FABB9FC9C2";
shapes = (
{
closed = 1;
nodes = (
(324,-222,l),
(324,-174,l),
(361,-174,ls),
(416,-174,o),
(438,-154,o),
(438,-98,cs),
(438,0,l),
(493,0,l),
(493,-102,ls),
(493,-182,o),
(455,-222,o),
(370,-222,cs)
);
},
{
alignment = -1;
ref = n;
}
);
width = 618;
}
);
unicode = 331;
}
